<svg width="390" height="299" viewBox="0 0 390 299" fill="none" xmlns="http://www.w3.org/2000/svg">
<path d="M280.477 182.045H145.098C144.017 182.043 142.981 181.613 142.216 180.848C141.452 180.083 141.022 179.045 141.021 177.963V132.249C141.022 131.167 141.452 130.129 142.216 129.364C142.981 128.599 144.017 128.168 145.098 128.167H280.477C281.558 128.168 282.594 128.599 283.359 129.364C284.123 130.129 284.553 131.166 284.555 132.249V177.963C284.553 179.045 284.123 180.083 283.359 180.848C282.594 181.613 281.558 182.043 280.477 182.045Z" fill="#BFACE2"/>
<path d="M198.108 140.412H162.225V144.493H198.108V140.412Z" fill="#655DBB"/>
<path d="M245.41 145.31C246.761 145.31 247.856 144.213 247.856 142.861C247.856 141.508 246.761 140.412 245.41 140.412C244.058 140.412 242.963 141.508 242.963 142.861C242.963 144.213 244.058 145.31 245.41 145.31Z" fill="#655DBB"/>
<path d="M253.565 145.31C254.916 145.31 256.011 144.213 256.011 142.861C256.011 141.508 254.916 140.412 253.565 140.412C252.214 140.412 251.118 141.508 251.118 142.861C251.118 144.213 252.214 145.31 253.565 145.31Z" fill="#655DBB"/>
<path d="M261.72 145.31C263.071 145.31 264.167 144.213 264.167 142.861C264.167 141.508 263.071 140.412 261.72 140.412C260.369 140.412 259.273 141.508 259.273 142.861C259.273 144.213 260.369 145.31 261.72 145.31Z" fill="#655DBB"/>
<path d="M280.477 240.004H145.098C144.017 240.002 142.981 239.572 142.216 238.807C141.452 238.042 141.022 237.004 141.021 235.922V190.208C141.022 189.125 141.452 188.088 142.216 187.323C142.981 186.558 144.017 186.127 145.098 186.126H280.477C281.558 186.127 282.594 186.558 283.359 187.323C284.123 188.088 284.553 189.125 284.555 190.208V235.922C284.553 237.004 284.123 238.042 283.359 238.807C282.594 239.572 281.558 240.002 280.477 240.004Z" fill="#BFACE2"/>
<path d="M198.108 198.371H162.225V202.453H198.108V198.371Z" fill="#655DBB"/>
<path d="M245.41 203.269C246.761 203.269 247.856 202.173 247.856 200.82C247.856 199.468 246.761 198.371 245.41 198.371C244.058 198.371 242.963 199.468 242.963 200.82C242.963 202.173 244.058 203.269 245.41 203.269Z" fill="#655DBB"/>
<path d="M253.565 203.269C254.916 203.269 256.011 202.173 256.011 200.82C256.011 199.468 254.916 198.371 253.565 198.371C252.214 198.371 251.118 199.468 251.118 200.82C251.118 202.173 252.214 203.269 253.565 203.269Z" fill="#655DBB"/>
<path d="M261.72 203.269C263.071 203.269 264.167 202.173 264.167 200.82C264.167 199.468 263.071 198.371 261.72 198.371C260.369 198.371 259.273 199.468 259.273 200.82C259.273 202.173 260.369 203.269 261.72 203.269Z" fill="#655DBB"/>
<path d="M280.477 297.963H145.098C144.017 297.962 142.981 297.531 142.216 296.766C141.452 296.001 141.022 294.964 141.021 293.881V248.167C141.022 247.085 141.452 246.047 142.216 245.282C142.981 244.517 144.017 244.087 145.098 244.085H280.477C281.558 244.087 282.594 244.517 283.359 245.282C284.123 246.047 284.553 247.085 284.555 248.167V293.881C284.553 294.964 284.123 296.001 283.359 296.766C282.594 297.531 281.558 297.962 280.477 297.963Z" fill="#BFACE2"/>
<path d="M198.108 256.33H162.225V260.412H198.108V256.33Z" fill="#655DBB"/>
<path d="M245.41 261.228C246.761 261.228 247.856 260.132 247.856 258.779C247.856 257.427 246.761 256.33 245.41 256.33C244.058 256.33 242.963 257.427 242.963 258.779C242.963 260.132 244.058 261.228 245.41 261.228Z" fill="#655DBB"/>
<path d="M253.565 261.228C254.916 261.228 256.011 260.132 256.011 258.779C256.011 257.427 254.916 256.33 253.565 256.33C252.214 256.33 251.118 257.427 251.118 258.779C251.118 260.132 252.214 261.228 253.565 261.228Z" fill="#655DBB"/>
<path d="M261.72 261.228C263.071 261.228 264.167 260.132 264.167 258.779C264.167 257.427 263.071 256.33 261.72 256.33C260.369 256.33 259.273 257.427 259.273 258.779C259.273 260.132 260.369 261.228 261.72 261.228Z" fill="#655DBB"/>
<path d="M229.44 83.5272L229.291 83.4165L229.287 83.4138C229.094 83.2702 228.875 83.1661 228.641 83.1075C228.408 83.0488 228.165 83.0367 227.928 83.0719C227.69 83.1071 227.461 83.1888 227.254 83.3125C227.048 83.4361 226.868 83.5993 226.725 83.7926L196.253 124.86H192.9V124.072C192.9 123.877 192.823 123.691 192.686 123.553C192.548 123.416 192.362 123.338 192.167 123.338H190.167C189.973 123.338 189.787 123.416 189.649 123.553C189.512 123.691 189.435 123.877 189.435 124.072V124.86H188.277V124.072C188.277 123.877 188.2 123.691 188.062 123.553C187.925 123.416 187.739 123.338 187.544 123.338H185.544C185.35 123.338 185.163 123.416 185.026 123.553C184.889 123.691 184.811 123.877 184.811 124.072V124.86H183.658V124.072C183.658 123.877 183.58 123.691 183.443 123.553C183.306 123.416 183.119 123.338 182.925 123.338H180.925C180.73 123.338 180.544 123.416 180.407 123.553C180.269 123.691 180.192 123.877 180.192 124.072V124.86H179.034V124.072C179.034 123.877 178.957 123.691 178.82 123.553C178.682 123.416 178.496 123.338 178.302 123.338H176.301C176.107 123.338 175.921 123.416 175.783 123.553C175.646 123.691 175.569 123.877 175.569 124.072V124.86H174.415V124.072C174.415 123.877 174.338 123.691 174.2 123.553C174.063 123.416 173.877 123.338 173.682 123.338H171.682C171.586 123.338 171.491 123.357 171.402 123.394C171.313 123.431 171.232 123.485 171.164 123.553C171.096 123.621 171.042 123.702 171.005 123.791C170.968 123.88 170.949 123.975 170.949 124.072V124.86H169.792V124.072C169.792 123.877 169.715 123.691 169.577 123.553C169.44 123.416 169.253 123.338 169.059 123.338H167.059C166.865 123.338 166.678 123.416 166.541 123.553C166.403 123.691 166.326 123.877 166.326 124.072V124.86H165.169V124.072C165.169 123.877 165.091 123.691 164.954 123.553C164.817 123.416 164.63 123.338 164.436 123.338H162.436C162.241 123.338 162.055 123.416 161.918 123.553C161.78 123.691 161.703 123.877 161.703 124.072V124.86H160.549V124.072C160.549 123.877 160.472 123.691 160.334 123.553C160.197 123.416 160.011 123.338 159.816 123.338H157.816C157.622 123.338 157.436 123.416 157.298 123.553C157.161 123.691 157.084 123.877 157.084 124.072V124.86H155.926V124.072C155.926 123.877 155.849 123.691 155.711 123.553C155.574 123.416 155.388 123.338 155.193 123.338H153.193C152.999 123.338 152.812 123.416 152.675 123.553C152.538 123.691 152.46 123.877 152.46 124.072V124.86H151.306V124.072C151.306 123.877 151.229 123.691 151.092 123.553C150.954 123.416 150.768 123.338 150.574 123.338H148.574C148.379 123.338 148.193 123.416 148.056 123.553C147.918 123.691 147.841 123.877 147.841 124.072V124.86H146.39C146.15 124.86 145.912 124.908 145.689 125C145.467 125.092 145.265 125.227 145.095 125.397C144.925 125.567 144.79 125.77 144.698 125.992C144.606 126.214 144.559 126.453 144.559 126.694V128.443C144.559 128.684 144.606 128.922 144.698 129.144C144.79 129.367 144.925 129.569 145.095 129.739C145.265 129.909 145.467 130.045 145.689 130.137C145.912 130.229 146.15 130.276 146.39 130.276H195.949C196.576 130.276 197.185 130.06 197.671 129.663C198.158 129.266 198.494 128.714 198.621 128.099L198.64 128.113L229.816 86.0959L229.819 86.0923C230.109 85.7019 230.231 85.2123 230.16 84.7313C230.089 84.2503 229.83 83.8172 229.44 83.5272Z" fill="#3F3D56"/>
<path d="M36.8613 282.39L43.0171 285.543L58.0969 263.277L49.012 258.623L36.8613 282.39Z" fill="#FFB7B7"/>
<path d="M36.3194 279.574L48.4423 285.784L48.4429 285.784C50.4917 286.834 52.0401 288.656 52.7474 290.848C53.4547 293.04 53.263 295.424 52.2145 297.475L52.0861 297.726L32.2373 287.559L36.3194 279.574Z" fill="#655DBB"/>
<path d="M107.957 291.017H114.872L118.162 264.318H107.956L107.957 291.017Z" fill="#FFB7B7"/>
<path d="M106.193 288.757L119.812 288.756H119.812C122.114 288.756 124.321 289.672 125.949 291.301C127.576 292.93 128.491 295.139 128.491 297.443V297.726L106.194 297.726L106.193 288.757Z" fill="#655DBB"/>
<path d="M75.6118 73.2461C75.6118 73.2461 70.9811 69.6949 70.9811 78.3691L70.25 107.034L78.4145 134.113L83.167 125.33L81.2173 106.302L75.6118 73.2461Z" fill="#655DBB"/>
<path d="M125.145 151.649C125.145 151.649 130.515 177.825 123.713 199.306L119.955 281.901L106.172 280.826L101.34 219.552L96.686 189.094L87.0206 216.864L55.1605 275.63L40.4834 264.163C40.4834 264.163 56.748 219.741 68.7637 210.414L74.79 141.711L125.145 151.649Z" fill="#655DBB"/>
<path d="M122.598 30.0641C126.761 22.4413 123.962 12.8838 116.347 8.71677C108.731 4.54978 99.183 7.35129 95.0201 14.9741C90.8571 22.5969 93.6559 32.1544 101.271 36.3214C108.887 40.4884 118.435 37.6869 122.598 30.0641Z" fill="#FFB7B7"/>
<path d="M107.697 25.8557C109.581 26.1011 111.002 24.1718 111.661 22.3884C112.32 20.605 112.822 18.5287 114.46 17.5653C116.698 16.2492 119.561 17.8322 122.12 17.3979C125.009 16.9075 126.888 13.842 127.035 10.9119C127.183 7.98184 126.018 5.16371 124.875 2.46219L124.476 5.81957C124.529 4.68167 124.29 3.5491 123.781 2.53018C123.272 1.51127 122.51 0.640099 121.569 0L122.083 4.92643C121.974 4.24675 121.731 3.59541 121.37 3.00977C121.008 2.42413 120.535 1.91572 119.976 1.51374C119.418 1.11175 118.786 0.824087 118.116 0.667267C117.446 0.510447 116.752 0.487553 116.074 0.599898L116.155 3.53525C112.817 3.13799 109.45 2.74017 106.103 3.04282C102.755 3.34547 99.3846 4.40563 96.8474 6.61236C93.0523 9.91329 91.6662 15.3487 92.1316 20.3597C92.5969 25.3707 94.6634 30.0782 96.8172 34.6257C97.3591 35.7698 98.1086 37.0609 99.3652 37.2067C100.494 37.3376 101.527 36.3929 101.878 35.3108C102.149 34.2005 102.138 33.0403 101.848 31.935C101.53 30.246 101.13 28.5196 101.429 26.8271C101.727 25.1346 102.944 23.4621 104.648 23.2547C106.352 23.0473 108.097 24.9974 107.277 26.5077L107.697 25.8557Z" fill="#655DBB"/>
<path d="M126.118 158.649L73.6621 155.261L77.6104 138.888L125.554 149.616L126.118 158.649Z" fill="#CBCBCB"/>
<path d="M93.7681 43.9718L97.0583 39.3994C97.0583 39.3994 100.736 40.6504 110.585 45.5575L111.28 49.8414L128.376 155.093L97.302 153.751L88.84 153.571L86.0708 147.357L82.6561 153.439L74.3926 153.263L65.9844 148.384L74.2708 123.013L76.9516 99.8373L72.8085 78.0034C72.8085 78.0034 67.5949 57.9538 87.6752 47.1432L93.7681 43.9718Z" fill="#655DBB"/>
<path d="M163.807 123.648C163.046 123.841 162.252 123.865 161.481 123.719C160.709 123.572 159.98 123.257 159.343 122.798C158.706 122.338 158.178 121.744 157.795 121.058C157.412 120.371 157.185 119.61 157.128 118.826L138.692 113.883L146.109 107.292L162.478 112.996C163.8 112.988 165.079 113.465 166.073 114.338C167.066 115.211 167.706 116.418 167.869 117.731C168.033 119.044 167.71 120.371 166.961 121.462C166.213 122.552 165.09 123.33 163.807 123.648Z" fill="#FFB7B7"/>
<path d="M155.55 120.857C155.163 121.069 154.735 121.196 154.295 121.231C153.855 121.266 153.412 121.208 152.996 121.06L122.669 109.539C115.27 106.913 109.076 101.687 105.239 94.8329L92.5918 72.2505C91.7038 71.2582 91.0199 70.1004 90.5794 68.8433C90.1389 67.5861 89.9503 66.2544 90.0245 64.9242C90.0988 63.5941 90.4343 62.2917 91.0119 61.0915C91.5896 59.8913 92.398 58.8169 93.3909 57.9298C94.3839 57.0427 95.5418 56.3602 96.7985 55.9215C98.0552 55.4829 99.386 55.2966 100.715 55.3733C102.043 55.45 103.344 55.7882 104.542 56.3685C105.74 56.9489 106.812 57.7601 107.696 58.7556L129.586 93.4844L157.134 109.651C157.674 110.006 158.092 110.518 158.332 111.118C158.572 111.718 158.622 112.378 158.475 113.007L157.105 118.818C156.958 119.441 156.624 120.004 156.149 120.433C155.967 120.597 155.766 120.74 155.55 120.857Z" fill="#655DBB"/>
<path d="M389.587 297H0.412698C0.303244 297 0.198272 297.053 0.120876 297.146C0.0434803 297.24 0 297.367 0 297.5C0 297.633 0.0434803 297.76 0.120876 297.854C0.198272 297.947 0.303244 298 0.412698 298H389.587C389.697 298 389.802 297.947 389.879 297.854C389.957 297.76 390 297.633 390 297.5C390 297.367 389.957 297.24 389.879 297.146C389.802 297.053 389.697 297 389.587 297Z" fill="#CBCBCB"/>
</svg>
