<svg width="260" height="55" viewBox="0 0 260 55" fill="none" xmlns="http://www.w3.org/2000/svg">
<g clip-path="url(#clip0_96_791)">
<path d="M10.5455 37.9072C10.0771 36.4781 9.84473 34.6742 9.84473 32.2487C9.84473 29.8223 10.0771 28.0147 10.5455 26.5893C11.8541 22.4992 15.3207 20.2644 19.8599 20.2644C23.2308 20.2644 25.9 21.644 27.6807 23.832C27.8183 24.0208 27.8648 24.3059 27.6333 24.4957L24.6852 27.1118C24.4501 27.3034 24.2168 27.2557 24.0282 27.0183C22.9037 25.735 21.7335 25.02 19.8608 25.02C17.8487 25.02 16.3049 26.0191 15.6479 28.0165C15.2761 29.1605 15.1804 30.4906 15.1804 32.2496C15.1804 34.0087 15.2752 35.3873 15.6479 36.5295C16.304 38.4774 17.8487 39.4765 19.8608 39.4765C21.7335 39.4765 22.9037 38.7624 24.0282 37.4819C24.2168 37.2408 24.4501 37.2408 24.6852 37.4314L27.6333 40.0476C27.8648 40.2373 27.8183 40.4757 27.6807 40.714C25.9009 42.8553 23.2317 44.233 19.8599 44.233C15.3207 44.2312 11.8541 41.9945 10.5455 37.9072Z" fill="white"/>
<path d="M112.83 37.9072C112.361 36.4781 112.129 34.6742 112.129 32.2487C112.129 29.8223 112.361 28.0147 112.83 26.5893C114.141 22.4992 117.604 20.2644 122.143 20.2644C125.515 20.2644 128.185 21.644 129.963 23.832C130.102 24.0208 130.151 24.3059 129.915 24.4957L126.966 27.1118C126.732 27.3034 126.499 27.2557 126.311 27.0183C125.189 25.735 124.018 25.02 122.143 25.02C120.132 25.02 118.586 26.0191 117.932 28.0165C117.557 29.1605 117.465 30.4906 117.465 32.2496C117.465 34.0087 117.557 35.3873 117.932 36.5295C118.586 38.4774 120.132 39.4765 122.143 39.4765C124.018 39.4765 125.189 38.7624 126.311 37.4819C126.499 37.2408 126.732 37.2408 126.966 37.4314L129.915 40.0476C130.151 40.2373 130.102 40.4757 129.963 40.714C128.185 42.8553 125.515 44.233 122.143 44.233C117.604 44.2312 114.141 41.9945 112.83 37.9072Z" fill="white"/>
<path d="M231.048 43.7096C230.768 43.7096 230.581 43.5208 230.581 43.2329V30.0139C230.581 27.065 229.128 25.0191 226.319 25.0191C223.604 25.0191 222.013 27.0641 222.013 30.0139V43.2329C222.013 43.5198 221.824 43.7096 221.545 43.7096H217.237C216.956 43.7096 216.767 43.5208 216.767 43.2329V30.0139C216.767 27.065 215.317 25.0191 212.512 25.0191C209.795 25.0191 208.202 27.0641 208.202 30.0139V43.2329C208.202 43.5198 208.015 43.7096 207.734 43.7096H203.427C203.144 43.7096 202.959 43.5208 202.959 43.2329V21.2626C202.959 20.9766 203.144 20.786 203.427 20.786H207.734C208.015 20.786 208.202 20.9766 208.202 21.2626V22.9273H208.25C209.234 21.5 211.199 20.2644 214.194 20.2644C216.863 20.2644 219.017 21.3561 220.372 23.3068H220.42C222.151 21.4066 224.4 20.2644 227.63 20.2644C232.871 20.2644 235.823 23.8778 235.823 28.7764V43.232C235.823 43.5198 235.634 43.7096 235.353 43.7096H231.048Z" fill="white"/>
<path d="M242.326 52.2684C242.047 52.2684 241.86 52.0777 241.86 51.7908V47.9876C241.86 47.7035 242.047 47.5101 242.326 47.5101H243.17C244.948 47.5101 245.84 46.7052 246.541 44.8014L247.197 42.8516L238.957 21.2618C238.863 20.9758 239.051 20.7851 239.334 20.7851H243.967C244.247 20.7851 244.435 20.9758 244.526 21.2618L249.631 36.2417H249.723L254.593 21.2618C254.687 20.9758 254.875 20.7851 255.153 20.7851H259.599C259.883 20.7851 260.07 20.9758 259.975 21.2618L251.363 45.1341C249.398 50.5561 247.523 52.2666 243.779 52.2666L242.326 52.2684Z" fill="white"/>
<path d="M31.9874 37.909C31.4725 36.2893 31.2383 34.7686 31.2383 32.2487C31.2383 29.7325 31.4725 28.2099 31.9874 26.5966C33.2513 22.6019 36.7125 20.2708 41.299 20.2708C45.8373 20.2708 49.3003 22.6009 50.5642 26.5966C51.0764 28.2099 51.3124 29.7325 51.3124 32.2487C51.3124 34.7686 51.0764 36.2893 50.5642 37.909C49.2993 41.901 45.8373 44.2302 41.299 44.2302C36.7125 44.2312 33.2513 41.902 31.9874 37.909ZM45.5102 36.4827C45.8856 35.2956 45.9786 34.2002 45.9786 32.2496C45.9786 30.3045 45.8856 29.2567 45.5102 28.022C44.8558 26.1218 43.4041 25.0255 41.299 25.0255C39.1948 25.0255 37.6948 26.1218 37.0414 28.022C36.6687 29.2577 36.5739 30.3045 36.5739 32.2496C36.5739 34.2002 36.6687 35.2956 37.0414 36.4827C37.6948 38.3866 39.1958 39.4765 41.299 39.4765C43.4041 39.4756 44.8558 38.3857 45.5102 36.4827Z" fill="white"/>
<path d="M142.507 20.2644C138.808 20.2644 136.329 21.1673 134.501 22.4992C134.316 22.644 134.268 22.8787 134.41 23.1161L136.138 26.2566C136.283 26.4949 136.56 26.5425 136.796 26.3519C137.873 25.4976 139.416 24.7817 141.946 24.7817C145.634 24.7817 146.886 25.9073 146.95 28.3814H146.951V28.4116C146.953 28.4694 146.953 28.528 146.953 28.5894V36.0088C146.953 38.624 145.175 39.9055 141.946 39.9055C139.416 39.9055 138.06 38.9568 138.06 37.0556C138.06 34.9143 139.559 33.961 142.928 33.961L143.953 33.9628C144.233 33.9628 144.422 33.7722 144.422 33.4889V30.4402C144.422 30.156 144.233 29.9662 143.953 29.9662H143.727L142.086 29.9653C136.516 29.9653 133.049 32.2515 133.049 37.2417C133.049 42.0459 136.516 44.2321 140.634 44.2321C143.814 44.2321 145.922 43.1394 146.999 41.5701H147.045V43.2348C147.045 43.5208 147.234 43.7114 147.514 43.7114H151.445C151.727 43.7114 151.915 43.5217 151.915 43.2348V28.2549C151.915 22.644 149.388 20.2644 142.507 20.2644Z" fill="white"/>
<path d="M86.58 29.9635C86.4579 29.9635 86.3777 30.0451 86.3777 30.1679V30.3036V30.7014V33.2204V33.5586V33.7538C86.3777 33.8767 86.4579 33.9592 86.58 33.9592H86.6967H98.1717C98.4998 33.9592 98.6875 33.7703 98.6875 33.4871C98.6875 29.7747 98.4515 28.2044 97.9385 26.5893C96.6727 22.6899 93.3036 20.2653 88.6687 20.2653C84.1751 20.2653 80.7121 22.5945 79.4464 26.5893C78.9807 28.0633 78.6973 29.8709 78.6973 32.2487C78.6973 34.6265 79.0253 36.3846 79.4965 37.8604C80.7595 41.8534 84.1286 44.2312 88.9029 44.2312C93.0676 44.2312 96.2535 42.6142 98.1708 40.3317C98.3567 40.0952 98.3567 39.8578 98.1234 39.6653L95.364 37.1931C95.128 37.0034 94.8947 37.0529 94.6596 37.2885C93.5378 38.5259 91.8993 39.4765 89.3713 39.4765C86.8461 39.4765 85.0654 38.2409 84.3163 36.007C84.2033 35.6944 84.1095 35.3662 84.0502 35.0097H84.0493C83.8789 34.0417 83.7787 33.0994 83.7787 31.7152C83.8151 30.4108 83.8898 29.5776 84.0739 28.5188C84.0758 28.5042 84.0785 28.4913 84.0812 28.4776C84.083 28.4666 84.0849 28.4584 84.0867 28.4474C84.1313 28.198 84.1924 27.9643 84.268 27.7305C84.8768 25.8761 86.5618 24.7826 88.717 24.7826C90.8239 24.7826 92.5062 25.8761 93.1149 27.7305C93.3036 28.3044 93.3956 28.8718 93.3956 29.6821C93.3956 29.8718 93.3027 29.9653 93.1149 29.9653H86.9646L86.9655 29.9644L86.58 29.9635Z" fill="white"/>
<path d="M74.3485 11.3738H70.049C69.7656 11.3738 69.5787 11.5636 69.5787 11.8459V22.9566V32.1452C69.5787 32.1699 69.5787 32.1947 69.5787 32.2185C69.5787 32.2432 69.5787 32.268 69.5787 32.2918V33.5119H69.555C69.5049 34.8227 69.3637 35.6844 69.1131 36.4919C68.5052 38.3894 67.0535 39.4335 64.9056 39.4335C62.8023 39.4335 61.3543 38.3894 60.7437 36.4919C60.4174 35.446 60.2789 34.3075 60.2789 32.2185C60.2789 30.1304 60.4174 28.9891 60.7437 27.9469C61.3424 26.0852 62.744 25.0338 64.778 24.9925H66.6134C66.7027 24.9705 66.761 24.8999 66.761 24.7973L66.7847 20.456C66.7847 20.3451 66.7154 20.2709 66.6134 20.258L65.148 20.2525H63.4256C59.6574 20.2929 56.8989 22.1417 55.7434 25.7579C55.182 27.517 54.9487 29.134 54.9487 32.2185C54.9487 35.3039 55.182 36.9191 55.7434 38.6745C56.9117 42.3319 59.7167 44.1835 63.5487 44.1835C66.5888 44.1835 68.4588 43.046 69.5314 41.4767H69.5769V43.1862C69.5769 43.4722 69.7646 43.662 70.0471 43.662H74.3467C74.6273 43.662 74.8151 43.4731 74.8151 43.1862V11.8459C74.8169 11.5627 74.6292 11.3738 74.3485 11.3738Z" fill="white"/>
<path d="M187.063 29.9635C186.942 29.9635 186.86 30.0451 186.86 30.1679V30.3036V30.7014V33.2204V33.5586V33.7538C186.86 33.8767 186.942 33.9592 187.063 33.9592H187.181H198.657C198.984 33.9592 199.172 33.7703 199.172 33.4871C199.172 29.7747 198.937 28.2044 198.424 26.5893C197.158 22.6899 193.788 20.2653 189.155 20.2653C184.66 20.2653 181.198 22.5945 179.932 26.5893C179.465 28.0633 179.183 29.8709 179.183 32.2487C179.183 34.6265 179.511 36.3846 179.982 37.8604C181.244 41.8534 184.614 44.2312 189.388 44.2312C193.553 44.2312 196.739 42.6142 198.657 40.3317C198.843 40.0952 198.843 39.8578 198.609 39.6653L195.849 37.1931C195.614 37.0034 195.381 37.0529 195.146 37.2885C194.024 38.5259 192.386 39.4765 189.857 39.4765C187.331 39.4765 185.552 38.2409 184.802 36.007C184.69 35.6944 184.595 35.3662 184.537 35.0097H184.537C184.365 34.0417 184.265 33.0994 184.265 31.7152C184.3 30.4108 184.374 29.5776 184.559 28.5188C184.563 28.5042 184.565 28.4913 184.567 28.4776C184.568 28.4666 184.57 28.4584 184.572 28.4474C184.619 28.198 184.679 27.9643 184.754 27.7305C185.362 25.8761 187.048 24.7826 189.203 24.7826C191.31 24.7826 192.992 25.8761 193.601 27.7305C193.789 28.3044 193.883 28.8718 193.883 29.6821C193.883 29.8718 193.789 29.9653 193.601 29.9653H187.451L187.063 29.9635Z" fill="white"/>
<path d="M175.054 11.3738H170.746C170.465 11.3738 170.277 11.5645 170.277 11.8468V22.9731V32.1763V32.2487V32.323V33.5449H170.254C170.203 34.8575 170.061 35.7201 169.811 36.5286C169.202 38.4297 167.747 39.4765 165.598 39.4765C163.493 39.4765 162.042 38.4297 161.43 36.5286C161.105 35.4809 160.963 34.3415 160.963 32.2487C160.963 30.1579 161.103 29.0139 161.43 27.9707C162.029 26.1063 163.433 25.0631 165.471 25.0219L167.309 25.0228C167.591 25.0228 167.778 24.833 167.778 24.5498V20.7393C167.778 20.4551 167.591 20.2654 167.309 20.2654H167.084L164.305 20.2644C164.284 20.2644 164.262 20.2644 164.241 20.2644C164.22 20.2644 164.201 20.2644 164.181 20.2644H164.117C160.344 20.3039 157.581 22.1564 156.424 25.7781C155.862 27.5399 155.629 29.1578 155.629 32.2469C155.629 35.3369 155.862 36.9557 156.424 38.7139C157.594 42.375 160.404 44.2303 164.242 44.2303C167.285 44.2303 169.158 43.0918 170.233 41.5198H170.279V43.2311C170.279 43.519 170.467 43.7078 170.749 43.7078H175.056C175.337 43.7078 175.525 43.5199 175.525 43.2311V11.8468C175.522 11.5636 175.334 11.3738 175.054 11.3738Z" fill="white"/>
<path d="M112.478 50.1931V54.5261C112.478 54.8112 112.666 55 112.947 55H128.91C129.195 55 129.384 54.8103 129.384 54.5261V50.1931C129.384 49.9117 129.195 49.7219 128.91 49.7219H112.947C112.666 49.7219 112.478 49.9117 112.478 50.1931Z" fill="white"/>
<path d="M108.426 0.153081C108.418 0.145748 108.414 0.136581 108.407 0.130165C108.406 0.129248 108.406 0.129248 108.406 0.129248C108.324 0.0476659 108.207 0 108.068 0H108.063H0.470231C0.43469 0 0.400972 0.00366661 0.368165 0.00916651C0.359052 0.0109998 0.350851 0.0146664 0.340826 0.0164997C0.319866 0.0219996 0.297084 0.0265829 0.277947 0.0348327C0.274301 0.0357494 0.271567 0.0375827 0.268833 0.039416C0.102066 0.108165 0 0.264912 0 0.472075V0.473909V54.5197V54.5233C0 54.6883 0.063791 54.8176 0.171324 54.9001C0.179526 54.9083 0.186817 54.9157 0.197752 54.9212C0.272479 54.9688 0.363609 54.9954 0.470231 54.9954H108.062H108.067C108.226 54.9954 108.354 54.934 108.436 54.8286C108.499 54.7498 108.537 54.6462 108.537 54.5224V54.5188V0.473909V0.472075C108.537 0.342828 108.496 0.233746 108.426 0.153081ZM5.71021 49.7201C5.67649 49.7201 5.64368 49.7173 5.61452 49.7128C5.60541 49.7109 5.59538 49.7063 5.58627 49.7036C5.5644 49.699 5.54253 49.6944 5.52248 49.6862C5.51883 49.6853 5.51701 49.6825 5.51337 49.6816C5.34751 49.6138 5.24636 49.4579 5.24544 49.2526V10.0786V5.7474C5.24544 5.53932 5.34751 5.38441 5.51337 5.31474C5.51792 5.31383 5.52066 5.31108 5.52339 5.31016C5.54253 5.30283 5.6045 5.28724 5.61452 5.28449C5.6455 5.27991 5.67831 5.27716 5.71203 5.27716H102.824C102.858 5.27716 102.89 5.27991 102.921 5.28449C102.931 5.28724 102.94 5.29091 102.949 5.29366C102.971 5.29824 102.992 5.30283 103.012 5.31108C103.017 5.312 103.019 5.31474 103.022 5.31566C103.189 5.38441 103.29 5.54024 103.29 5.74832V49.2535C103.289 49.4598 103.187 49.6156 103.023 49.6834C103.02 49.6843 103.018 49.6871 103.013 49.688C102.994 49.6953 102.971 49.7008 102.95 49.7054C102.94 49.7082 102.932 49.7128 102.922 49.7146C102.891 49.7201 102.861 49.7219 102.827 49.7219H5.71021V49.7201Z" fill="white"/>
</g>
<defs>
<clipPath id="clip0_96_791">
<rect width="260" height="55" fill="white"/>
</clipPath>
</defs>
</svg>
