<svg width="20" height="20" viewBox="0 0 20 20" fill="none" xmlns="http://www.w3.org/2000/svg">
<path d="M3.22034 7.45763H1.86441C0.835254 7.45898 0.00135593 8.29288 0 9.32203V10.678C0.00135593 11.7071 0.835254 12.541 1.86441 12.5424H3.22034C4.24949 12.541 5.08339 11.7071 5.08475 10.678V9.32203C5.08339 8.29288 4.24949 7.45898 3.22034 7.45763ZM4.0678 10.678C4.06712 11.1458 3.68814 11.5247 3.22034 11.5254H1.86441C1.39661 11.5247 1.01763 11.1458 1.01695 10.678V9.32203C1.01763 8.85424 1.39661 8.47525 1.86441 8.47458H3.22034C3.68814 8.47525 4.06712 8.85424 4.0678 9.32203V10.678ZM19.4915 9.49153H7.9661C7.68542 9.49153 7.45763 9.71932 7.45763 10C7.45763 10.2807 7.68542 10.5085 7.9661 10.5085H19.4915C19.7722 10.5085 20 10.2807 20 10C20 9.71932 19.7722 9.49153 19.4915 9.49153ZM3.22034 0H1.86441C0.835254 0.00135593 0.00135593 0.835254 0 1.86441V3.22034C0.00135593 4.24949 0.835254 5.08339 1.86441 5.08475H3.22034C4.24949 5.08339 5.08339 4.24949 5.08475 3.22034V1.86441C5.08339 0.835254 4.24949 0.00135593 3.22034 0ZM4.0678 3.22034C4.06712 3.68814 3.68814 4.06712 3.22034 4.0678H1.86441C1.39661 4.06712 1.01763 3.68814 1.01695 3.22034V1.86441C1.01763 1.39661 1.39661 1.01763 1.86441 1.01695H3.22034C3.68814 1.01763 4.06712 1.39661 4.0678 1.86441V3.22034ZM7.9661 3.05085H19.4915C19.7722 3.05085 20 2.82305 20 2.54237C20 2.26169 19.7722 2.0339 19.4915 2.0339H7.9661C7.68542 2.0339 7.45763 2.26169 7.45763 2.54237C7.45763 2.82305 7.68542 3.05085 7.9661 3.05085ZM3.22034 14.9153H1.86441C0.835254 14.9166 0.00135593 15.7505 0 16.7797V18.1356C0.00135593 19.1647 0.835254 19.9986 1.86441 20H3.22034C4.24949 19.9986 5.08339 19.1647 5.08475 18.1356V16.7797C5.08339 15.7505 4.24949 14.9166 3.22034 14.9153ZM4.0678 18.1356C4.06712 18.6034 3.68814 18.9824 3.22034 18.9831H1.86441C1.39661 18.9824 1.01763 18.6034 1.01695 18.1356V16.7797C1.01763 16.3119 1.39661 15.9329 1.86441 15.9322H3.22034C3.68814 15.9329 4.06712 16.3119 4.0678 16.7797V18.1356ZM19.4915 16.9492H7.9661C7.68542 16.9492 7.45763 17.177 7.45763 17.4576C7.45763 17.7383 7.68542 17.9661 7.9661 17.9661H19.4915C19.7722 17.9661 20 17.7383 20 17.4576C20 17.177 19.7722 16.9492 19.4915 16.9492Z" fill="white"/>
</svg>
