<svg width="260" height="55" viewBox="0 0 260 55" fill="none" xmlns="http://www.w3.org/2000/svg">
<g clip-path="url(#clip0_96_776)">
<path d="M130.676 18.6774C130.835 14.5718 131.931 11.2168 133.642 8.59946V5.11182H131.367C126.769 5.11182 122.876 7.48005 120.613 12.8312H120.481V5.70064H108.687V49.1862H120.483V31.6315C120.483 24.1806 122.106 18.4995 128.652 18.4995C129.364 18.5059 130.031 18.5609 130.676 18.6774Z" fill="white"/>
<path d="M219.989 18.5188C220.969 14.6753 222.558 11.2523 224.623 8.50558V5.10852H222.353C217.752 5.10852 213.864 7.47676 211.589 12.8247H211.462V5.70058H199.661V49.1862H211.462V31.6315C211.462 24.1806 213.089 18.4994 219.635 18.4994L219.989 18.5188Z" fill="white"/>
<path d="M154.632 16.8883C152.812 15.6168 150.28 14.7692 148.265 14.7692C146.912 14.7692 144.574 15.5262 144.574 17.7359C144.574 20.7059 148.265 21.1265 149.897 21.56C155.396 22.9965 159.556 26.3903 159.556 34.4333C159.556 45.8733 151.58 50.6356 143.859 50.6356C139.124 50.6356 134.466 48.853 130.44 45.6306L134.718 34.8571C137.114 37.07 141.134 39.2668 144.052 39.2668C145.545 39.2668 147.747 38.3383 147.747 35.9636C147.747 32.573 144.052 32.395 140.352 31.1268C136.661 29.8553 132.971 27.4871 132.971 19.6868C132.971 9.00387 140.352 4.26416 147.627 4.26416C151.387 4.26416 155.15 5.02445 158.578 7.05945L154.632 16.8883Z" fill="white"/>
<path d="M260 49.1862H248.204V44.3494H248.074C245.998 48.6717 241.906 50.6194 238.023 50.6194C228.162 50.6194 221.231 39.8523 221.231 27.39C221.231 14.9406 228.039 4.25439 237.89 4.25439C241.713 4.25439 245.738 6.11792 248.201 9.9291V5.70057H259.995L260 49.1862ZM233.42 27.4838C233.42 32.9903 236.212 37.2285 241.003 37.2285C245.799 37.2285 248.579 32.9967 248.579 27.4838C248.579 22.1423 245.799 17.6517 241.003 17.6517C236.212 17.655 233.42 22.1423 233.42 27.4838Z" fill="white"/>
<path d="M197.8 30.0333H172.962C172.962 36.3 175.497 39.6874 180.358 39.6874C182.886 39.6874 184.699 38.5906 185.999 35.7048H197.347C195.467 45.9639 188.009 50.6259 180.425 50.6259C169.412 50.6259 161.178 42.4827 161.178 27.4871C161.178 12.993 168.754 4.26416 179.58 4.26416C191.119 4.26416 197.805 13.5915 197.805 28.4189L197.8 30.0333ZM186.841 21.1265C186.256 16.9724 183.338 14.2612 180.165 14.2612C176.725 14.2612 173.885 16.6262 173.16 21.1265H186.841Z" fill="white"/>
<path d="M71.1654 26.7268C71.1533 26.3515 71.1341 25.9859 71.1124 25.6138C71.1124 25.6138 71.1124 25.6106 71.1124 25.6074C71.1124 25.6074 71.1124 25.6041 71.1124 25.6009C70.8476 21.5665 69.8558 17.7909 68.173 14.3809C67.4219 12.8603 66.5624 11.4788 65.6019 10.2397C64.1983 8.42472 62.5733 6.92355 60.7413 5.73619C57.9848 3.96649 54.9395 3.07355 51.6895 3.07355C51.3717 3.07355 51.0395 3.08002 50.7048 3.09619C48.4226 3.23531 46.215 3.81767 44.1398 4.84325C42.0478 5.85914 40.2254 7.20178 38.7352 8.81296C38.4319 9.13649 38.102 9.53443 37.7482 9.97119L37.493 10.3077L37.1439 10.8059H37.1463L36.985 11.0227L36.9056 11.1391L36.4891 11.728C36.1809 12.1938 35.8872 12.6597 35.6128 13.1159L35.6104 13.1094L35.6007 13.0965C35.0302 14.0283 34.503 14.9924 34.1154 15.8594C33.853 16.4159 33.5954 16.9885 33.3498 17.5612L29.9482 26.8044L29.953 26.8109L29.7748 27.28L29.3993 28.3024C28.653 30.3309 27.8537 32.353 26.9606 34.0224C24.9696 36.9568 22.7187 38.3932 19.825 38.3932C19.6228 38.3932 19.4157 38.3803 19.2039 38.3641C17.4609 38.2703 15.9659 37.7171 14.6394 36.6624C14.4974 36.5491 14.3602 36.4327 14.2278 36.313C13.1444 35.3456 12.3139 34.1033 11.6928 32.5535C10.9922 30.7968 10.6817 29.0012 10.725 27.0988C10.7274 27.0471 10.7298 27.0018 10.7298 26.9597C10.8237 23.9315 11.6832 21.5762 13.4141 19.5412C13.8354 19.0527 14.2759 18.6385 14.7357 18.2697C14.8007 18.218 14.8657 18.1694 14.9307 18.1241C16.2163 17.1827 17.68 16.7135 19.358 16.7135L19.8804 16.733C22.5454 16.8688 24.6013 17.9883 26.2407 20.1721L31.383 7.76472C30.1528 6.65825 28.7637 5.70708 27.2326 4.93384C27.1748 4.90472 27.1146 4.87237 27.0544 4.84649C26.8715 4.75914 26.6909 4.66855 26.5032 4.58767C24.8757 3.85649 23.1689 3.40678 21.4115 3.20296C21.3682 3.19325 21.32 3.18678 21.2767 3.18031C21.007 3.15767 20.7326 3.11237 20.463 3.09619C20.1693 3.08002 19.8732 3.07355 19.5843 3.07031H19.4182C16.185 3.08649 13.1806 3.97619 10.4337 5.73943C7.35704 7.73237 4.86297 10.6344 3.01408 14.3744C1.17 18.1144 0.163706 22.2653 0.0192618 26.7203C0.00722479 27.1021 2.56837e-06 27.4806 2.56837e-06 27.8527C-0.00240484 34.0838 1.68759 39.5644 5.04834 44.165C8.55593 48.9921 13.118 51.5933 18.5948 51.9006C18.9463 51.92 19.293 51.933 19.6396 51.933C22.738 51.933 25.6052 51.1921 28.1763 49.7103C28.8191 49.3415 29.4426 48.908 30.0806 48.4259C30.4272 48.1574 30.7546 47.8727 31.0796 47.5685L31.3204 47.3518L31.7248 46.9797C32.2111 46.5106 32.6661 46.0027 33.1091 45.4624L33.2632 45.265C33.5232 44.9318 33.7832 44.5953 34.0287 44.2491L34.9507 42.8483L35.3022 42.2562L35.4659 41.9327L35.6296 41.6156C36.9995 38.5227 41.458 27.2671 41.458 27.2671V27.2444L41.7228 26.5585L41.9443 26.0215C42.6015 24.4135 43.0757 23.2715 43.7041 22.0712L43.7209 22.0356C45.187 19.1788 47.7076 17.1438 50.6783 16.8009C55.6617 16.225 60.0287 20.625 60.4307 26.6297C60.8304 32.6344 57.1133 37.9694 52.13 38.5485C51.0924 38.6683 50.0837 38.5744 49.1328 38.293L49.1087 38.3059C45.4519 37.2835 43.1239 33.6988 41.9756 32.0974L37.18 43.9482C37.18 43.9482 38.6702 45.9671 39.6909 46.9765C40.7141 47.9827 42.0357 48.9727 43.0902 49.5874C45.6493 51.0562 48.4322 51.9362 51.5065 51.9362C51.8628 51.9362 51.7906 51.9362 52.1613 51.9168C57.6333 51.6094 62.5107 48.7915 66.028 43.9644C69.3598 39.38 71.1678 34.1453 71.1846 27.9497V27.7653C71.1822 27.4224 71.175 27.0762 71.1654 26.7268Z" fill="white"/>
<path d="M89.5099 50.655C87.0231 50.655 84.7673 50.2668 82.7427 49.4903C80.7181 48.7139 78.9895 47.4877 77.5571 45.8053C76.1199 44.123 75.0125 41.9812 74.2325 39.3833C73.4525 36.7853 73.0625 33.6536 73.0625 30.0042V5.69092H84.4423V29.81C84.4423 32.5439 84.9286 34.5239 85.8988 35.7597C86.8714 36.9989 88.1064 37.6168 89.6038 37.6168C91.1349 37.6168 92.3771 37.0409 93.3353 35.8859C94.2886 34.7309 94.7701 32.8156 94.7701 30.1239V5.69092H106.15V29.6839C106.15 33.4627 105.75 36.6753 104.953 39.3186C104.157 41.965 103.032 44.1262 101.585 45.8086C100.131 47.4909 98.3812 48.7139 96.3229 49.4936C94.2645 50.2668 91.9944 50.655 89.5099 50.655Z" fill="white"/>
</g>
<defs>
<clipPath id="clip0_96_776">
<rect width="260" height="55" fill="white"/>
</clipPath>
</defs>
</svg>
