<svg width="680" height="426" viewBox="0 0 680 426" fill="none" xmlns="http://www.w3.org/2000/svg">
<g clip-path="url(#clip0_96_928)">
<path d="M154.125 375.808C174.556 375.808 191.118 357.816 191.118 335.621C191.118 313.426 174.556 295.433 154.125 295.433C133.694 295.433 117.132 313.426 117.132 335.621C117.132 357.816 133.694 375.808 154.125 375.808Z" fill="#F2F2F2"/>
<path d="M160.141 369.927C180.571 369.927 197.134 351.934 197.134 329.74C197.134 307.545 180.571 289.552 160.141 289.552C139.71 289.552 123.147 307.545 123.147 329.74C123.147 351.934 139.71 369.927 160.141 369.927Z" fill="#6C63FF"/>
<path d="M647.637 285.273H189.933V286.63H647.637V285.273Z" fill="#3F3D56"/>
<path d="M426.978 -5.6627H264.521V-9.3002H190.857V-5.6627H27.7307C26.2876 -5.66271 24.8586 -5.35393 23.5254 -4.75399C22.1921 -4.15406 20.9807 -3.27473 19.9603 -2.16619C18.9399 -1.05766 18.1304 0.258353 17.5782 1.70672C17.0259 3.15509 16.7417 4.70744 16.7417 6.27514V247.937C16.7417 251.103 17.8995 254.139 19.9603 256.378C22.0211 258.617 24.8162 259.875 27.7307 259.875H426.978C429.892 259.875 432.687 258.617 434.748 256.378C436.809 254.139 437.967 251.103 437.967 247.937V6.27514C437.967 4.70744 437.683 3.15509 437.13 1.70672C436.578 0.258353 435.769 -1.05766 434.748 -2.16619C433.728 -3.27473 432.516 -4.15406 431.183 -4.75399C429.85 -5.35393 428.421 -5.66271 426.978 -5.6627Z" fill="#3F3D56"/>
<path d="M423.234 15.4348H31.4746V255.51H423.234V15.4348Z" fill="#6C63FF"/>
<path d="M227.02 8.88728C229.239 8.88728 231.038 6.933 231.038 4.52228C231.038 2.11156 229.239 0.157288 227.02 0.157288C224.8 0.157288 223.001 2.11156 223.001 4.52228C223.001 6.933 224.8 8.88728 227.02 8.88728Z" fill="#6C63FF"/>
<path opacity="0.1" d="M311.197 255.51H31.4746V15.435L311.197 255.51Z" fill="black"/>
<path d="M92.7733 237.545C113.571 237.545 130.43 219.229 130.43 196.636C130.43 174.043 113.571 155.727 92.7733 155.727C71.9759 155.727 55.1162 174.043 55.1162 196.636C55.1162 219.229 71.9759 237.545 92.7733 237.545Z" fill="#F2F2F2"/>
<path d="M355.022 144.909H318.428V153.216H355.022V144.909Z" fill="#3F3D56"/>
<path d="M399.264 80.2338H274.187V83.7939H399.264V80.2338Z" fill="#3F3D56"/>
<path d="M399.264 91.5075H274.187V95.0676H399.264V91.5075Z" fill="#3F3D56"/>
<path d="M399.264 102.781H274.187V106.341H399.264V102.781Z" fill="#3F3D56"/>
<path d="M399.264 114.055H274.187V117.615H399.264V114.055Z" fill="#3F3D56"/>
<path d="M399.264 125.328H274.187V128.889H399.264V125.328Z" fill="#3F3D56"/>
<path d="M399.264 20.3054H383.97V36.9192H399.264V20.3054Z" fill="#F2F2F2"/>
<path d="M406.364 44.6328H387.793V24.4588H406.364V44.6328ZM388.601 43.7557H405.556V25.336H388.601V43.7557Z" fill="#3F3D56"/>
<path d="M448.967 251.145H410.734V248.152C410.734 248.074 410.72 247.997 410.692 247.925C410.665 247.853 410.624 247.788 410.574 247.732C410.523 247.677 410.463 247.634 410.396 247.604C410.33 247.574 410.259 247.559 410.187 247.559H397.079C397.007 247.559 396.936 247.574 396.87 247.604C396.804 247.634 396.743 247.677 396.693 247.732C396.642 247.788 396.602 247.853 396.574 247.925C396.547 247.997 396.533 248.074 396.533 248.152V251.145H388.34V248.152C388.34 248.074 388.326 247.997 388.298 247.925C388.271 247.853 388.231 247.788 388.18 247.732C388.129 247.677 388.069 247.634 388.003 247.604C387.936 247.574 387.865 247.559 387.794 247.559H374.685C374.613 247.559 374.542 247.574 374.476 247.604C374.41 247.634 374.35 247.677 374.299 247.732C374.248 247.788 374.208 247.853 374.181 247.925C374.153 247.997 374.139 248.074 374.139 248.152V251.145H365.946V248.152C365.946 248.074 365.932 247.997 365.905 247.925C365.877 247.853 365.837 247.788 365.786 247.732C365.736 247.677 365.675 247.634 365.609 247.604C365.543 247.574 365.472 247.559 365.4 247.559H352.292C352.22 247.559 352.149 247.574 352.083 247.604C352.016 247.634 351.956 247.677 351.905 247.732C351.855 247.788 351.814 247.853 351.787 247.925C351.759 247.997 351.745 248.074 351.745 248.152V251.145H343.552V248.152C343.552 248.074 343.538 247.997 343.511 247.925C343.483 247.853 343.443 247.788 343.392 247.732C343.342 247.677 343.282 247.634 343.215 247.604C343.149 247.574 343.078 247.559 343.006 247.559H329.898C329.826 247.559 329.755 247.574 329.689 247.604C329.622 247.634 329.562 247.677 329.512 247.732C329.461 247.788 329.421 247.853 329.393 247.925C329.366 247.997 329.352 248.074 329.352 248.152V251.145H321.159V248.152C321.159 248.074 321.145 247.997 321.117 247.925C321.09 247.853 321.049 247.788 320.999 247.732C320.948 247.677 320.888 247.634 320.822 247.604C320.755 247.574 320.684 247.559 320.613 247.559H307.504C307.432 247.559 307.361 247.574 307.295 247.604C307.229 247.634 307.169 247.677 307.118 247.732C307.067 247.788 307.027 247.853 306.999 247.925C306.972 247.997 306.958 248.074 306.958 248.152V251.145H298.765V248.152C298.765 248.074 298.751 247.997 298.723 247.925C298.696 247.853 298.656 247.788 298.605 247.732C298.554 247.677 298.494 247.634 298.428 247.604C298.362 247.574 298.291 247.559 298.219 247.559H285.11C285.039 247.559 284.968 247.574 284.901 247.604C284.835 247.634 284.775 247.677 284.724 247.732C284.673 247.788 284.633 247.853 284.606 247.925C284.578 247.997 284.564 248.074 284.564 248.152V251.145H276.371V248.152C276.371 248.074 276.357 247.997 276.33 247.925C276.302 247.853 276.262 247.788 276.211 247.732C276.161 247.677 276.1 247.634 276.034 247.604C275.968 247.574 275.897 247.559 275.825 247.559H173.142C173.07 247.559 172.999 247.574 172.933 247.604C172.866 247.634 172.806 247.677 172.755 247.732C172.705 247.788 172.665 247.853 172.637 247.925C172.61 247.997 172.596 248.074 172.596 248.152V251.145H164.403V248.152C164.403 248.074 164.389 247.997 164.361 247.925C164.334 247.853 164.293 247.788 164.243 247.732C164.192 247.677 164.132 247.634 164.066 247.604C163.999 247.574 163.928 247.559 163.857 247.559H150.748C150.676 247.559 150.605 247.574 150.539 247.604C150.473 247.634 150.412 247.677 150.362 247.732C150.311 247.788 150.271 247.853 150.243 247.925C150.216 247.997 150.202 248.074 150.202 248.152V251.145H142.009V248.152C142.009 248.074 141.995 247.997 141.967 247.925C141.94 247.853 141.9 247.788 141.849 247.732C141.798 247.677 141.738 247.634 141.672 247.604C141.606 247.574 141.534 247.559 141.463 247.559H128.354C128.283 247.559 128.212 247.574 128.145 247.604C128.079 247.634 128.019 247.677 127.968 247.732C127.917 247.788 127.877 247.853 127.85 247.925C127.822 247.997 127.808 248.074 127.808 248.152V251.145H119.615V248.152C119.615 248.074 119.601 247.997 119.574 247.925C119.546 247.853 119.506 247.788 119.455 247.732C119.405 247.677 119.344 247.634 119.278 247.604C119.212 247.574 119.141 247.559 119.069 247.559H105.961C105.889 247.559 105.818 247.574 105.752 247.604C105.685 247.634 105.625 247.677 105.574 247.732C105.524 247.788 105.483 247.853 105.456 247.925C105.428 247.997 105.414 248.074 105.414 248.152V251.145H97.2215V248.152C97.2215 248.074 97.2074 247.997 97.18 247.925C97.1525 247.853 97.1123 247.788 97.0616 247.732C97.0109 247.677 96.9506 247.634 96.8844 247.604C96.8181 247.574 96.7471 247.559 96.6754 247.559H83.5668C83.4951 247.559 83.4241 247.574 83.3578 247.604C83.2915 247.634 83.2313 247.677 83.1806 247.732C83.1299 247.788 83.0896 247.853 83.0622 247.925C83.0347 247.997 83.0206 248.074 83.0206 248.152V251.145H74.8278V248.152C74.8278 248.074 74.8137 247.997 74.7862 247.925C74.7588 247.853 74.7186 247.788 74.6678 247.732C74.6171 247.677 74.5569 247.634 74.4906 247.604C74.4244 247.574 74.3533 247.559 74.2816 247.559H61.1731C61.1014 247.559 61.0303 247.574 60.9641 247.604C60.8978 247.634 60.8376 247.677 60.7869 247.732C60.7362 247.788 60.6959 247.853 60.6685 247.925C60.641 247.997 60.6269 248.074 60.6269 248.152V251.145H52.4341V248.152C52.4341 248.074 52.42 247.997 52.3925 247.925C52.3651 247.853 52.3248 247.788 52.2741 247.732C52.2234 247.677 52.1632 247.634 52.0969 247.604C52.0306 247.574 51.9596 247.559 51.8879 247.559H38.7794C38.7076 247.559 38.6366 247.574 38.5704 247.604C38.5041 247.634 38.4439 247.677 38.3932 247.732C38.3424 247.788 38.3022 247.853 38.2748 247.925C38.2473 247.997 38.2332 248.074 38.2332 248.152V251.145H13.1085C9.63193 251.145 6.29773 252.645 3.8394 255.315C1.38108 257.986 3.31216e-06 261.608 0 265.385V271.824C9.93647e-06 275.601 1.38109 279.223 3.83941 281.894C6.29773 284.564 9.63193 286.064 13.1085 286.064H448.967C452.443 286.064 455.778 284.564 458.236 281.894C460.694 279.223 462.075 275.601 462.075 271.824V265.385C462.075 261.608 460.694 257.986 458.236 255.315C455.778 252.645 452.443 251.145 448.967 251.145Z" fill="#3F3D56"/>
<path d="M101.889 222.187C92.5026 222.187 83.3273 219.163 75.5232 213.499C67.719 207.834 61.6364 199.782 58.0446 190.362C54.4527 180.941 53.5129 170.576 55.344 160.575C57.1751 150.575 61.6949 141.389 68.3318 134.179C74.9687 126.969 83.4246 122.059 92.6303 120.069C101.836 118.08 111.378 119.101 120.049 123.003C128.721 126.905 136.133 133.513 141.347 141.991C146.562 150.469 149.345 160.436 149.345 170.633C149.331 184.301 144.326 197.405 135.43 207.07C126.533 216.735 114.47 222.172 101.889 222.187ZM101.889 120.435C92.7496 120.435 83.8158 123.379 76.217 128.895C68.6182 134.411 62.6957 142.251 59.1983 151.423C55.701 160.595 54.7859 170.689 56.5689 180.426C58.3518 190.163 62.7526 199.108 69.2149 206.128C75.6771 213.148 83.9105 217.929 92.8739 219.866C101.837 221.803 111.128 220.809 119.571 217.009C128.015 213.21 135.231 206.776 140.309 198.521C145.386 190.266 148.096 180.561 148.096 170.633C148.082 157.324 143.209 144.565 134.547 135.155C125.884 125.744 114.139 120.45 101.889 120.435Z" fill="#3F3D56"/>
<path d="M711.328 361.926H253.624V363.283H711.328V361.926Z" fill="#3F3D56"/>
<path d="M279.537 424.333H120.309V425.69H279.537V424.333Z" fill="#3F3D56"/>
<path d="M311.588 354.774H294.104V373.768H311.588V354.774Z" fill="#6C63FF"/>
<path d="M322.204 362.914H300.973V339.85H322.204V362.914ZM301.896 361.911H321.281V340.853H301.896V361.911Z" fill="#3F3D56"/>
<path d="M690.615 354.774H673.131V373.768H690.615V354.774Z" fill="#6C63FF"/>
<path d="M660.125 139.032H658.64V94.8302C658.64 91.4706 658.031 88.1439 656.848 85.04C655.664 81.9361 653.929 79.1159 651.743 76.7403C649.556 74.3647 646.96 72.4803 644.103 71.1946C641.245 69.909 638.183 69.2473 635.091 69.2473H548.886C545.794 69.2473 542.732 69.909 539.874 71.1946C537.017 72.4803 534.421 74.3647 532.234 76.7403C530.048 79.1159 528.313 81.9361 527.13 85.04C525.946 88.1439 525.337 91.4706 525.337 94.8302V337.326C525.337 340.685 525.946 344.012 527.13 347.116C528.313 350.22 530.048 353.04 532.234 355.415C534.421 357.791 537.017 359.675 539.874 360.961C542.732 362.247 545.794 362.908 548.886 362.908H635.091C638.183 362.908 641.245 362.247 644.103 360.961C646.96 359.675 649.556 357.791 651.743 355.415C653.929 353.04 655.664 350.22 656.848 347.116C658.031 344.012 658.64 340.685 658.64 337.326V170.496H660.125V139.032Z" fill="#3F3D56"/>
<path d="M653.625 96.3338V338.475C653.626 343.543 651.774 348.403 648.476 351.986C645.179 355.57 640.706 357.584 636.042 357.584H549.421C544.757 357.583 540.284 355.57 536.986 351.986C533.689 348.403 531.837 343.543 531.837 338.475V96.3338C531.838 91.2678 533.691 86.4094 536.988 82.8271C540.286 79.2449 544.758 77.2322 549.421 77.2317H559.93C559.413 78.6098 559.216 80.1049 559.356 81.5854C559.496 83.0659 559.969 84.4862 560.733 85.7213C561.498 86.9564 562.53 87.9684 563.739 88.6681C564.948 89.3677 566.297 89.7336 567.667 89.7335H617.053C618.423 89.7336 619.772 89.3677 620.981 88.6681C622.19 87.9684 623.222 86.9565 623.987 85.7214C624.751 84.4862 625.224 83.0659 625.364 81.5854C625.504 80.1049 625.307 78.6098 624.789 77.2317H636.042C640.705 77.2322 645.177 79.2449 648.475 82.8271C651.772 86.4094 653.625 91.2678 653.625 96.3338Z" fill="#6C63FF"/>
<path d="M605.633 236.89H579.829V245.197H605.633V236.89Z" fill="#3F3D56"/>
<path d="M636.828 172.215H548.634V175.775H636.828V172.215Z" fill="#3F3D56"/>
<path d="M636.828 183.488H548.634V187.048H636.828V183.488Z" fill="#3F3D56"/>
<path d="M636.828 194.762H548.634V198.322H636.828V194.762Z" fill="#3F3D56"/>
<path d="M636.828 206.035H548.634V209.596H636.828V206.035Z" fill="#3F3D56"/>
<path d="M636.828 217.309H548.634V220.869H636.828V217.309Z" fill="#3F3D56"/>
<path d="M595.812 124.937H580.519V141.55H595.812V124.937Z" fill="#F2F2F2"/>
<path d="M586.373 129.091V149.265H604.943V129.091H586.373ZM604.138 148.39H587.179V129.966H604.138V148.39Z" fill="#3F3D56"/>
<path opacity="0.1" d="M653.625 312.617V338.475C653.626 343.543 651.774 348.402 648.476 351.986C645.179 355.57 640.706 357.584 636.042 357.584H549.421C544.757 357.584 540.284 355.57 536.986 351.986C533.689 348.402 531.837 343.543 531.837 338.475V208.091L604.814 270.722L606.063 271.794L619.638 283.441L620.906 284.534L653.625 312.617Z" fill="black"/>
<path d="M585.238 349.737C600.366 349.737 612.63 336.414 612.63 319.98C612.63 303.545 600.366 290.222 585.238 290.222C570.11 290.222 557.846 303.545 557.846 319.98C557.846 336.414 570.11 349.737 585.238 349.737Z" fill="#F2F2F2"/>
<path d="M199.923 425.69C189.179 425.69 178.676 422.229 169.742 415.744C160.808 409.259 153.845 400.042 149.733 389.259C145.622 378.475 144.546 366.609 146.642 355.161C148.738 343.713 153.912 333.197 161.51 324.944C169.107 316.69 178.787 311.069 189.325 308.792C199.863 306.515 210.786 307.684 220.713 312.151C230.639 316.617 239.124 324.182 245.093 333.887C251.062 343.592 254.248 355.002 254.248 366.674C254.232 382.321 248.503 397.322 238.319 408.385C228.134 419.449 214.326 425.673 199.923 425.69ZM199.923 309.015C189.426 309.015 179.164 312.397 170.436 318.732C161.707 325.068 154.904 334.073 150.887 344.609C146.87 355.145 145.819 366.738 147.867 377.923C149.915 389.108 154.97 399.382 162.393 407.446C169.816 415.509 179.273 421.001 189.569 423.226C199.864 425.45 210.536 424.309 220.235 419.944C229.933 415.58 238.222 408.19 244.054 398.708C249.887 389.226 252.999 378.078 252.999 366.674C252.984 351.387 247.386 336.732 237.436 325.922C227.486 315.113 213.995 309.032 199.923 309.015Z" fill="#3F3D56"/>
<path d="M593.312 342.932C586.519 342.932 579.879 340.744 574.231 336.644C568.584 332.545 564.182 326.718 561.583 319.901C558.983 313.083 558.303 305.582 559.628 298.345C560.953 291.107 564.224 284.46 569.027 279.242C573.83 274.024 579.95 270.471 586.612 269.031C593.274 267.592 600.179 268.33 606.454 271.154C612.73 273.978 618.094 278.76 621.867 284.896C625.641 291.031 627.655 298.244 627.655 305.623C627.645 315.515 624.023 324.998 617.585 331.992C611.146 338.987 602.417 342.921 593.312 342.932ZM593.312 269.671C586.766 269.671 580.368 271.78 574.925 275.73C569.483 279.681 565.241 285.296 562.736 291.865C560.231 298.434 559.576 305.663 560.853 312.637C562.13 319.611 565.282 326.017 569.91 331.045C574.539 336.073 580.436 339.497 586.855 340.885C593.275 342.272 599.929 341.56 605.976 338.839C612.024 336.118 617.192 331.51 620.829 325.597C624.465 319.685 626.406 312.734 626.406 305.623C626.396 296.091 622.907 286.953 616.702 280.213C610.498 273.473 602.086 269.682 593.312 269.671Z" fill="#3F3D56"/>
</g>
<defs>
<clipPath id="clip0_96_928">
<rect width="680" height="426" fill="white"/>
</clipPath>
</defs>
</svg>
