<svg width="395" height="299" viewBox="0 0 395 299" fill="none" xmlns="http://www.w3.org/2000/svg">
<g clip-path="url(#clip0_96_43)">
<path d="M395 160.542V286.151C394.996 289.557 393.632 292.823 391.208 295.232C388.783 297.641 385.496 298.996 382.067 299H285.09L285.99 297.867L393.86 161.981L395 160.542Z" fill="#F2F2F2"/>
<path d="M154.359 116.297H43.0015C42.089 116.297 41.2139 116.657 40.5687 117.298C39.9235 117.94 39.561 118.809 39.561 119.715C39.561 120.622 39.9235 121.491 40.5687 122.132C41.2139 122.773 42.089 123.134 43.0015 123.134H154.359C155.271 123.134 156.146 122.773 156.792 122.132C157.437 121.491 157.799 120.622 157.799 119.715C157.799 118.809 157.437 117.94 156.792 117.298C156.146 116.657 155.271 116.297 154.359 116.297Z" fill="#3E54AC"/>
<path d="M77.5281 97.1318H43.0015C42.089 97.1318 41.2139 97.492 40.5687 98.133C39.9235 98.774 39.561 99.6434 39.561 100.55C39.561 101.456 39.9235 102.326 40.5687 102.967C41.2139 103.608 42.089 103.968 43.0015 103.968H77.5281C78.4406 103.968 79.3156 103.608 79.9608 102.967C80.6061 102.326 80.9685 101.456 80.9685 100.55C80.9685 99.6434 80.6061 98.774 79.9608 98.133C79.3156 97.492 78.4405 97.1318 77.5281 97.1318Z" fill="#3E54AC"/>
<path d="M382.067 0H12.933C9.5042 0.00410173 6.21705 1.35916 3.79254 3.76794C1.36803 6.17672 0.00412852 9.44255 0 12.8491V286.151C0.00412852 289.557 1.36803 292.823 3.79254 295.232C6.21705 297.641 9.5042 298.996 12.933 299H382.067C385.496 298.996 388.783 297.641 391.207 295.232C393.632 292.823 394.996 289.557 395 286.151V12.8491C394.996 9.44255 393.632 6.17672 391.207 3.76794C388.783 1.35916 385.496 0.00410173 382.067 0ZM393.86 286.151C393.86 287.69 393.555 289.213 392.962 290.635C392.37 292.056 391.501 293.348 390.406 294.436C389.311 295.524 388.011 296.387 386.58 296.976C385.149 297.564 383.616 297.867 382.067 297.867H12.933C9.80528 297.867 6.80568 296.633 4.59406 294.436C2.38245 292.238 1.13997 289.258 1.13997 286.151V89.2897C1.13997 65.909 10.4886 43.4859 27.1292 26.9532C43.7698 10.4205 66.3394 1.13258 89.8728 1.13258H382.067C383.616 1.13258 385.149 1.43563 386.58 2.02444C388.011 2.61325 389.311 3.47628 390.406 4.56426C391.501 5.65224 392.37 6.94385 392.962 8.36536C393.555 9.78687 393.86 11.3104 393.86 12.8491V286.151Z" fill="#3E54AC"/>
<path d="M359.028 49.4192H36.0002C35.849 49.4192 35.704 49.3595 35.5971 49.2533C35.4902 49.1471 35.4302 49.0031 35.4302 48.8529C35.4302 48.7027 35.4902 48.5587 35.5971 48.4525C35.704 48.3463 35.849 48.2866 36.0002 48.2866H359.028C359.18 48.2866 359.325 48.3463 359.431 48.4525C359.538 48.5587 359.598 48.7027 359.598 48.8529C359.598 49.0031 359.538 49.1471 359.431 49.2533C359.325 49.3595 359.18 49.4192 359.028 49.4192Z" fill="#3E54AC"/>
<path d="M52.1619 32.4191C54.824 32.4191 56.9821 30.2273 56.9821 27.5235C56.9821 24.8198 54.824 22.6279 52.1619 22.6279C49.4999 22.6279 47.3418 24.8198 47.3418 27.5235C47.3418 30.2273 49.4999 32.4191 52.1619 32.4191Z" fill="#3E54AC"/>
<path d="M68.8138 32.4191C71.4759 32.4191 73.6339 30.2273 73.6339 27.5235C73.6339 24.8198 71.4759 22.6279 68.8138 22.6279C66.1517 22.6279 63.9937 24.8198 63.9937 27.5235C63.9937 30.2273 66.1517 32.4191 68.8138 32.4191Z" fill="#3E54AC"/>
<path d="M85.4652 32.4191C88.1273 32.4191 90.2853 30.2273 90.2853 27.5235C90.2853 24.8198 88.1273 22.6279 85.4652 22.6279C82.8031 22.6279 80.645 24.8198 80.645 27.5235C80.645 30.2273 82.8031 32.4191 85.4652 32.4191Z" fill="#3E54AC"/>
<path d="M104.452 31.3925C104.376 31.3926 104.301 31.3775 104.231 31.3483C104.161 31.319 104.097 31.2761 104.044 31.2221L100.792 27.919C100.688 27.8132 100.629 27.6711 100.629 27.523C100.629 27.375 100.688 27.2328 100.792 27.1271L104.044 23.8242C104.097 23.7702 104.159 23.727 104.228 23.6971C104.297 23.6672 104.371 23.6512 104.447 23.65C104.522 23.6488 104.597 23.6624 104.667 23.6901C104.737 23.7178 104.8 23.759 104.854 23.8114C104.908 23.8637 104.951 23.9261 104.98 23.995C105.01 24.0639 105.025 24.1379 105.026 24.2127C105.026 24.2875 105.012 24.3617 104.983 24.4309C104.955 24.5002 104.912 24.5631 104.859 24.6161L101.997 27.523L104.859 30.4302C104.938 30.5099 104.991 30.6108 105.012 30.7203C105.033 30.8298 105.021 30.943 104.977 31.0458C104.934 31.1485 104.861 31.2362 104.767 31.2979C104.674 31.3596 104.564 31.3925 104.452 31.3925Z" fill="#3E54AC"/>
<path d="M109.917 31.3924C109.805 31.3924 109.695 31.3595 109.602 31.2978C109.508 31.2361 109.435 31.1484 109.392 31.0457C109.348 30.943 109.336 30.8297 109.357 30.7202C109.378 30.6107 109.431 30.5098 109.51 30.4301L112.372 27.5229L109.51 24.616C109.406 24.5083 109.349 24.3642 109.351 24.215C109.353 24.0658 109.415 23.9235 109.522 23.8192C109.63 23.7148 109.774 23.6568 109.925 23.6577C110.075 23.6586 110.218 23.7184 110.325 23.8241L113.577 27.127C113.681 27.2328 113.739 27.3749 113.739 27.5229C113.739 27.671 113.681 27.8131 113.577 27.9189L110.325 31.2221C110.272 31.2761 110.208 31.319 110.138 31.3482C110.068 31.3775 109.993 31.3925 109.917 31.3924Z" fill="#3E54AC"/>
<path d="M330.222 23.1943H324.175C324.011 23.1943 323.848 23.2263 323.697 23.2886C323.545 23.3509 323.408 23.4423 323.292 23.5575C323.176 23.6726 323.084 23.8094 323.021 23.9599C322.958 24.1103 322.926 24.2716 322.926 24.4345V30.4485C322.926 30.6114 322.958 30.7726 323.021 30.9231C323.084 31.0736 323.176 31.2104 323.292 31.3255C323.408 31.4407 323.545 31.532 323.697 31.5943C323.848 31.6567 324.011 31.6887 324.175 31.6887H330.222C330.554 31.689 330.872 31.5586 331.107 31.3261C331.342 31.0936 331.475 30.778 331.476 30.4485V24.4345C331.475 24.105 331.342 23.7894 331.107 23.5569C330.872 23.3244 330.554 23.194 330.222 23.1943Z" fill="#3E54AC"/>
<path d="M315.403 23.1943H309.355C309.191 23.1943 309.029 23.2263 308.877 23.2886C308.726 23.3509 308.588 23.4423 308.472 23.5575C308.357 23.6726 308.265 23.8094 308.202 23.9599C308.139 24.1103 308.107 24.2716 308.107 24.4345V30.4485C308.107 30.6114 308.139 30.7726 308.202 30.9231C308.265 31.0736 308.357 31.2104 308.472 31.3255C308.588 31.4407 308.726 31.532 308.877 31.5943C309.029 31.6567 309.191 31.6887 309.355 31.6887H315.403C315.734 31.689 316.053 31.5586 316.288 31.3261C316.523 31.0936 316.656 30.778 316.657 30.4485V24.4345C316.656 24.105 316.523 23.7894 316.288 23.5569C316.053 23.3244 315.734 23.194 315.403 23.1943Z" fill="#3E54AC"/>
<path d="M344.187 23.4775H338.139C337.975 23.4775 337.813 23.5095 337.662 23.5718C337.51 23.6341 337.373 23.7255 337.257 23.8407C337.141 23.9558 337.049 24.0926 336.986 24.2431C336.923 24.3935 336.891 24.5548 336.891 24.7177V30.7317C336.891 30.8946 336.923 31.0558 336.986 31.2063C337.049 31.3568 337.141 31.4936 337.257 31.6087C337.373 31.7239 337.51 31.8152 337.662 31.8776C337.813 31.9399 337.975 31.9719 338.139 31.9719H344.187C344.519 31.9722 344.837 31.8418 345.072 31.6093C345.307 31.3768 345.44 31.0612 345.441 30.7317V24.7177C345.44 24.3882 345.307 24.0726 345.072 23.8401C344.837 23.6076 344.519 23.4772 344.187 23.4775Z" fill="#3E54AC"/>
<path d="M221.685 25.7656H173.344C172.94 25.7656 172.553 25.9249 172.268 26.2085C171.983 26.492 171.822 26.8766 171.822 27.2776C171.822 27.6786 171.983 28.0632 172.268 28.3467C172.553 28.6303 172.94 28.7896 173.344 28.7896H221.685C222.088 28.7896 222.475 28.6303 222.761 28.3467C223.046 28.0632 223.206 27.6786 223.206 27.2776C223.206 26.8766 223.046 26.492 222.761 26.2085C222.475 25.9249 222.088 25.7656 221.685 25.7656Z" fill="#3E54AC"/>
<path d="M92.114 232.431L63.2061 231.523C59.1967 231.397 54.6879 231.403 51.8282 233.462C48.5825 235.798 49.074 239.938 51.7688 242.622C54.4635 245.307 58.7665 246.841 62.9897 248.088C85.4265 254.714 110.258 256.059 134.368 254.56C158.479 253.061 182.093 248.822 205.591 244.599C207.82 244.198 210.346 243.622 211.255 242.081C212.134 240.59 210.983 238.793 209.196 237.829C207.41 236.866 205.144 236.541 202.959 236.254C163.375 231.086 123.363 229.952 83.5466 232.87" fill="#BFACE2"/>
<path d="M144.052 210.342V203.546C139.089 203.616 121.327 203.496 116.693 203.546C116.348 227.297 114.235 222.645 133.82 222.737C134.72 222.74 135.582 223.098 136.218 223.731C136.854 224.364 137.211 225.222 137.213 226.116V226.218C137.213 227.114 136.854 227.973 136.217 228.606C135.579 229.24 134.714 229.596 133.813 229.596H116.693V236.391H144.052C144.091 236.368 144.025 229.829 144.052 229.596C145.209 209.909 142.92 216.989 126.288 216.2C125.544 216.162 124.843 215.841 124.33 215.304C123.817 214.767 123.532 214.055 123.533 213.315V213.23C123.533 212.464 123.839 211.729 124.384 211.188C124.929 210.646 125.669 210.342 126.44 210.342H144.052Z" fill="#655DBB"/>
<path d="M177.682 210.342V203.546C172.718 203.616 154.956 203.496 150.322 203.546C149.975 227.503 147.827 222.562 167.965 222.741C168.731 222.748 169.462 223.056 170.001 223.597C170.54 224.137 170.842 224.868 170.842 225.628C170.842 225.985 170.842 226.351 170.842 226.708C170.842 227.088 170.767 227.463 170.621 227.813C170.475 228.164 170.26 228.482 169.991 228.75C169.721 229.018 169.4 229.231 169.047 229.376C168.695 229.521 168.317 229.596 167.935 229.596H150.322V236.391H177.682C177.72 236.368 177.654 229.829 177.682 229.596C178.839 209.909 176.55 216.989 159.918 216.2C159.174 216.162 158.473 215.841 157.96 215.304C157.447 214.767 157.161 214.055 157.162 213.315V213.23C157.162 212.464 157.469 211.729 158.014 211.188C158.559 210.646 159.298 210.342 160.069 210.342H177.682Z" fill="#655DBB"/>
<path d="M108.714 210.342V203.546H81.3542C81.3348 209.608 81.3682 225.65 81.3542 231.861C75.9913 240.881 106.458 234.636 108.715 236.394C108.714 236.391 108.714 229.596 108.714 229.596C87.897 229.488 87.3739 233.359 88.0436 214.629C88.0839 213.479 88.5718 212.389 89.4047 211.589C90.2376 210.79 91.3504 210.342 92.5087 210.341C98.5267 210.342 108.714 210.342 108.714 210.342Z" fill="#655DBB"/>
<path d="M162.792 151.262L133.884 150.506C129.875 150.401 125.366 150.406 122.506 152.122C119.261 154.07 119.752 157.52 122.447 159.758C125.142 161.996 129.445 163.275 133.668 164.314C156.105 169.837 180.936 170.958 205.047 169.709C229.157 168.459 252.772 164.926 276.269 161.405C278.498 161.071 281.024 160.591 281.933 159.306C282.812 158.064 281.662 156.565 279.875 155.762C278.088 154.959 275.822 154.689 273.637 154.45C233.986 150.14 194.037 149.196 154.225 151.629" fill="#BFACE2"/>
<path d="M157.732 121.435C157.266 131.926 161.147 135.228 147.757 133.892C146.852 127.633 151.44 118.948 140.918 121.153C143.026 125.693 135.045 160.139 147.755 153.995C148.469 143.646 143.764 139.107 157.732 140.69C158.853 147.087 153.624 156.501 164.571 154.279C162.464 149.736 170.444 115.294 157.732 121.435Z" fill="#655DBB"/>
<path d="M227.84 121.435C228.779 122.011 219.239 132.038 219.033 132.859C218.747 132.158 209.641 122.348 210.741 121.435C198.07 115.214 205.967 149.86 203.899 154.281C203.901 154.279 210.741 154.279 210.741 154.279V132.761C220.355 145.644 218.569 143.476 227.84 132.129L227.84 154.279C240.51 160.502 232.614 125.852 234.682 121.433C234.68 121.435 227.84 121.435 227.84 121.435Z" fill="#655DBB"/>
<path d="M197.631 121.435H170.272C168.664 130.961 173.979 127.766 180.532 128.23L180.531 154.279H187.371V128.23C193.894 127.789 199.259 130.919 197.631 121.435Z" fill="#655DBB"/>
<path d="M247.22 147.484C245.64 138.872 245.64 130.047 247.22 121.435H240.38C240.419 125.74 240.368 143.113 240.372 151.058C240.371 151.915 240.714 152.738 241.324 153.345C241.934 153.951 242.761 154.292 243.624 154.293C250.515 154.302 263.67 154.252 267.739 154.279L267.739 147.484H247.22Z" fill="#655DBB"/>
<path d="M72.4915 148.617H44.6909C43.3304 148.617 42.0256 149.154 41.0635 150.109C40.1015 151.065 39.561 152.362 39.561 153.713C39.561 155.065 40.1015 156.361 41.0635 157.317C42.0256 158.273 43.3304 158.81 44.6909 158.81H72.4915C73.852 158.81 75.1568 158.273 76.1189 157.317C77.0809 156.361 77.6213 155.065 77.6213 153.713C77.6213 152.362 77.0809 151.065 76.1189 150.109C75.1568 149.154 73.852 148.617 72.4915 148.617Z" fill="#3E54AC"/>
<path d="M324.545 293.092L318.902 293.092L316.217 271.465L324.546 271.466L324.545 293.092Z" fill="#FFB6B6"/>
<path d="M324.744 298.941L307.39 298.941V298.723C307.39 296.943 308.101 295.236 309.368 293.978C310.635 292.719 312.353 292.012 314.144 292.012L317.315 289.623L323.229 292.012L324.744 292.012L324.744 298.941Z" fill="#2F2E41"/>
<path d="M344.495 293.092L338.851 293.092L336.167 271.465L344.496 271.466L344.495 293.092Z" fill="#FFB6B6"/>
<path d="M344.693 298.941L327.339 298.941V298.723C327.339 296.943 328.051 295.236 329.317 293.978C330.584 292.719 332.302 292.012 334.094 292.012L337.264 289.623L343.179 292.012L344.694 292.012L344.693 298.941Z" fill="#2F2E41"/>
<path d="M310.494 175.255C310.494 175.255 305.064 191.823 306.066 194.004C307.068 196.185 308.778 194.486 307.068 196.185C305.359 197.884 303.866 196.078 305.467 198.963C307.069 201.848 309.494 225.598 310.561 226.747C311.628 227.897 313.095 227.928 311.792 229.045C310.488 230.162 308.778 227.897 310.488 230.162C312.198 232.427 316.736 284.682 316.736 284.682H325.6C325.6 284.682 327.807 282.154 326.558 280.508C325.308 278.863 326.667 278.229 326.558 277.13C326.448 276.031 326.864 273.663 326.941 272.582C327.018 271.501 328.516 245.753 324.917 230.879L331.48 202.557L334.761 236.787C334.761 236.787 331.104 265.499 334.761 274.729C334.761 274.729 331.813 277.168 333.12 278.582C334.428 279.995 335.568 278.863 334.428 279.995C333.288 281.128 336.138 285.092 336.138 285.092L345.828 284.526L351.312 230.879C351.312 230.879 352.236 225.284 351.312 224.325C350.387 223.367 350.387 226.764 350.387 223.367V218.836C350.387 218.836 354.52 190.972 354.449 189.331C354.377 187.69 347.537 175.798 347.537 175.798L310.494 175.255Z" fill="#2F2E41"/>
<path d="M339.153 108.244L325.004 107.277L320.77 113.91L310.574 118.028V150.7C311.635 153.863 312.183 157.174 312.198 160.508C312.159 167.018 310.475 174.685 311.058 176.364C316.758 192.787 348.107 176.364 348.107 176.364L347.537 158.81L348.311 119.136L341.905 114.06L339.153 108.244Z" fill="#3E54AC"/>
<path d="M309.92 182.347L308.944 172.018L302.927 171.748L304.349 182.633C303.984 183.168 303.777 183.793 303.75 184.439C303.723 185.084 303.878 185.724 304.198 186.287C304.517 186.85 304.988 187.313 305.558 187.625C306.128 187.936 306.774 188.084 307.423 188.05C308.073 188.017 308.7 187.804 309.234 187.436C309.769 187.068 310.189 186.559 310.449 185.967C310.708 185.374 310.796 184.722 310.703 184.082C310.609 183.443 310.338 182.842 309.92 182.347Z" fill="#FFB6B6"/>
<path d="M312.881 117.157L312.714 117.185C311.163 117.447 309.699 118.08 308.449 119.03C307.199 119.98 306.201 121.218 305.541 122.638C303.818 126.34 298.223 150.678 300.676 154.349C302.578 157.195 302.116 156.64 301.221 158.787C300.327 160.935 298.887 158.643 300.067 162.051C301.248 165.459 302.545 164.973 301.449 166.29C300.354 167.606 299.23 167.348 300.295 169.554C301.361 171.759 301.187 172.503 301.389 173.334C301.59 174.164 301.415 180.006 301.415 180.006C301.415 180.006 307.843 179.521 311.041 181.04C311.041 181.04 309.256 175.141 310.266 174.196C311.275 173.251 312.485 173.137 311.621 171.763C310.757 170.388 308.797 170.33 310.93 169.643C313.063 168.957 312.376 156.644 312.376 156.644C315.889 147.504 314.501 132.47 312.881 117.157Z" fill="#3E54AC"/>
<path d="M351.637 183.084L352.087 172.719L358.083 172.148L357.215 183.09C357.606 183.606 357.845 184.22 357.905 184.864C357.964 185.507 357.842 186.154 357.552 186.732C357.261 187.31 356.814 187.797 356.261 188.136C355.708 188.476 355.07 188.655 354.42 188.655C353.77 188.654 353.132 188.473 352.58 188.132C352.027 187.792 351.581 187.304 351.292 186.726C351.003 186.147 350.882 185.5 350.943 184.856C351.004 184.213 351.244 183.599 351.637 183.084Z" fill="#FFB6B6"/>
<path d="M345.369 118.126L345.537 118.146C347.1 118.329 348.594 118.888 349.891 119.774C351.187 120.66 352.247 121.847 352.978 123.232C354.887 126.843 360.926 151.302 359.448 154.658C358.069 157.789 358.126 157.019 359.128 159.119C360.13 161.218 361.452 158.858 360.446 162.321C359.44 165.783 358.12 165.363 359.281 166.623C360.442 167.883 361.552 167.569 360.6 169.825C359.647 172.081 359.858 172.815 359.699 173.655C359.54 174.494 360.012 180.319 360.012 180.319C360.012 180.319 353.568 180.158 350.451 181.835C350.451 181.835 351.933 175.854 350.878 174.961C349.822 174.068 348.607 174.015 349.4 172.599C350.194 171.182 352.148 171.026 349.983 170.447C347.818 169.869 347.879 157.537 347.879 157.537L345.369 118.126Z" fill="#3E54AC"/>
<path d="M332.425 105.201C338.52 105.201 343.462 100.292 343.462 94.2361C343.462 88.1805 338.52 83.2715 332.425 83.2715C326.33 83.2715 321.389 88.1805 321.389 94.2361C321.389 100.292 326.33 105.201 332.425 105.201Z" fill="#FFB6B6"/>
<path d="M340.106 103.622C341.641 102.428 341.79 100.154 343.099 98.7197C345.289 96.3222 346.318 93.7428 345.171 90.9019C344.156 88.3893 344.372 85.3007 342.187 83.6833C343.26 83.2973 343.513 82.4957 342.566 82.4809C341.927 82.4709 339.546 83.6835 340.692 82.1729C341.837 80.6623 339.669 81.2586 339.812 80.6402C339.956 80.0219 340.876 79.6794 341.281 80.1695C340.939 79.822 340.521 79.5568 340.059 79.3942C339.598 79.2315 339.105 79.1757 338.619 79.231C338.133 79.2863 337.666 79.4512 337.253 79.7131C336.841 79.9751 336.494 80.3272 336.239 80.7426C334.948 78.8206 333.578 77.4981 331.603 78.7178C329.663 79.9157 329.688 81.3964 327.602 81.0406C326.622 80.8733 326.529 82.7141 325.859 83.445C325.549 83.8335 325.147 84.1388 324.688 84.3332C324.229 84.5277 323.729 84.605 323.232 84.5581C322.254 84.3745 321.507 83.1639 322.055 82.3387L319.75 87.5619L318.821 86.4301C317.346 87.3856 317.83 89.8789 319.316 90.8194C320.801 91.7599 322.732 91.5589 324.442 91.142C326.502 90.6401 328.628 90.4649 330.742 90.6229C333.971 91.0762 336.221 94.9124 335.025 97.9273C336.266 96.7167 338.561 97.7213 339.204 99.3268C339.847 100.932 339.376 102.741 338.899 104.403" fill="#2F2E41"/>
</g>
<defs>
<clipPath id="clip0_96_43">
<rect width="395" height="299" fill="white"/>
</clipPath>
</defs>
</svg>
