<svg width="473" height="299" viewBox="0 0 473 299" fill="none" xmlns="http://www.w3.org/2000/svg">
<g clip-path="url(#clip0_96_116)">
<path d="M179.26 47.0773C178.934 47.4973 178.484 47.8036 177.973 47.9524C177.462 48.1011 176.918 48.0847 176.417 47.9055C176.265 47.8604 176.115 47.806 175.97 47.7424C176.134 45.9856 176.053 44.2146 175.728 42.4803C175.6 43.971 175.235 45.4318 174.647 46.8077C174.168 46.3272 173.775 45.7672 173.487 45.1527C172.95 43.8811 172.595 42.5406 172.431 41.1703C171.637 36.5018 170.854 31.645 172.149 27.0826C174.046 20.4178 180.029 15.6266 182.528 9.16021L183.76 8.05566C185.867 11.6423 185.961 16.099 185.101 20.166C184.247 24.241 182.525 28.0655 181.163 31.9953C179.802 35.9251 178.782 40.1052 179.414 44.2173C179.559 45.1856 179.78 46.2497 179.26 47.0773Z" fill="#310A5D"/>
<path d="M151.897 103.471L143.873 140.145L178.919 151.552L173.765 103.471H151.897Z" fill="#FFB6B6"/>
<path d="M399.202 298.1H415.083V225.341C415.062 206.563 407.588 188.561 394.302 175.284C381.016 162.006 363.002 154.537 344.212 154.516H196.619C177.829 154.537 159.815 162.006 146.529 175.284C133.243 188.561 125.769 206.563 125.748 225.341V298.1H141.629V248.393C141.65 229.441 149.193 211.272 162.603 197.871C176.013 184.469 194.195 176.931 213.159 176.91H327.672C346.636 176.931 364.818 184.469 378.228 197.871C391.638 211.272 399.181 229.441 399.202 248.393V298.1Z" fill="#E6E6E6"/>
<path d="M320.212 100.858H286.596C286.12 100.859 285.664 101.048 285.328 101.385C284.993 101.721 284.804 102.177 284.805 102.652V155.722H322.008V102.652C322.008 102.417 321.962 102.183 321.871 101.965C321.781 101.748 321.649 101.55 321.482 101.383C321.315 101.217 321.117 101.084 320.9 100.994C320.682 100.904 320.448 100.858 320.212 100.858ZM303.517 131.011C302.466 131.006 301.459 130.587 300.716 129.844C299.972 129.101 299.552 128.095 299.547 127.044V120.923C299.549 119.872 299.968 118.864 300.712 118.121C301.456 117.379 302.465 116.961 303.517 116.961C304.569 116.961 305.578 117.379 306.322 118.121C307.066 118.864 307.485 119.872 307.487 120.923V127.044C307.482 128.095 307.062 129.101 306.319 129.844C305.575 130.587 304.568 131.006 303.517 131.011Z" fill="#3F3D56"/>
<path d="M375.878 18.0371H232.18C230.945 18.0391 229.762 18.5301 228.889 19.4025C228.016 20.2749 227.524 21.4575 227.522 22.6913V119.595C227.524 120.829 228.015 122.012 228.888 122.885C229.761 123.758 230.945 124.248 232.18 124.25H375.878C377.113 124.248 378.296 123.758 379.17 122.885C380.043 122.012 380.534 120.829 380.535 119.595V22.6913C380.533 21.4576 380.042 20.2749 379.169 19.4025C378.296 18.5301 377.112 18.0391 375.878 18.0371Z" fill="#3F3D56"/>
<path d="M374.678 21.3989H233.38C232.719 21.4004 232.086 21.6638 231.619 22.1314C231.152 22.599 230.89 23.2326 230.89 23.8932V118.395C230.891 119.055 231.154 119.688 231.62 120.154C232.087 120.621 232.72 120.883 233.38 120.884H374.678C375.339 120.883 375.971 120.621 376.438 120.154C376.905 119.688 377.168 119.055 377.169 118.395V23.8932C377.169 23.2326 376.907 22.599 376.44 22.1314C375.973 21.6638 375.339 21.4004 374.678 21.3989Z" fill="#ECF2FF"/>
<path d="M284.688 154.024V159.144C284.689 159.409 284.795 159.664 284.982 159.851C285.17 160.039 285.425 160.144 285.69 160.145H321.121C321.386 160.144 321.64 160.038 321.828 159.85C322.015 159.663 322.121 159.409 322.122 159.144V154.024H284.688Z" fill="#3F3D56"/>
<path d="M347.156 161.927H263.091C262.861 161.927 262.634 161.875 262.426 161.777C262.219 161.678 262.036 161.534 261.891 161.355C261.746 161.177 261.642 160.968 261.588 160.744C261.534 160.521 261.531 160.288 261.578 160.063L262.883 153.872C262.957 153.526 263.147 153.215 263.423 152.992C263.698 152.769 264.041 152.646 264.396 152.645H345.852C346.206 152.646 346.549 152.769 346.825 152.992C347.1 153.215 347.291 153.526 347.365 153.872L348.669 160.063C348.717 160.288 348.713 160.521 348.659 160.744C348.605 160.968 348.502 161.177 348.357 161.355C348.212 161.534 348.029 161.678 347.821 161.777C347.613 161.875 347.386 161.927 347.156 161.927Z" fill="#3F3D56"/>
<path d="M267.26 153.76H265.314C265.136 153.76 264.992 153.904 264.992 154.081V154.991C264.992 155.168 265.136 155.312 265.314 155.312H267.26C267.437 155.312 267.581 155.168 267.581 154.991V154.081C267.581 153.904 267.437 153.76 267.26 153.76Z" fill="#E6E6E6"/>
<path d="M272.438 153.76H270.493C270.315 153.76 270.171 153.904 270.171 154.081V154.991C270.171 155.168 270.315 155.312 270.493 155.312H272.438C272.616 155.312 272.76 155.168 272.76 154.991V154.081C272.76 153.904 272.616 153.76 272.438 153.76Z" fill="#E6E6E6"/>
<path d="M277.616 153.76H275.67C275.493 153.76 275.349 153.904 275.349 154.081V154.991C275.349 155.168 275.493 155.312 275.67 155.312H277.616C277.794 155.312 277.938 155.168 277.938 154.991V154.081C277.938 153.904 277.794 153.76 277.616 153.76Z" fill="#E6E6E6"/>
<path d="M282.795 153.76H280.849C280.671 153.76 280.527 153.904 280.527 154.081V154.991C280.527 155.168 280.671 155.312 280.849 155.312H282.795C282.972 155.312 283.116 155.168 283.116 154.991V154.081C283.116 153.904 282.972 153.76 282.795 153.76Z" fill="#E6E6E6"/>
<path d="M287.972 153.76H286.027C285.849 153.76 285.705 153.904 285.705 154.081V154.991C285.705 155.168 285.849 155.312 286.027 155.312H287.972C288.15 155.312 288.294 155.168 288.294 154.991V154.081C288.294 153.904 288.15 153.76 287.972 153.76Z" fill="#E6E6E6"/>
<path d="M293.151 153.76H291.206C291.028 153.76 290.884 153.904 290.884 154.081V154.991C290.884 155.168 291.028 155.312 291.206 155.312H293.151C293.329 155.312 293.473 155.168 293.473 154.991V154.081C293.473 153.904 293.329 153.76 293.151 153.76Z" fill="#E6E6E6"/>
<path d="M298.329 153.76H296.383C296.206 153.76 296.062 153.904 296.062 154.081V154.991C296.062 155.168 296.206 155.312 296.383 155.312H298.329C298.507 155.312 298.651 155.168 298.651 154.991V154.081C298.651 153.904 298.507 153.76 298.329 153.76Z" fill="#E6E6E6"/>
<path d="M303.508 153.76H301.562C301.384 153.76 301.24 153.904 301.24 154.081V154.991C301.24 155.168 301.384 155.312 301.562 155.312H303.508C303.685 155.312 303.829 155.168 303.829 154.991V154.081C303.829 153.904 303.685 153.76 303.508 153.76Z" fill="#E6E6E6"/>
<path d="M308.685 153.76H306.74C306.562 153.76 306.418 153.904 306.418 154.081V154.991C306.418 155.168 306.562 155.312 306.74 155.312H308.685C308.863 155.312 309.007 155.168 309.007 154.991V154.081C309.007 153.904 308.863 153.76 308.685 153.76Z" fill="#E6E6E6"/>
<path d="M313.864 153.76H311.918C311.741 153.76 311.597 153.904 311.597 154.081V154.991C311.597 155.168 311.741 155.312 311.918 155.312H313.864C314.042 155.312 314.186 155.168 314.186 154.991V154.081C314.186 153.904 314.042 153.76 313.864 153.76Z" fill="#E6E6E6"/>
<path d="M319.042 153.76H317.096C316.918 153.76 316.774 153.904 316.774 154.081V154.991C316.774 155.168 316.918 155.312 317.096 155.312H319.042C319.219 155.312 319.364 155.168 319.364 154.991V154.081C319.364 153.904 319.219 153.76 319.042 153.76Z" fill="#E6E6E6"/>
<path d="M324.22 153.76H322.275C322.097 153.76 321.953 153.904 321.953 154.081V154.991C321.953 155.168 322.097 155.312 322.275 155.312H324.22C324.398 155.312 324.542 155.168 324.542 154.991V154.081C324.542 153.904 324.398 153.76 324.22 153.76Z" fill="#E6E6E6"/>
<path d="M329.398 153.76H327.453C327.275 153.76 327.131 153.904 327.131 154.081V154.991C327.131 155.168 327.275 155.312 327.453 155.312H329.398C329.576 155.312 329.72 155.168 329.72 154.991V154.081C329.72 153.904 329.576 153.76 329.398 153.76Z" fill="#E6E6E6"/>
<path d="M334.577 153.76H332.631C332.454 153.76 332.31 153.904 332.31 154.081V154.991C332.31 155.168 332.454 155.312 332.631 155.312H334.577C334.755 155.312 334.899 155.168 334.899 154.991V154.081C334.899 153.904 334.755 153.76 334.577 153.76Z" fill="#E6E6E6"/>
<path d="M339.755 153.76H337.809C337.631 153.76 337.487 153.904 337.487 154.081V154.991C337.487 155.168 337.631 155.312 337.809 155.312H339.755C339.932 155.312 340.076 155.168 340.076 154.991V154.081C340.076 153.904 339.932 153.76 339.755 153.76Z" fill="#E6E6E6"/>
<path d="M344.933 153.76H342.988C342.81 153.76 342.666 153.904 342.666 154.081V154.991C342.666 155.168 342.81 155.312 342.988 155.312H344.933C345.111 155.312 345.255 155.168 345.255 154.991V154.081C345.255 153.904 345.111 153.76 344.933 153.76Z" fill="#E6E6E6"/>
<path d="M267.199 156.347H265.253C265.076 156.347 264.932 156.491 264.932 156.669V157.578C264.932 157.756 265.076 157.9 265.253 157.9H267.199C267.377 157.9 267.521 157.756 267.521 157.578V156.669C267.521 156.491 267.377 156.347 267.199 156.347Z" fill="#E6E6E6"/>
<path d="M272.377 156.347H270.431C270.253 156.347 270.109 156.491 270.109 156.669V157.578C270.109 157.756 270.253 157.9 270.431 157.9H272.377C272.554 157.9 272.698 157.756 272.698 157.578V156.669C272.698 156.491 272.554 156.347 272.377 156.347Z" fill="#E6E6E6"/>
<path d="M277.555 156.347H275.61C275.432 156.347 275.288 156.491 275.288 156.669V157.578C275.288 157.756 275.432 157.9 275.61 157.9H277.555C277.733 157.9 277.877 157.756 277.877 157.578V156.669C277.877 156.491 277.733 156.347 277.555 156.347Z" fill="#E6E6E6"/>
<path d="M282.733 156.347H280.788C280.61 156.347 280.466 156.491 280.466 156.669V157.578C280.466 157.756 280.61 157.9 280.788 157.9H282.733C282.911 157.9 283.055 157.756 283.055 157.578V156.669C283.055 156.491 282.911 156.347 282.733 156.347Z" fill="#E6E6E6"/>
<path d="M287.912 156.347H285.966C285.789 156.347 285.645 156.491 285.645 156.669V157.578C285.645 157.756 285.789 157.9 285.966 157.9H287.912C288.09 157.9 288.234 157.756 288.234 157.578V156.669C288.234 156.491 288.09 156.347 287.912 156.347Z" fill="#E6E6E6"/>
<path d="M293.09 156.347H291.144C290.966 156.347 290.822 156.491 290.822 156.669V157.578C290.822 157.756 290.966 157.9 291.144 157.9H293.09C293.267 157.9 293.411 157.756 293.411 157.578V156.669C293.411 156.491 293.267 156.347 293.09 156.347Z" fill="#E6E6E6"/>
<path d="M298.268 156.347H296.323C296.145 156.347 296.001 156.491 296.001 156.669V157.578C296.001 157.756 296.145 157.9 296.323 157.9H298.268C298.446 157.9 298.59 157.756 298.59 157.578V156.669C298.59 156.491 298.446 156.347 298.268 156.347Z" fill="#E6E6E6"/>
<path d="M303.446 156.347H301.5C301.323 156.347 301.179 156.491 301.179 156.669V157.578C301.179 157.756 301.323 157.9 301.5 157.9H303.446C303.624 157.9 303.768 157.756 303.768 157.578V156.669C303.768 156.491 303.624 156.347 303.446 156.347Z" fill="#E6E6E6"/>
<path d="M308.625 156.347H306.679C306.501 156.347 306.357 156.491 306.357 156.669V157.578C306.357 157.756 306.501 157.9 306.679 157.9H308.625C308.802 157.9 308.947 157.756 308.947 157.578V156.669C308.947 156.491 308.802 156.347 308.625 156.347Z" fill="#E6E6E6"/>
<path d="M313.803 156.347H311.857C311.679 156.347 311.535 156.491 311.535 156.669V157.578C311.535 157.756 311.679 157.9 311.857 157.9H313.803C313.98 157.9 314.124 157.756 314.124 157.578V156.669C314.124 156.491 313.98 156.347 313.803 156.347Z" fill="#E6E6E6"/>
<path d="M318.981 156.347H317.036C316.858 156.347 316.714 156.491 316.714 156.669V157.578C316.714 157.756 316.858 157.9 317.036 157.9H318.981C319.159 157.9 319.303 157.756 319.303 157.578V156.669C319.303 156.491 319.159 156.347 318.981 156.347Z" fill="#E6E6E6"/>
<path d="M324.159 156.347H322.213C322.036 156.347 321.892 156.491 321.892 156.669V157.578C321.892 157.756 322.036 157.9 322.213 157.9H324.159C324.337 157.9 324.481 157.756 324.481 157.578V156.669C324.481 156.491 324.337 156.347 324.159 156.347Z" fill="#E6E6E6"/>
<path d="M329.338 156.347H327.392C327.214 156.347 327.07 156.491 327.07 156.669V157.578C327.07 157.756 327.214 157.9 327.392 157.9H329.338C329.515 157.9 329.659 157.756 329.659 157.578V156.669C329.659 156.491 329.515 156.347 329.338 156.347Z" fill="#E6E6E6"/>
<path d="M334.515 156.347H332.57C332.392 156.347 332.248 156.491 332.248 156.669V157.578C332.248 157.756 332.392 157.9 332.57 157.9H334.515C334.693 157.9 334.837 157.756 334.837 157.578V156.669C334.837 156.491 334.693 156.347 334.515 156.347Z" fill="#E6E6E6"/>
<path d="M339.694 156.347H337.749C337.571 156.347 337.427 156.491 337.427 156.669V157.578C337.427 157.756 337.571 157.9 337.749 157.9H339.694C339.872 157.9 340.016 157.756 340.016 157.578V156.669C340.016 156.491 339.872 156.347 339.694 156.347Z" fill="#E6E6E6"/>
<path d="M344.872 156.347H342.926C342.749 156.347 342.604 156.491 342.604 156.669V157.578C342.604 157.756 342.749 157.9 342.926 157.9H344.872C345.05 157.9 345.194 157.756 345.194 157.578V156.669C345.194 156.491 345.05 156.347 344.872 156.347Z" fill="#E6E6E6"/>
<path d="M310.178 159.452H290.109C289.931 159.452 289.787 159.596 289.787 159.774V160.683C289.787 160.861 289.931 161.005 290.109 161.005H310.178C310.356 161.005 310.5 160.861 310.5 160.683V159.774C310.5 159.596 310.356 159.452 310.178 159.452Z" fill="#E6E6E6"/>
<path d="M353.61 45.1218V94.8625C353.609 98.1935 352.285 101.388 349.928 103.743C347.571 106.099 344.374 107.422 341.041 107.423H278.745C276.293 107.423 273.894 106.707 271.843 105.363C269.793 104.018 268.18 102.104 267.205 99.855C266.878 99.1119 266.628 98.3372 266.46 97.5431C267.784 98.0551 269.192 98.3165 270.612 98.3137H332.908C335.98 98.3095 338.924 97.0882 341.096 94.9176C343.268 92.7471 344.49 89.8044 344.495 86.7348V36.9942C344.497 35.5752 344.236 34.1681 343.724 32.8447C344.518 33.013 345.293 33.2624 346.037 33.589C348.287 34.564 350.203 36.1752 351.548 38.2243C352.894 40.2734 353.61 42.6709 353.61 45.1218Z" fill="#BFACE2"/>
<path d="M121.202 243.021L115.023 246.845L96.8203 224.484L105.939 218.842L121.202 243.021Z" fill="#FFB6B6"/>
<path d="M126.537 251.008L121.566 253.225L118.584 248.931L118.407 254.634L105.224 260.515C104.593 260.797 103.887 260.87 103.211 260.723C102.535 260.576 101.923 260.216 101.466 259.697C101.009 259.178 100.729 258.527 100.669 257.838C100.608 257.149 100.769 256.459 101.129 255.868L108.411 243.906L106.293 239.165L117.661 234.886L126.537 251.008Z" fill="#310A5D"/>
<path d="M103.894 238.72L114.329 228.613C106.576 209.493 105.957 197.642 95.2081 174.518C120.71 179.731 138.942 179.414 160.032 174.741C167.172 173.183 185.595 158.962 184.08 151.67C184.01 151.33 183.926 150.992 183.83 150.657C181.566 142.944 183.16 131.131 178.26 122.572C169.194 119.156 155.421 130.69 144.647 137.72C139.452 141.111 143.255 145.73 139.374 146.941L124.5 151.767L88.0048 145.877C86.2411 145.609 84.4419 145.694 82.7109 146.125C80.9799 146.556 79.3514 147.325 77.9192 148.388C76.4871 149.45 75.2795 150.786 74.3663 152.317C73.453 153.849 72.8521 155.546 72.5981 157.31C72.5363 157.706 72.4916 158.104 72.4639 158.504C74.1431 167.794 75.8935 176.839 77.778 185.425C78.3863 188.197 77.3593 193.51 79.6469 193.59C81.9345 193.669 81.013 199.164 81.7255 201.851C86.1115 218.392 88.8851 226.397 103.894 238.72Z" fill="#310A5D"/>
<path d="M83.9196 283.048L77.4824 279.69L87.6671 252.728L97.1677 257.684L83.9196 283.048Z" fill="#FFB6B6"/>
<path d="M82.8467 262.919L93.1686 270.021C105.819 251.738 114.033 227.306 120.151 199.968C143.969 189.585 164.81 177.705 179.333 161.771C181.719 159.1 182.969 155.605 182.82 152.028C182.672 148.451 181.135 145.073 178.536 142.608C178.282 142.37 178.02 142.142 177.748 141.924C171.457 136.916 157.486 139.798 148.556 135.612L132.604 157.677L134.438 162.816L128.888 165.515L124.203 167.795L118.839 170.404L101.256 178.958C99.6622 179.754 98.2416 180.858 97.0765 182.206C95.9115 183.554 95.0249 185.118 94.468 186.81C93.9111 188.502 93.6949 190.287 93.8318 192.063C93.9688 193.838 94.4562 195.57 95.2659 197.156C95.4435 197.515 95.6364 197.867 95.8443 198.21L89.3142 230.72C89.3142 230.72 91.111 236.38 88.2837 235.851C85.4564 235.321 86.9971 242.256 86.9971 242.256L82.8467 262.919Z" fill="#310A5D"/>
<path d="M80.0216 297.907L75.1962 295.391L76.7125 290.389L72.1289 293.791L59.3307 287.116C58.7173 286.796 58.2222 286.288 57.9178 285.667C57.6134 285.046 57.5156 284.344 57.6387 283.664C57.7618 282.983 58.0993 282.36 58.6021 281.885C59.1048 281.409 59.7463 281.107 60.4331 281.022L74.3372 279.299L76.7409 274.696L87.156 280.944L80.0216 297.907Z" fill="#310A5D"/>
<path d="M220.719 156.562L213.19 138.379L207.259 141.673L210.841 160.169C210.482 161.34 210.458 162.589 210.77 163.774C211.082 164.959 211.719 166.033 212.609 166.876C213.499 167.72 214.607 168.298 215.808 168.546C217.008 168.795 218.255 168.704 219.406 168.283C220.558 167.863 221.57 167.129 222.327 166.166C223.085 165.202 223.558 164.046 223.695 162.829C223.831 161.611 223.625 160.379 223.099 159.272C222.574 158.165 221.749 157.226 220.719 156.562Z" fill="#FFB6B6"/>
<path d="M94.3848 12.7821L105.84 28.7868L110.871 24.2361L103.188 7.03224C103.272 5.80969 103.013 4.58804 102.44 3.5046C101.867 2.42117 101.003 1.51892 99.9451 0.89929C98.8872 0.279659 97.6773 -0.0327886 96.4514 -0.00292601C95.2256 0.0269366 94.0324 0.397926 93.0059 1.06833C91.9795 1.73874 91.1605 2.68198 90.6411 3.79202C90.1217 4.90207 89.9224 6.13489 90.0657 7.35191C90.2089 8.56893 90.689 9.7219 91.4521 10.6812C92.2151 11.6405 93.2307 12.368 94.3848 12.7821Z" fill="#FFB6B6"/>
<path d="M146.115 114.222C138.685 125.74 165.906 150.834 180.236 144.966C182.746 143.938 191.378 140.545 185.478 135.839C179.577 131.134 186.162 136.4 186.317 133.337C186.421 131.289 184.835 126.797 186.49 126.99C188.145 127.182 189.095 122.398 185.49 121.18C184.237 120.732 183.137 119.937 182.32 118.887C181.503 117.837 181.002 116.576 180.877 115.252C180.532 102.628 184.81 89.4479 184.81 89.4479L202.274 134.061C202.274 134.061 202.145 141.779 204.372 139.421C206.6 137.062 206.437 144.696 206.437 144.696C206.437 144.696 209.749 147.005 207.845 148.291C205.94 149.576 209.895 153.528 209.895 153.528L219.122 152.869C219.122 152.869 218.978 146.02 217.402 144.505C215.827 142.99 216.601 140.606 216.601 140.606C216.601 140.606 213.352 137.587 215.249 134.031C217.145 130.476 201.44 66.8751 201.44 66.8751C200.811 63.8152 199.347 60.9887 197.211 58.7081C195.075 56.4275 192.349 54.7815 189.336 53.9523L179.37 51.2101L177.6 44.1935H163.568L161.123 48.804L138.715 46.8281C138.715 46.8281 116.542 26.6671 117.624 25.0929C118.707 23.5187 115.27 19.8331 115.27 19.8331C115.27 19.8331 112.334 18.873 113.99 18.3604C115.647 17.8478 112.516 16.6626 112.516 16.6626C112.516 16.6626 109.616 15.9012 110.984 14.8986C112.352 13.896 106.42 13.2373 106.42 13.2373L98.7236 19.5126L100.279 22.1484C100.279 22.1484 99.3307 25.7376 100.568 24.4273C101.806 23.117 102.039 26.9195 102.039 26.9195C102.039 26.9195 102.671 31.0835 106.42 32.338C110.168 33.5925 113.011 45.5108 113.011 45.5108L144.646 71.8565C139.828 77.3833 140.975 83.1627 145.243 89.0745L146.115 114.222Z" fill="#6C63FF"/>
<path d="M170.268 39.5316C178.66 39.5316 185.463 32.7328 185.463 24.3461C185.463 15.9594 178.66 9.16064 170.268 9.16064C161.876 9.16064 155.072 15.9594 155.072 24.3461C155.072 32.7328 161.876 39.5316 170.268 39.5316Z" fill="#FFB6B6"/>
<path d="M183.532 19.8236C183.143 19.9356 177.436 20.6798 174.964 21.1409C172.539 21.5953 172.117 18.5063 170.133 19.0859C170.134 19.0724 170.132 19.0588 170.127 19.0464C169.819 17.4097 169.294 15.8214 168.565 14.3239C168.829 15.7582 168.867 17.225 168.677 18.671C168.676 18.7086 168.671 18.7461 168.664 18.7829C168.657 18.8488 168.644 18.9081 168.637 18.9739C166.541 18.0518 165.21 18.8751 163.76 19.1649C162.139 19.4877 160.873 20.199 161.783 25.7514C163.648 37.1722 173.35 41.2492 171.669 48.8038C171.339 50.299 170.509 52.1695 169.468 52.6371C169.16 51.0004 168.635 49.4121 167.906 47.9147C168.17 49.3489 168.208 50.8158 168.018 52.2617C166.403 50.5163 165.236 44.4173 159.806 39.5828C158.468 38.3973 151.765 31.363 150.961 29.7032C151.208 31.0302 151.327 32.3778 151.317 33.7275C151.318 34.6309 151.257 35.5332 151.132 36.4279C151.132 36.4856 151.125 36.5431 151.112 36.5992C151.106 36.7046 151.086 36.7968 151.073 36.8956C151.06 37.0076 151.04 37.1129 151.02 37.2249C148.825 36.9088 146.881 36.5267 145.965 35.631C141.51 31.2971 146.947 22.8533 149.919 15.2131C154.17 4.27304 166.515 2.81745 167.714 2.69889C173 2.16539 181.931 3.29825 184.85 9.28531C186.894 13.4809 185.589 19.2308 183.532 19.8236Z" fill="#310A5D"/>
<path d="M151.492 22.2931L162.499 5.18141C159.861 3.651 156.857 2.86354 153.807 2.90276C152.287 2.93433 150.79 3.28565 149.415 3.93381C148.04 4.58197 146.817 5.51244 145.826 6.66456C143.578 9.45668 143.192 13.4037 144.035 16.8871C144.325 18.0902 149.865 13.8571 148.547 15.8331C147.464 17.3801 145.695 23.8827 145.251 25.7127C144.537 28.658 142.573 31.6814 144.322 34.1568C146.391 37.0841 150.083 38.5392 153.666 38.687C157.249 38.8347 160.776 37.8424 164.181 36.7185L151.492 22.2931Z" fill="#310A5D"/>
<path d="M155.721 21.6182C155.562 21.618 155.408 21.5604 155.289 21.456C155.169 21.3517 155.091 21.2075 155.069 21.0502C155.047 20.8929 155.083 20.733 155.169 20.5999C155.256 20.4668 155.388 20.3695 155.541 20.326C155.714 20.041 155.643 18.8418 155.586 17.8728C155.372 14.2345 155.013 8.1453 160.928 4.03487C161.072 3.93516 161.249 3.89649 161.421 3.92737C161.593 3.95825 161.746 4.05615 161.846 4.19953C161.945 4.34291 161.984 4.52002 161.953 4.69191C161.922 4.8638 161.824 5.01639 161.681 5.11609C156.372 8.8052 156.691 14.2155 156.902 17.7953C157.022 19.842 157.11 21.3203 155.867 21.6018C155.819 21.6127 155.77 21.6182 155.721 21.6182Z" fill="#6C63FF"/>
<path d="M3.45644e-06 297.673C-0.000612754 297.881 0.0811865 298.08 0.227396 298.227C0.373605 298.374 0.57225 298.457 0.779641 298.457H472.216C472.424 298.457 472.623 298.375 472.77 298.228C472.917 298.081 473 297.881 473 297.673C473 297.466 472.917 297.266 472.77 297.119C472.623 296.972 472.424 296.89 472.216 296.89H0.784327C0.681634 296.889 0.579891 296.909 0.484898 296.948C0.389906 296.987 0.303524 297.045 0.230695 297.117C0.157865 297.189 0.100013 297.275 0.0604343 297.37C0.0208559 297.465 0.000325188 297.566 2.35699e-05 297.669L3.45644e-06 297.673Z" fill="#CCCCCC"/>
<path d="M291.665 62.4718H281.692C281.427 62.4718 281.173 62.3668 280.986 62.1799C280.799 61.993 280.694 61.7395 280.694 61.4752C280.694 61.2109 280.799 60.9573 280.986 60.7704C281.173 60.5835 281.427 60.4785 281.692 60.4785H291.665C291.929 60.4785 292.183 60.5835 292.37 60.7704C292.557 60.9573 292.662 61.2109 292.662 61.4752C292.662 61.7395 292.557 61.993 292.37 62.1799C292.183 62.3668 291.929 62.4718 291.665 62.4718Z" fill="#6C63FF"/>
<path d="M309.616 62.4718H299.643C299.512 62.4718 299.382 62.4461 299.261 62.396C299.14 62.3459 299.03 62.2725 298.938 62.1799C298.845 62.0874 298.772 61.9775 298.721 61.8566C298.671 61.7357 298.646 61.6061 298.646 61.4752C298.646 61.3443 298.671 61.2147 298.721 61.0938C298.772 60.9728 298.845 60.863 298.938 60.7704C299.03 60.6779 299.14 60.6045 299.261 60.5544C299.382 60.5043 299.512 60.4785 299.643 60.4785H309.616C309.747 60.4785 309.877 60.5043 309.998 60.5544C310.119 60.6045 310.229 60.6779 310.321 60.7704C310.414 60.863 310.487 60.9728 310.537 61.0938C310.588 61.2147 310.613 61.3443 310.613 61.4752C310.613 61.6061 310.588 61.7357 310.537 61.8566C310.487 61.9775 310.414 62.0874 310.321 62.1799C310.229 62.2725 310.119 62.3459 309.998 62.396C309.877 62.4461 309.747 62.4718 309.616 62.4718Z" fill="#6C63FF"/>
<path d="M318.593 70.445H308.619C308.488 70.445 308.359 70.4192 308.238 70.3691C308.117 70.319 308.007 70.2456 307.914 70.1531C307.822 70.0605 307.748 69.9506 307.698 69.8297C307.648 69.7088 307.622 69.5792 307.622 69.4483C307.622 69.3174 307.648 69.1878 307.698 69.0669C307.748 68.946 307.822 68.8361 307.914 68.7436C308.007 68.651 308.117 68.5776 308.238 68.5275C308.359 68.4774 308.488 68.4517 308.619 68.4517H318.593C318.724 68.4517 318.853 68.4774 318.974 68.5275C319.095 68.5776 319.205 68.651 319.298 68.7436C319.39 68.8361 319.464 68.946 319.514 69.0669C319.564 69.1878 319.59 69.3174 319.59 69.4483C319.59 69.5792 319.564 69.7088 319.514 69.8297C319.464 69.9506 319.39 70.0605 319.298 70.1531C319.205 70.2456 319.095 70.319 318.974 70.3691C318.853 70.4192 318.724 70.445 318.593 70.445Z" fill="#6C63FF"/>
<path d="M300.696 70.445H281.692C281.427 70.445 281.173 70.34 280.986 70.1531C280.799 69.9662 280.694 69.7127 280.694 69.4483C280.694 69.184 280.799 68.9305 280.986 68.7436C281.173 68.5567 281.427 68.4517 281.692 68.4517H300.696C300.96 68.4517 301.214 68.5567 301.401 68.7436C301.588 68.9305 301.693 69.184 301.693 69.4483C301.693 69.7127 301.588 69.9662 301.401 70.1531C301.214 70.34 300.96 70.445 300.696 70.445Z" fill="#6C63FF"/>
<path d="M336.599 62.4718H317.595C317.33 62.4718 317.077 62.3668 316.89 62.1799C316.703 61.993 316.598 61.7395 316.598 61.4752C316.598 61.2109 316.703 60.9573 316.89 60.7704C317.077 60.5835 317.33 60.4785 317.595 60.4785H336.599C336.73 60.4785 336.86 60.5043 336.981 60.5544C337.102 60.6045 337.212 60.6779 337.304 60.7704C337.397 60.863 337.47 60.9728 337.521 61.0938C337.571 61.2147 337.596 61.3443 337.596 61.4752C337.596 61.6061 337.571 61.7357 337.521 61.8566C337.47 61.9775 337.397 62.0874 337.304 62.1799C337.212 62.2725 337.102 62.3459 336.981 62.396C336.86 62.4461 336.73 62.4718 336.599 62.4718Z" fill="#6C63FF"/>
<path d="M298.492 47.3732H279.488C279.357 47.3736 279.227 47.348 279.106 47.2981C278.984 47.2481 278.874 47.1748 278.781 47.0822C278.688 46.9896 278.615 46.8796 278.564 46.7586C278.514 46.6375 278.488 46.5077 278.488 46.3766C278.488 46.2455 278.514 46.1156 278.564 45.9945C278.615 45.8735 278.688 45.7635 278.781 45.6709C278.874 45.5783 278.984 45.505 279.106 45.455C279.227 45.4051 279.357 45.3795 279.488 45.3799H298.492C298.757 45.3799 299.01 45.4849 299.197 45.6718C299.385 45.8587 299.49 46.1122 299.49 46.3766C299.49 46.6409 299.385 46.8944 299.197 47.0813C299.01 47.2682 298.757 47.3732 298.492 47.3732Z" fill="#6C63FF"/>
<path d="M300.055 53.1961C299.869 53.1962 299.687 53.1381 299.535 53.03C299.384 52.922 299.27 52.7693 299.209 52.5933C299.149 52.4173 299.145 52.2269 299.198 52.0486C299.252 51.8703 299.359 51.7131 299.506 51.5989L304.372 47.8189C304.568 47.667 304.73 47.4762 304.847 47.2585C304.965 47.0408 305.037 46.8011 305.057 46.5544C305.077 46.3077 305.046 46.0596 304.966 45.8256C304.885 45.5916 304.756 45.3768 304.588 45.195L300.503 40.7751C300.423 40.6891 300.362 40.5882 300.321 40.4782C300.28 40.3682 300.262 40.2514 300.267 40.1343C300.271 40.0171 300.299 39.9021 300.348 39.7956C300.397 39.6892 300.467 39.5935 300.553 39.5139C300.639 39.4344 300.74 39.3726 300.85 39.332C300.96 39.2914 301.077 39.2729 301.194 39.2775C301.311 39.2822 301.426 39.3098 301.533 39.3589C301.639 39.408 301.735 39.4775 301.815 39.5636L307.882 46.1269C307.966 46.2176 308.03 46.3249 308.07 46.4417C308.111 46.5586 308.126 46.6825 308.116 46.8057C308.106 46.9289 308.07 47.0487 308.011 47.1574C307.953 47.2661 307.872 47.3614 307.774 47.4373L300.602 53.0082C300.446 53.1301 300.253 53.1962 300.055 53.1961Z" fill="#6C63FF"/>
<path d="M278.527 53.1961C278.713 53.1962 278.895 53.1381 279.046 53.03C279.198 52.922 279.312 52.7693 279.372 52.5933C279.433 52.4173 279.437 52.2269 279.384 52.0486C279.33 51.8703 279.223 51.7131 279.076 51.5989L274.21 47.8189C274.014 47.667 273.852 47.4762 273.734 47.2585C273.616 47.0408 273.545 46.8011 273.525 46.5544C273.504 46.3077 273.536 46.0596 273.616 45.8256C273.697 45.5916 273.825 45.3768 273.993 45.195L278.079 40.7751C278.158 40.6891 278.22 40.5882 278.261 40.4782C278.301 40.3682 278.32 40.2514 278.315 40.1343C278.311 40.0171 278.283 39.9021 278.234 39.7956C278.185 39.6892 278.115 39.5935 278.029 39.5139C277.943 39.4344 277.842 39.3726 277.732 39.332C277.622 39.2914 277.505 39.2729 277.388 39.2775C277.271 39.2822 277.155 39.3098 277.049 39.3589C276.942 39.408 276.847 39.4775 276.767 39.5636L270.7 46.1269C270.616 46.2176 270.552 46.3249 270.512 46.4417C270.471 46.5586 270.456 46.6825 270.466 46.8057C270.476 46.9289 270.512 47.0487 270.57 47.1574C270.629 47.2661 270.71 47.3614 270.808 47.4373L277.979 53.0082C278.136 53.1301 278.329 53.1962 278.527 53.1961Z" fill="#6C63FF"/>
<path d="M308.317 87.5373H289.313C289.048 87.5373 288.795 87.4323 288.608 87.2454C288.421 87.0585 288.315 86.8049 288.315 86.5406C288.315 86.2763 288.421 86.0228 288.608 85.8359C288.795 85.6489 289.048 85.5439 289.313 85.5439H308.317C308.581 85.5439 308.835 85.6489 309.022 85.8359C309.209 86.0228 309.314 86.2763 309.314 86.5406C309.314 86.8049 309.209 87.0585 309.022 87.2454C308.835 87.4323 308.581 87.5373 308.317 87.5373Z" fill="#6C63FF"/>
<path d="M311.666 92.4675C311.48 92.4676 311.298 92.4096 311.147 92.3015C310.995 92.1934 310.881 92.0407 310.821 91.8648C310.76 91.6888 310.756 91.4983 310.81 91.3201C310.863 91.1418 310.97 90.9845 311.117 90.8703L315.984 87.0903C316.179 86.9384 316.341 86.7476 316.459 86.53C316.577 86.3123 316.648 86.0725 316.668 85.8259C316.689 85.5792 316.658 85.331 316.577 85.097C316.496 84.863 316.368 84.6483 316.2 84.4665L312.114 80.0466C312.035 79.9605 311.973 79.8596 311.932 79.7497C311.892 79.6397 311.873 79.5228 311.878 79.4057C311.882 79.2886 311.91 79.1735 311.959 79.0671C312.008 78.9607 312.078 78.8649 312.164 78.7854C312.25 78.7058 312.351 78.644 312.461 78.6035C312.571 78.5629 312.688 78.5444 312.805 78.549C312.923 78.5536 313.038 78.5813 313.144 78.6304C313.251 78.6794 313.347 78.749 313.426 78.8351L319.493 85.3983C319.577 85.4891 319.641 85.5964 319.682 85.7132C319.722 85.8301 319.737 85.954 319.727 86.0772C319.717 86.2004 319.682 86.3202 319.623 86.4289C319.564 86.5376 319.483 86.6329 319.385 86.7088L312.214 92.2797C312.057 92.4016 311.864 92.4676 311.666 92.4675Z" fill="#6C63FF"/>
<path d="M278.527 92.4675C278.713 92.4676 278.895 92.4096 279.046 92.3015C279.198 92.1934 279.312 92.0407 279.372 91.8648C279.433 91.6888 279.437 91.4983 279.384 91.3201C279.33 91.1418 279.223 90.9845 279.076 90.8703L274.21 87.0903C274.014 86.9384 273.852 86.7476 273.734 86.53C273.616 86.3123 273.545 86.0725 273.525 85.8259C273.504 85.5792 273.536 85.331 273.616 85.097C273.697 84.863 273.825 84.6483 273.993 84.4665L278.079 80.0466C278.24 79.8728 278.325 79.6422 278.315 79.4057C278.306 79.1692 278.203 78.9461 278.029 78.7854C277.855 78.6247 277.624 78.5397 277.388 78.549C277.151 78.5583 276.928 78.6612 276.767 78.8351L270.7 85.3983C270.616 85.4891 270.552 85.5964 270.512 85.7132C270.471 85.8301 270.456 85.954 270.466 86.0772C270.476 86.2004 270.512 86.3202 270.57 86.4289C270.629 86.5376 270.71 86.6329 270.808 86.7088L277.979 92.2797C278.136 92.4016 278.329 92.4676 278.527 92.4675Z" fill="#6C63FF"/>
<path d="M280.223 89.6752L284.218 80.543C284.325 80.302 284.522 80.1131 284.768 80.0175C285.014 79.922 285.288 79.9276 285.529 80.0332C285.771 80.1387 285.961 80.3356 286.058 80.5808C286.154 80.826 286.15 81.0995 286.045 81.3415L282.051 90.4736C281.999 90.5942 281.923 90.7033 281.829 90.7946C281.735 90.886 281.623 90.9578 281.501 91.006C281.379 91.0541 281.248 91.0777 281.117 91.0753C280.985 91.0729 280.856 91.0446 280.736 90.992C280.615 90.9394 280.506 90.8636 280.415 90.7689C280.324 90.6741 280.253 90.5624 280.206 90.44C280.158 90.3177 280.135 90.1871 280.138 90.0559C280.141 89.9246 280.17 89.7952 280.223 89.6752Z" fill="#6C63FF"/>
</g>
<defs>
<clipPath id="clip0_96_116">
<rect width="473" height="299" fill="white"/>
</clipPath>
</defs>
</svg>
