<svg width="268" height="158" viewBox="0 0 268 158" fill="none" xmlns="http://www.w3.org/2000/svg">
<g clip-path="url(#clip0_96_555)" filter="url(#filter0_d_96_555)">
<path d="M41.8512 85.455C46.764 88.7175 49.3488 92.3325 49.3488 104.996V146.246H64.4651V99.45C64.4651 78.9225 54.0228 65.5463 38.5195 63.6638C33.2349 63.075 28.8088 63.6113 24.1621 65.4263C22.5295 66.0563 21.296 66.885 19.9628 67.8788L19.0679 68.5425L19.1163 18.3337L18.5358 18.7012C17.3386 19.4812 14.8233 20.9212 11.3858 23.2612C5.86535 27.1087 4 31.7475 4 41.6362V146.25H19.1163V88.125L19.3823 87.9075C26.3026 82.3163 35.5598 81.285 41.8512 85.455ZM183.197 100.489L183.246 99.7013C184.08 86.4525 193.782 80.4188 202.443 80.4188C211.132 80.4188 220.916 86.4488 221.868 99.6938L221.922 100.489H183.197ZM227.67 77.8688C221.632 68.9363 212.834 64.02 202.912 64.02H202.7C180.422 64.1813 168.767 85.725 168.767 106.913C168.692 118.853 172.253 130.185 178.536 138.008C184.655 145.628 193.062 149.655 202.833 149.655C214.434 149.655 224.438 143.258 231.751 131.153L232.005 130.733L221.318 122.333L221.106 122.7C215.7 131.921 208.505 133.103 202.833 133.103C191.98 133.103 185.057 124.088 183.21 115.725L183.007 114.799H234.75L234.813 114.398C236.851 100.898 234.242 87.585 227.67 77.8688ZM94.1202 57.7463C92.92 58.5225 90.9458 59.9588 87.5053 62.3025C81.9849 66.1538 79.5814 70.7925 79.5814 80.6775V146.25H94.6977V57.3713L94.1202 57.7463ZM140.047 146.25V41.9737C140.047 32.0887 141.915 27.45 147.444 23.5912C150.873 21.255 153.385 19.8187 154.579 19.0462L155.163 18.75V146.25H140.047ZM109.814 146.25V40.875C109.814 30.9937 111.679 26.355 117.212 22.4962C120.637 20.1637 123.15 18.7237 124.347 17.955L124.93 17.58V146.25H109.814ZM248.884 146.25V41.9662C248.884 32.0812 250.752 27.4425 256.285 23.5837C259.71 21.2512 262.222 19.8112 263.42 19.0425L264 18.6675V146.243H248.884V146.25Z" fill="white"/>
<path d="M85.7263 51.4388C87.2833 50.2539 88.8921 49.1772 90.5454 48.2138C92.71 46.9013 94.5724 45.7613 95.957 43.905C102.759 34.8075 101.03 20.8313 100.951 20.2425L100.761 18.8025L100.214 20.0963C100.184 20.1638 97.1149 27.3075 91.7396 32.265C91.1319 32.82 90.3821 33.4463 89.5024 34.1775C87.8849 35.5275 85.8654 37.2038 83.4347 39.555C75.4382 47.2988 75.3535 60.1163 75.3535 60.66V62.0363L76.0519 60.9638C76.061 60.945 78.8031 56.8088 85.7263 51.4388Z" fill="#FFD600"/>
<path d="M84.0258 25.5187C87.69 22.68 90.2961 20.4675 91.98 18.2212C97.2798 11.1337 95.8649 1.7625 95.7954 1.36875L95.5837 0L95.0637 1.23C95.0486 1.275 92.7207 6.735 88.5637 10.5675C88.1163 10.98 87.5751 11.43 86.9372 11.955C85.3047 13.29 83.7114 14.7037 82.1605 16.185C75.9749 22.1775 75.9023 32.1075 75.9023 32.5237V33.9112L76.6068 32.8312C76.6189 32.8087 78.6596 29.6887 84.0289 25.5187H84.0258Z" fill="#00AEEF"/>
</g>
<defs>
<filter id="filter0_d_96_555" x="0" y="0" width="268" height="158" filterUnits="userSpaceOnUse" color-interpolation-filters="sRGB">
<feFlood flood-opacity="0" result="BackgroundImageFix"/>
<feColorMatrix in="SourceAlpha" type="matrix" values="0 0 0 0 0 0 0 0 0 0 0 0 0 0 0 0 0 0 127 0" result="hardAlpha"/>
<feOffset dy="4"/>
<feGaussianBlur stdDeviation="2"/>
<feComposite in2="hardAlpha" operator="out"/>
<feColorMatrix type="matrix" values="0 0 0 0 0 0 0 0 0 0 0 0 0 0 0 0 0 0 0.25 0"/>
<feBlend mode="normal" in2="BackgroundImageFix" result="effect1_dropShadow_96_555"/>
<feBlend mode="normal" in="SourceGraphic" in2="effect1_dropShadow_96_555" result="shape"/>
</filter>
<clipPath id="clip0_96_555">
<rect width="260" height="150" fill="white" transform="translate(4)"/>
</clipPath>
</defs>
</svg>
