<svg width="260" height="270" viewBox="0 0 260 270" fill="none" xmlns="http://www.w3.org/2000/svg">
<g clip-path="url(#clip0_96_534)">
<path d="M79.296 54.9767C79.4544 54.9936 79.6129 55.005 79.758 54.9485C80.0557 54.6437 80.4586 54.4181 80.3134 53.9498C81.5155 52.7706 82.3879 50.8018 81.6612 49.0864C81.2317 48.2854 80.3593 48.3533 79.4875 48.4207C78.8665 48.4659 78.2454 48.511 77.8026 48.2403L77.7828 47.7328L61.9467 42.3391C61.2136 39.4504 59.5751 36.9796 58.1682 34.4349C57.712 28.5564 51.7598 24.613 51.8457 18.8074C52.7111 17.7071 53.7285 17.8483 54.7588 17.9896C55.3404 18.0684 55.9283 18.1472 56.4902 18.0005C57.2563 17.4815 57.6789 17.0979 57.3289 16.1106C57.6661 15.9187 57.7317 15.3319 58.2871 15.2699C58.4125 13.9272 58.0823 12.4264 60.0046 12.0541C59.3772 10.9711 58.3928 10.0343 58.221 8.68069C59.3836 6.68915 57.7851 4.0939 57.8971 2.02901C55.5186 1.26174 52.8829 -0.323832 50.2136 -0.255944C49.051 -0.227695 47.8884 0.121767 46.7322 0.996567C44.6444 3.00496 43.3164 5.17146 43.389 7.29239C43.4087 11.4336 44.1488 11.5634 44.5916 14.3559C43.8847 14.9314 43.8847 16.4659 42.4841 15.8736C40.6871 17.8428 38.5994 20.0654 36.6242 22.108C30.4735 26.9034 21.8189 31.4109 20.7881 39.2754C21.3366 45.2163 21.4886 50.9823 21.2571 57.0075C21.5014 57.0357 21.7725 57.0134 22.0366 56.9906C22.5258 56.9514 23.0012 56.9172 23.3251 57.1542C23.2258 57.2672 23.1864 57.3574 23.1138 57.4535H23.0674C23.0807 57.7861 23.0935 58.0795 23.0343 58.4126L23.563 58.4012C24.5736 60.2574 23.682 62.9201 24.2828 64.9171C24.851 65.5832 24.6461 67.0216 25.8487 67.0667C25.8354 66.8075 25.7692 66.4972 26.0403 66.3054L27.1106 67.9807C27.778 68.2742 27.8239 67.5183 28.1344 67.2531C28.6168 67.4618 28.2998 68.0709 28.4055 68.4605C28.6632 68.7311 28.9273 69.0751 29.4624 68.9284L29.7596 63.8227C30.4735 65.3181 30.4532 67.1911 30.7179 68.8947L31.2594 68.8833C32.1712 68.1612 31.6425 66.92 31.7684 65.9218C31.4115 62.9201 31.8869 60.3363 30.3679 57.7579C30.8368 57.4193 31.0087 57.0357 30.9158 56.4662C31.2594 56.3928 31.3192 55.9299 31.7284 56.0092C32.7197 50.6492 32.2902 44.517 32.4754 39.2303L34.5957 37.73C36.5842 45.3293 34.999 53.2276 33.4528 60.7932C34.0077 62.1474 34.5562 63.8172 33.9287 65.4137L33.8626 68.3193L34.1331 68.3079L34.1864 66.9993C34.2921 69.8538 33.162 73.4027 35.587 74.8014C35.5406 82.1867 35.4942 89.5268 34.2851 96.4095C29.1386 107.067 21.2176 117.769 22.2612 129.775L28.3788 129.741L29.0265 128.522C34.4175 129.211 40.5484 130.446 45.1268 127.242C44.5121 124.691 40.2443 125.865 38.1437 124.663C37.1327 124.178 35.8644 123.693 35.1708 122.853L34.1795 122.773C35.5998 117.329 38.824 112.534 41.6448 107.665C49.7446 98.9368 49.2756 87.1908 50.7359 76.1273C51.0197 75.6594 51.5415 75.5519 52.0703 75.5915C52.447 75.5464 52.909 75.5464 53.4047 75.5409C55.0432 75.5295 56.9656 75.5068 56.5163 74.0232C64.2991 74.4971 70.7075 77.8933 78.4172 78.7791C78.2652 79.473 77.7567 80.037 77.5385 80.7032C77.4195 82.4405 77.3469 84.1162 77.2546 85.7806L77.228 87.0609C76.9836 95.5634 77.03 100.466 78.9588 108.612L84.4095 108.466L84.9707 107.27C90.1306 106.949 96.1821 107.478 100.979 104.596C100.06 102.147 95.9244 103.715 93.6387 102.655C92.3699 102.113 90.5532 101.583 90.0314 100.308C89.516 91.5971 90.1899 82.5366 92.0269 74.0064C84.3236 65.1996 73.4686 63.332 63.7837 59.0049C64.1535 58.0117 63.8099 58.2659 64.4309 57.3802C61.8742 57.3742 60.3151 55.6087 58.1084 56.2233C57.6394 54.0737 57.3556 51.4675 57.9238 49.2108C58.6372 49.7015 59.4631 49.9161 59.9785 50.6041C64.973 52.15 70.4957 52.5788 75.3387 54.604L77.1618 53.5493" fill="white"/>
<path d="M0.262695 220.416H59.6621V129.657H0.262695V220.416ZM46.5812 199.857C45.5638 201.623 43.595 203.096 40.6749 204.286C37.7548 205.477 34.3588 206.075 30.4874 206.075C26.2393 206.075 22.6059 205.392 19.6063 204.015C16.6003 202.639 14.6316 200.89 13.7005 198.763C12.769 196.636 12.3064 193.618 12.3064 189.714V186.3H27.0589V192.648C27.0589 194.605 27.2637 195.863 27.6799 196.421C28.0961 196.98 28.8361 197.257 29.893 197.257C30.95 197.257 31.7364 196.901 32.2449 196.196C32.7603 195.485 33.0244 194.436 33.0244 193.037C33.0244 189.968 32.5357 187.959 31.5513 187.011C30.5472 186.069 28.0694 184.49 24.119 182.272C20.1745 180.038 17.5522 178.419 16.2701 177.409C14.9821 176.399 13.9251 175.006 13.0795 173.223C12.2338 171.44 11.8177 169.161 11.8177 166.391C11.8177 162.396 12.4184 159.474 13.6077 157.629C14.797 155.779 16.7327 154.34 19.402 153.296C22.0644 152.253 25.288 151.733 29.0607 151.733C33.1829 151.733 36.6979 152.303 39.6046 153.443C42.505 154.582 44.4342 156.016 45.3722 157.742C46.3171 159.474 46.7861 162.413 46.7861 166.554V168.614H32.0336V164.743C32.0336 162.943 31.8485 161.793 31.4654 161.296C31.0887 160.8 30.4613 160.557 29.5761 160.557C28.6243 160.557 27.8976 160.89 27.4089 161.556C26.9201 162.221 26.6758 163.231 26.6758 164.585C26.6758 166.323 26.9532 167.632 27.5012 168.518C28.0299 169.398 29.5297 170.464 31.9936 171.705C39.0631 175.293 43.5155 178.233 45.3525 180.529C47.1889 182.831 48.1072 186.532 48.1072 191.643C48.1141 195.355 47.6051 198.097 46.5812 199.857Z" fill="white"/>
<path d="M67.2783 220.416H126.678V109.15H67.2783V220.416ZM115.044 162.594H105.227V206.035H88.6836V162.594H78.8994V151.722H115.044V162.594Z" fill="white"/>
<path d="M134.29 220.41H193.689V87.9927H134.29V220.41ZM178.785 206.063H151.467V151.711H177.682V162.588H166.636V172.895H176.975V183.237H166.636V195.186H178.779V206.063H178.785Z" fill="white"/>
<path d="M229.721 160.997V174.836C230.19 174.859 230.599 174.87 230.943 174.87C232.462 174.87 233.52 174.549 234.108 173.911C234.695 173.273 234.986 171.942 234.986 169.934V165.471C234.986 163.609 234.649 162.402 233.962 161.838C233.288 161.279 231.874 160.997 229.721 160.997Z" fill="white"/>
<path d="M201.3 220.41H260.699V67.485H201.3V220.41ZM248.834 171.643C248.834 175.112 248.418 177.64 247.578 179.231C246.733 180.822 245.193 182.04 242.961 182.893C240.721 183.744 237.788 184.167 234.167 184.167H229.721V206.063H214.598V151.694H229.84C234.345 151.694 237.814 151.992 240.239 152.602C242.663 153.205 244.486 154.074 245.709 155.22C246.931 156.365 247.757 157.747 248.187 159.366C248.622 160.991 248.834 163.502 248.834 166.904V171.643Z" fill="white"/>
<path d="M11.8769 231.609H0.262695V269.465H11.8769V231.609Z" fill="white"/>
<path d="M39.9331 231.609V239.186H33.0359V269.471H21.4218V239.186H14.5508V231.609H39.9331Z" fill="white"/>
<path d="M72.6237 231.614L79.2695 269.47H67.3976L66.7701 262.666H62.6213L61.9208 269.47H49.9102L55.8362 231.614H72.6237ZM66.466 255.952C65.8781 251.664 65.2901 246.361 64.6957 240.054C63.5129 247.303 62.7664 252.601 62.4628 255.952H66.466Z" fill="white"/>
<path d="M108.359 248.092H96.7448V241.514C96.7448 239.601 96.6188 238.405 96.3745 237.931C96.1301 237.457 95.5816 237.22 94.7296 237.22C93.7782 237.22 93.1636 237.508 92.9059 238.083C92.6482 238.665 92.5228 239.906 92.5228 241.824V259.409C92.5228 261.249 92.6482 262.45 92.9059 263.014C93.1636 263.579 93.7452 263.855 94.6437 263.855C95.5091 263.855 96.0773 263.579 96.3414 263.009C96.606 262.45 96.7448 261.124 96.7448 259.048V254.287H108.359V255.759C108.359 259.68 108.035 262.462 107.381 264.098C106.727 265.739 105.28 267.172 103.047 268.408C100.814 269.644 98.0594 270.258 94.7888 270.258C91.3864 270.258 88.5853 269.734 86.3721 268.695C84.1654 267.652 82.7056 266.202 81.9853 264.357C81.272 262.512 80.915 259.731 80.915 256.019V244.961C80.915 242.236 81.0276 240.188 81.2453 238.823C81.4699 237.457 82.124 236.143 83.221 234.879C84.311 233.621 85.837 232.622 87.7727 231.9C89.7153 231.178 91.9418 230.817 94.4654 230.817C97.8876 230.817 100.708 231.376 102.935 232.498C105.161 233.621 106.621 235.02 107.322 236.69C108.022 238.366 108.372 240.967 108.372 244.504V248.092H108.359Z" fill="white"/>
<path d="M132.597 231.614L139.244 269.47H127.371L126.75 262.666H122.595L121.894 269.47H109.884L115.81 231.614H132.597ZM126.447 255.952C125.859 251.664 125.264 246.361 124.676 240.054C123.487 247.303 122.747 252.601 122.45 255.952H126.447Z" fill="white"/>
<path d="M141.219 231.609H149.913C155.523 231.609 159.315 231.829 161.297 232.263C163.272 232.703 164.778 233.42 165.802 234.413C166.833 235.412 167.474 236.523 167.732 237.747C167.989 238.971 168.115 241.375 168.115 244.963V258.221C168.115 261.617 167.93 263.891 167.546 265.036C167.17 266.182 166.516 267.078 165.578 267.727C164.64 268.371 163.477 268.828 162.103 269.081C160.716 269.341 158.641 269.471 155.86 269.471H141.213V231.609H141.219ZM152.833 238.086V262.988C154.505 262.988 155.536 262.701 155.925 262.131C156.309 261.561 156.507 260.015 156.507 257.487V242.779C156.507 241.064 156.441 239.97 156.315 239.485C156.19 239 155.893 238.65 155.43 238.419C154.968 238.199 154.102 238.086 152.833 238.086Z" fill="white"/>
<path d="M172.448 231.609H191.812V239.186H184.055V246.368H191.316V253.566H184.055V261.894H192.585V269.471H172.448V231.609Z" fill="white"/>
<path d="M231.763 231.608V269.464H221.608L221.595 243.907L217.552 269.464H210.351L206.09 244.494L206.076 269.464H195.922V231.608H210.952C211.395 233.882 211.85 236.567 212.333 239.653L213.978 249.284L216.647 231.602H231.763V231.608Z" fill="white"/>
<path d="M261.175 231.609L252.705 255.761V269.465H241.943V255.767L233.777 231.614H244.447C246.118 239.005 247.056 243.975 247.268 246.531C247.915 242.492 248.992 237.522 250.499 231.614H261.175V231.609Z" fill="white"/>
</g>
<defs>
<clipPath id="clip0_96_534">
<rect width="260" height="270" fill="white"/>
</clipPath>
</defs>
</svg>
