<svg width="260" height="136" viewBox="0 0 260 136" fill="none" xmlns="http://www.w3.org/2000/svg">
<g clip-path="url(#clip0_96_708)">
<path d="M85.4283 108.8H80.9712V61.5778H85.4283V108.8Z" fill="white"/>
<path d="M111.057 65.3555V108.422H106.6V65.3555H93.2285V61.2H124.429V65.3555H111.057Z" fill="white"/>
<path d="M149.314 108.8H144.857L128.143 61.5778H132.971L145.971 99.3555C146.343 100.111 146.343 100.867 146.714 101.622C146.714 102.378 147.085 103.133 147.085 103.889C147.085 103.133 147.457 102.756 147.457 102C147.828 101.244 147.828 100.489 148.2 99.7333L161.943 61.9555H166.771L149.314 108.8Z" fill="white"/>
<path d="M173.828 108.8V61.5778H186.085C193.885 61.5778 199.828 63.4666 203.914 67.2444C208 71.0222 209.857 76.6889 209.857 84.2444C209.857 88.0222 209.114 91.0444 208 94.0666C206.885 97.0889 205.4 99.7333 203.171 101.622C200.942 103.889 198.342 105.4 195.371 106.533C192.4 107.667 189.057 108.422 184.971 108.422H173.828V108.8ZM177.914 65.3555V104.644H184.971C188.314 104.644 190.914 104.267 193.514 103.511C196.114 102.756 197.971 101.244 199.828 99.7333C201.685 98.2222 202.8 95.9555 203.914 93.3111C204.657 90.6667 205.4 88.0222 205.4 84.6222C205.4 71.7778 198.714 65.7333 185.714 65.7333H177.914V65.3555Z" fill="white"/>
<path d="M251.085 108.8L225.457 71.0222C225.085 70.6444 224.714 69.8889 224.343 69.5111C223.971 69.1333 223.6 68.3778 223.6 68C223.6 68.3778 223.6 68.7555 223.6 69.5111C223.6 70.2666 223.6 71.0222 223.6 72.1555V108.8H219.143V61.5778H223.971L249.228 98.9778C249.6 99.7333 249.971 100.111 250.343 100.489C250.714 100.867 251.085 101.622 251.085 102C251.085 101.244 251.085 100.489 250.714 99.7333C250.714 98.9778 250.714 97.8444 250.714 96.7111V61.5778H255.171V108.8H251.085Z" fill="white"/>
<path d="M82.0856 125.8H81.3428V117.111H82.0856V125.8Z" fill="white"/>
<path d="M86.5426 117.867V126.178H85.7997V117.867H83.1997V117.111H89.1426V117.867H86.5426Z" fill="white"/>
<path d="M96.5716 125.8H95.8287L92.4858 117.111H93.2287L95.8287 124.289L98.4287 117.111H99.1716L96.5716 125.8Z" fill="white"/>
<path d="M101.771 125.8H101.028V117.111H101.771V125.8Z" fill="white"/>
<path d="M103.628 125.8V117.111H105.857C107.343 117.111 108.457 117.489 109.2 118.245C109.943 119 110.314 120.133 110.314 121.645C110.314 122.4 110.314 122.778 109.943 123.533C109.571 123.911 109.571 124.667 108.828 125.045C108.457 125.422 108.086 125.8 107.343 125.8C106.6 126.178 106.228 126.178 105.486 126.178H103.628V125.8ZM104.371 117.867V125.422H105.857C106.6 125.422 106.971 125.422 107.343 125.045C107.714 125.045 108.086 124.667 108.457 124.289C108.828 123.911 109.2 123.533 109.2 123.156C109.2 122.778 109.571 122.022 109.571 121.645C109.571 119.378 108.457 117.867 105.857 117.867H104.371Z" fill="white"/>
<path d="M111.8 125.8V117.111H116.257V117.867H112.914V120.889H116.257V121.645H112.914V125.045H116.628V125.8H111.8Z" fill="white"/>
<path d="M121.457 126.178C120.714 126.178 120.343 126.178 119.6 125.8C119.229 125.422 118.486 125.422 118.486 124.667C118.114 124.289 117.743 123.911 117.743 123.156C117.372 122.778 117.372 122.022 117.372 121.267C117.372 120.511 117.372 119.756 117.743 119.378C118.114 118.622 118.114 118.244 118.486 117.867C118.857 117.489 119.229 117.111 119.972 116.733C120.343 116.356 121.086 116.356 121.829 116.356C122.572 116.356 122.943 116.356 123.686 116.733C124.057 117.111 124.429 117.111 124.8 117.489C125.172 117.867 125.543 118.244 125.543 119C125.914 119.378 125.914 120.133 125.914 120.889C125.914 121.644 125.914 122.022 125.543 122.778C125.543 123.533 125.172 123.911 124.8 124.289C124.429 124.667 124.057 125.044 123.314 125.422C122.943 125.8 122.2 126.178 121.457 126.178ZM121.457 117.489C121.086 117.489 120.343 117.489 119.972 117.867C119.6 118.244 119.229 118.244 118.857 118.622C118.486 119 118.486 119.378 118.114 119.756C118.114 120.133 117.743 120.889 117.743 121.267C117.743 121.644 117.743 122.4 118.114 122.778C118.114 123.156 118.486 123.533 118.857 123.911C119.229 124.289 119.6 124.667 119.972 124.667C120.343 125.044 120.714 125.044 121.457 125.044C121.829 125.044 122.572 125.044 122.943 124.667C123.314 124.289 123.686 124.289 124.057 123.911C124.429 123.533 124.429 123.156 124.8 122.778C124.8 122.4 125.172 121.644 125.172 121.267C125.172 120.889 125.172 120.133 124.8 119.756C124.8 119.378 124.429 119 124.057 118.622C123.686 118.244 123.314 117.867 122.943 117.867C122.572 117.489 122.2 117.489 121.457 117.489Z" fill="white"/>
<path d="M130.372 125.8V117.111H132.6C134.086 117.111 135.2 117.489 135.943 118.245C136.686 119 137.057 120.133 137.057 121.645C137.057 122.4 137.057 122.778 136.686 123.533C136.314 123.911 136.314 124.667 135.572 125.045C135.2 125.422 134.829 125.8 134.086 125.8C133.343 125.8 132.972 126.178 132.229 126.178H130.372V125.8ZM131.114 117.867V125.422H132.6C133.343 125.422 133.714 125.422 134.086 125.045C134.457 125.045 134.829 124.667 135.2 124.289C135.572 123.911 135.943 123.533 135.943 123.156C135.943 122.778 136.314 122.022 136.314 121.645C136.314 119.378 135.2 117.867 132.6 117.867H131.114Z" fill="white"/>
<path d="M138.543 125.8V117.111H143V117.867H139.657V120.889H143V121.645H139.657V125.045H143.372V125.8H138.543Z" fill="white"/>
<path d="M147.828 125.8H147.086L143.743 117.111H144.486L147.086 124.289L149.686 117.111H150.428L147.828 125.8Z" fill="white"/>
<path d="M151.914 125.8V117.111H156.371V117.867H153.028V120.889H156V121.645H152.657V125.045H156.371V125.8H151.914Z" fill="white"/>
<path d="M158.229 125.8V117.111H158.971V125.422H162.686V126.178H158.229V125.8Z" fill="white"/>
<path d="M166.771 126.178C166.028 126.178 165.657 126.178 164.914 125.8C164.543 125.422 163.8 125.422 163.8 124.667C163.428 124.289 163.057 123.911 163.057 123.156C162.686 122.778 162.686 122.022 162.686 121.267C162.686 120.511 162.686 119.756 163.057 119.378C163.428 118.622 163.428 118.244 163.8 117.867C164.171 117.489 164.543 117.111 165.286 116.733C165.657 116.356 166.4 116.356 167.143 116.356C167.886 116.356 168.257 116.356 169 116.733C169.371 117.111 169.743 117.111 170.114 117.489C170.486 117.867 170.857 118.244 170.857 119C171.228 119.378 171.228 120.133 171.228 120.889C171.228 121.644 171.228 122.022 170.857 122.778C170.857 123.533 170.486 123.911 170.114 124.289C169.743 124.667 169.371 125.044 168.628 125.422C167.886 125.8 167.514 126.178 166.771 126.178ZM166.771 117.489C166.4 117.489 165.657 117.489 165.286 117.867C164.914 118.244 164.543 118.244 164.171 118.622C163.8 119 163.8 119.378 163.428 119.756C163.428 120.133 163.057 120.889 163.057 121.267C163.057 121.644 163.057 122.4 163.428 122.778C163.428 123.156 163.8 123.533 164.171 123.911C164.543 124.289 164.914 124.667 165.286 124.667C165.657 125.044 166.028 125.044 166.771 125.044C167.143 125.044 167.886 125.044 168.257 124.667C168.628 124.289 169 124.289 169.371 123.911C169.743 123.533 169.743 123.156 170.114 122.778C170.114 122.4 170.486 121.644 170.486 121.267C170.486 120.889 170.486 120.133 170.114 119.756C170.114 119.378 169.743 119 169.371 118.622C169 118.244 168.628 117.867 168.257 117.867C167.886 117.489 167.514 117.489 166.771 117.489Z" fill="white"/>
<path d="M173.086 122.4V125.8H172.343V117.111H174.571C174.943 117.111 175.314 117.111 175.686 117.111C176.057 117.111 176.428 117.489 176.428 117.489C176.8 117.867 176.8 117.867 177.171 118.245C177.171 118.622 177.543 119 177.543 119.378C177.543 119.756 177.543 120.133 177.171 120.511C177.171 120.889 176.8 121.267 176.428 121.267C176.057 121.645 175.686 121.645 175.314 122.022C174.943 122.022 174.571 122.4 173.828 122.4H173.086ZM173.086 117.867V121.645H174.2C174.943 121.645 175.686 121.645 176.057 121.267C176.428 120.889 176.8 120.511 176.8 119.756C176.8 118.622 176.057 117.867 174.571 117.867H173.086Z" fill="white"/>
<path d="M179.028 125.8V117.111H183.485V117.867H180.143V120.889H183.485V121.645H180.143V125.045H183.857V125.8H179.028Z" fill="white"/>
<path d="M189.8 125.8L188.314 123.156C188.314 122.778 187.943 122.778 187.943 122.4L187.571 122.022C187.571 122.022 187.2 122.022 187.2 121.645H186.828H185.714V125.422H184.971V117.111H187.571C187.943 117.111 188.314 117.111 188.685 117.111C189.057 117.111 189.428 117.489 189.428 117.489C189.8 117.867 189.8 117.867 190.171 118.245C190.171 118.622 190.543 119 190.543 119.378C190.543 119.756 190.543 120.133 190.543 120.133C190.543 120.511 190.171 120.511 190.171 120.889C190.171 121.267 189.8 121.267 189.428 121.267C189.057 121.267 189.057 121.645 188.685 121.645C188.685 121.645 189.057 121.645 189.057 122.022C189.057 122.022 189.428 122.022 189.428 122.4C189.428 122.4 189.428 122.778 189.8 122.778C189.8 122.778 189.8 123.156 190.171 123.156L191.657 125.8H189.8ZM185.714 117.867V121.267H187.2C187.571 121.267 187.943 121.267 187.943 121.267C188.314 121.267 188.314 120.889 188.685 120.889C188.685 120.889 189.057 120.511 189.057 120.133C189.057 119.756 189.057 119.756 189.057 119.378C189.057 119 189.057 118.622 188.685 118.245C188.314 117.867 187.943 117.867 187.2 117.867H185.714Z" fill="white"/>
<path d="M191.657 124.667L192.029 125.045C192.029 125.045 192.4 125.045 192.4 125.422C192.771 125.422 192.771 125.422 193.143 125.422C193.514 125.422 193.514 125.422 193.514 125.422C194.257 125.422 194.629 125.422 195 125.045C195.371 124.667 195.371 124.289 195.371 123.911C195.371 123.533 195.371 123.533 195.371 123.156L195 122.778C195 122.778 194.628 122.4 194.257 122.4C193.886 122.4 193.886 122.022 193.514 122.022C193.143 121.645 192.771 121.645 192.4 121.267C192.028 121.267 192.028 120.889 191.657 120.511C191.657 120.133 191.286 120.133 191.286 119.756C191.286 119.378 191.286 119.378 191.286 119C191.286 118.622 191.286 118.245 191.657 117.867C191.657 117.489 192.028 117.489 192.4 117.111C192.771 117.111 193.143 117.111 193.514 117.111C193.886 117.111 194.257 117.111 194.629 117.111C195.371 117.111 195.743 117.111 196.486 117.489V118.245C196.114 117.867 195.371 117.867 194.629 117.867C194.257 117.867 194.257 117.867 193.886 117.867C193.514 117.867 193.514 117.867 193.143 118.245L192.771 118.622C192.771 118.622 192.771 119 192.771 119.378C192.771 119.756 192.771 119.756 192.771 120.133C192.771 120.133 192.771 120.511 193.143 120.511C193.143 120.511 193.514 120.889 193.886 120.889C194.257 120.889 194.257 121.267 194.629 121.267C195 121.645 195.371 121.645 195.743 122.022C196.114 122.4 196.114 122.4 196.486 122.778C196.486 123.156 196.857 123.156 196.857 123.533C196.857 123.911 196.857 123.911 196.857 124.289C196.857 124.667 196.857 125.045 196.486 125.422C196.486 125.8 196.114 125.8 195.743 126.178C195.371 126.556 195 126.556 195 126.556C194.629 126.556 194.257 126.556 193.886 126.556H193.514C193.143 126.556 193.143 126.556 192.771 126.556C192.4 126.556 192.4 126.556 192.029 126.556C192.029 126.556 191.657 126.556 191.657 126.178V124.667Z" fill="white"/>
<path d="M207.257 125.8L202.428 118.622C202.428 118.622 202.428 118.622 202.428 118.245V117.867C202.428 117.867 202.428 117.867 202.428 118.245V118.622V125.422H201.686V117.111H202.428L207.257 124.289C207.257 124.289 207.257 124.667 207.628 124.667C207.628 124.667 207.628 124.667 207.628 125.045V124.667C207.628 124.667 207.628 124.289 207.628 123.911V117.111H208V126.178H207.257V125.8Z" fill="white"/>
<path d="M210.229 125.8V117.111H214.686V117.867H211.343V120.889H214.686V121.645H211.343V125.045H215.057V125.8H210.229Z" fill="white"/>
<path d="M218.772 117.867V126.178H218.029V117.867H215.429V117.111H221.372V117.867H218.772Z" fill="white"/>
<path d="M230.286 125.8H229.543L227.686 119V118.622V118.245C227.686 118.622 227.686 118.622 227.686 119L225.828 125.8H225.086L221.743 117.111H222.486L224.343 124.289V124.667V125.045C224.343 125.045 224.343 124.667 224.714 124.289L226.943 117.111H227.686L229.543 124.289V124.667V125.045C229.543 125.045 229.543 125.045 229.543 124.667V124.289L231.4 117.111H232.143L230.286 125.8Z" fill="white"/>
<path d="M237.343 126.178C236.6 126.178 236.228 126.178 235.485 125.8C235.114 125.422 234.371 125.422 234.371 124.667C234 124.289 233.628 123.911 233.628 123.156C233.257 122.778 233.257 122.022 233.257 121.267C233.257 120.511 233.257 119.756 233.628 119.378C234 118.622 234 118.244 234.371 117.867C234.743 117.489 235.114 117.111 235.857 116.733C236.228 116.356 236.971 116.356 237.714 116.356C238.457 116.356 238.828 116.356 239.571 116.733C239.943 117.111 240.314 117.111 240.685 117.489C241.057 117.867 241.428 118.244 241.428 119C241.8 119.378 241.8 120.133 241.8 120.889C241.8 121.644 241.8 122.022 241.428 122.778C241.428 123.533 241.057 123.911 240.685 124.289C240.314 124.667 239.943 125.044 239.2 125.422C238.457 125.8 238.085 126.178 237.343 126.178ZM237.343 117.489C236.971 117.489 236.228 117.489 235.857 117.867C235.485 118.244 235.114 118.244 234.743 118.622C234.371 119 234.371 119.378 234 119.756C234 120.133 233.628 120.889 233.628 121.267C233.628 121.644 233.628 122.4 234 122.778C234 123.156 234.371 123.533 234.743 123.911C235.114 124.289 235.485 124.667 235.857 124.667C236.228 125.044 236.6 125.044 237.343 125.044C237.714 125.044 238.457 125.044 238.828 124.667C239.2 124.289 239.571 124.289 239.943 123.911C240.314 123.533 240.314 123.156 240.685 122.778C240.685 122.4 241.057 121.644 241.057 121.267C241.057 120.889 241.057 120.133 240.685 119.756C240.685 119.378 240.314 119 239.943 118.622C239.571 118.244 239.2 117.867 238.828 117.867C238.457 117.489 238.085 117.489 237.343 117.489Z" fill="white"/>
<path d="M247.743 125.8L246.257 123.156C246.257 122.778 245.885 122.778 245.885 122.4L245.514 122.022C245.514 122.022 245.143 122.022 245.143 121.645H244.771H243.657V125.422H242.914V117.111H245.514C245.885 117.111 246.257 117.111 246.628 117.111C247 117.111 247.371 117.489 247.371 117.489C247.743 117.867 247.743 117.867 248.114 118.245C248.114 118.622 248.485 119 248.485 119.378C248.485 119.756 248.485 120.133 248.485 120.133C248.485 120.511 248.114 120.511 248.114 120.889C248.114 121.267 247.743 121.267 247.371 121.267C247 121.267 247 121.645 246.628 121.645C246.628 121.645 247 121.645 247 122.022C247 122.022 247.371 122.022 247.371 122.4C247.371 122.4 247.371 122.778 247.743 122.778C247.743 122.778 247.743 123.156 248.114 123.156L249.6 125.8H247.743ZM243.657 117.867V121.267H245.143C245.514 121.267 245.885 121.267 245.885 121.267C246.257 121.267 246.257 120.889 246.628 120.889C246.628 120.889 247 120.511 247 120.133C247 119.756 247 119.756 247 119.378C247 119 247 118.622 246.628 118.245C246.257 117.867 245.885 117.867 245.143 117.867H243.657Z" fill="white"/>
<path d="M254.429 125.8L250.714 121.645C250.714 121.645 250.714 121.267 250.343 121.267V125.8H249.6V117.111H250.343V121.267L253.686 117.489H254.8L251.086 121.645L255.172 126.178H254.429V125.8Z" fill="white"/>
<path fill-rule="evenodd" clip-rule="evenodd" d="M30.457 99.3556L-0.371582 131.467V68.3778L30.457 36.2667V99.3556Z" fill="#717272"/>
<path fill-rule="evenodd" clip-rule="evenodd" d="M66.1141 63.0889L34.9141 95.2V31.7333L66.1141 0V63.0889Z" fill="#C25D28"/>
<mask id="mask0_96_708" style="mask-type:luminance" maskUnits="userSpaceOnUse" x="-1" y="10" width="68" height="70">
<path d="M66.1141 10.5778H-0.371582V79.7111H66.1141V10.5778Z" fill="white"/>
</mask>
<g mask="url(#mask0_96_708)">
<path d="M-0.371582 74.8C10.7713 69.8889 20.7998 63.8445 30.8284 57.0445V55.9111C21.1713 63.0889 11.1427 69.1334 -0.371582 74.0445V74.8Z" fill="#2D2A2D"/>
<path d="M-0.371582 72.9111C10.7713 68 20.7998 61.9555 30.8284 54.7777V53.6444C21.1713 60.8222 11.1427 67.2444 -0.371582 72.1555V72.9111Z" fill="#2D2A2D"/>
<path d="M-0.371582 71.4C11.1427 66.4889 21.1713 60.0667 30.8284 52.5111V51.3778C21.1713 58.9334 11.1427 65.3556 -0.371582 70.2667V71.4Z" fill="#2D2A2D"/>
<path d="M30.0856 44.9555C30.457 44.9555 30.457 44.5777 30.8284 44.2V42.6888C30.457 42.6888 30.457 43.0666 30.0856 43.0666C23.3999 48.3555 16.7141 52.8888 9.657 57.4222L5.57129 61.5777C14.1141 56.6666 22.2856 51.3777 30.0856 44.9555Z" fill="#2D2A2D"/>
<path d="M26.7429 44.9555C28.2286 43.8222 29.3429 42.6889 30.8286 41.5555V40.0444C29.3429 41.1778 28.2286 42.3111 26.7429 43.4444C23.7714 45.7111 20.4286 47.9778 17.0857 50.2444L13 54.4C17.8286 51.3778 22.2857 48.3555 26.7429 44.9555Z" fill="#2D2A2D"/>
<path d="M-0.371582 79.7111C10.7713 76.3111 21.1713 72.5333 30.8284 68V66.4889V65.7333C21.1713 69.8889 11.1427 74.0445 -0.000153452 77.4445C11.1427 73.2889 21.1713 68.3778 30.8284 63.0889V62.3333V61.5778C25.9998 64.6 20.7998 67.2445 15.5998 69.5111C20.7998 66.8667 25.9998 64.2222 30.8284 61.2V60.4445C21.1713 66.1111 11.1427 71.0222 -0.371582 75.5556V79.7111Z" fill="#2D2A2D"/>
</g>
<mask id="mask1_96_708" style="mask-type:luminance" maskUnits="userSpaceOnUse" x="-1" y="10" width="68" height="70">
<path d="M66.1141 10.5778H-0.371582V79.7111H66.1141V10.5778Z" fill="white"/>
</mask>
<g mask="url(#mask1_96_708)">
<path d="M34.9141 52.5111V53.6444C44.9426 46.0889 54.9712 37.0222 65.7426 27.5778V26.0667C65.7426 26.4444 65.3712 26.4444 65.3712 26.8222C54.5998 36.2666 44.9426 44.9555 34.9141 52.5111Z" fill="#8F2A2F"/>
<path d="M34.9141 50.2445V51.3778C44.5712 43.8222 54.2283 35.1334 64.6283 25.6889C64.9998 25.3111 65.3712 24.9334 65.7426 24.5556V23.4222C64.9998 23.8 64.6284 24.5556 63.8855 24.9334C53.8569 34.3778 44.5712 43.0667 34.9141 50.2445Z" fill="#8F2A2F"/>
<path d="M34.9141 47.9777V49.1111C44.5712 41.1777 54.2283 32.1111 64.9998 21.9111C65.3712 21.5333 65.7426 21.1555 66.1141 20.7777V19.6444C65.3712 20.0222 64.9998 20.7777 64.2569 21.1555C53.8569 31.3555 44.5712 40.0444 34.9141 47.9777Z" fill="#8F2A2F"/>
<path d="M34.9141 40.8C42.7141 34.3778 49.7712 27.2 56.8283 19.6444C57.5712 18.8889 56.4569 18.1333 56.0855 18.8889C49.3998 26.0667 42.3426 32.8667 34.9141 39.2889V40.8Z" fill="#8F2A2F"/>
<path d="M50.1426 20.4C45.3141 25.6889 40.1141 31.3556 34.9141 36.2667V37.7778C40.4855 32.4889 46.0569 26.8223 51.2569 21.1556C51.6284 20.7778 50.8855 19.6445 50.1426 20.4Z" fill="#8F2A2F"/>
<path d="M59.0568 17.3778C61.2853 17 63.5139 16.6223 65.7425 15.8667V14.3556C64.2568 14.7334 62.7711 15.1111 60.9139 15.4889C56.8282 16.2445 52.7425 17 48.6568 17.3778L47.5425 18.8889C51.6282 18.5111 55.3425 18.1334 59.0568 17.3778Z" fill="#8F2A2F"/>
<path d="M58.6857 13.6C60.9143 13.2222 63.5143 12.8444 65.7429 12.0889V10.5778C63.8857 10.9555 62.4 11.3333 60.5429 11.7111C57.9429 12.0889 55.3429 12.4666 53.1143 12.8444L52 14.3555C54.2286 13.9778 56.4571 13.9778 58.6857 13.6Z" fill="#8F2A2F"/>
<path d="M34.9141 58.1777C44.9426 51.3777 54.9712 43.8222 66.1141 34.3777V33.2444C54.9712 42.6888 45.3141 50.6222 34.9141 57.0444V58.1777Z" fill="#8F2A2F"/>
<path d="M34.9141 65.7333C45.3141 60.4444 55.3426 54.4 66.1141 47.2222V46.0889C55.7141 53.6444 45.6855 59.6889 34.9141 64.9778V65.7333Z" fill="#8F2A2F"/>
<path d="M34.9141 64.6C44.9426 59.3111 54.9712 52.8888 66.1141 44.9555V44.2C55.3426 52.1333 45.3141 58.5555 34.9141 63.8444V64.6Z" fill="#8F2A2F"/>
<path d="M34.9141 63.4667C45.3141 57.8 55.3426 51 66.1141 43.0667V41.9333C55.3426 49.8667 45.3141 56.6667 34.9141 62.3333V63.4667Z" fill="#8F2A2F"/>
<path d="M34.9141 60.4445C45.3141 54.4 55.3426 47.2222 66.1141 38.1556V37.4C55.3426 46.0889 45.3141 53.2667 34.9141 59.6889V60.4445Z" fill="#8F2A2F"/>
<path d="M34.9141 59.6889C44.9426 53.6444 54.9712 46.0889 66.1141 36.6444V35.5111C54.9712 44.9556 44.9426 52.1333 34.9141 58.5556V59.6889Z" fill="#8F2A2F"/>
</g>
</g>
<defs>
<clipPath id="clip0_96_708">
<rect width="260" height="136" fill="white"/>
</clipPath>
</defs>
</svg>
