<svg width="260" height="90" viewBox="0 0 260 90" fill="none" xmlns="http://www.w3.org/2000/svg">
<path d="M13.9585 0.441444C8.71012 2.09796 3.98136 6.37283 1.591 11.6095L0.187958 14.6554L0.0320644 42.6558C-0.0718645 59.4347 0.0840288 71.9921 0.395815 74.0227C1.33118 80.3815 4.91672 85.5114 10.373 88.5038L13.1791 90H44.0979H75.0168L77.9787 88.5038C81.928 86.5267 85.6695 82.2518 87.2804 77.8701L88.5275 74.5036V45.1138C88.5275 15.7241 88.5275 15.7241 87.3323 12.7317C84.9939 6.80032 81.5123 3.16668 76.0041 1.02924C73.25 0.0139618 72.1067 -0.0394745 44.2018 0.0139618C28.3007 0.0139618 14.686 0.227699 13.9585 0.441444ZM29.288 37.6328C31.0548 40.5718 32.7177 42.9764 32.9256 42.9764C33.1334 42.9764 34.7963 40.5718 36.5631 37.6328L39.7329 32.2892L43.2145 32.1289L46.6961 31.9686L46.5922 45.7551L46.4363 59.5415L43.2145 59.7018L39.9927 59.8622L39.8368 52.3277L39.6809 44.7932L36.667 49.8696C35.0041 52.7017 33.3932 55.1064 33.1854 55.2667C32.9256 55.427 31.9382 54.3048 30.9509 52.7552C29.9636 51.2055 28.5086 48.8544 27.6771 47.5185L26.1702 45.1138L26.0143 52.488L25.8584 59.8622L22.6366 59.7018L19.4148 59.5415L19.2589 45.7551L19.155 31.9686L22.6366 32.1289L26.1182 32.2892L29.288 37.6328ZM60.9344 39.7703C61.9737 40.3581 62.6492 40.4115 63.013 40.0374C63.2728 39.7703 64.7798 39.5031 66.2867 39.5031H69.0408V49.6559V59.8087H66.2867C64.7798 59.8087 63.2728 59.5415 63.013 59.2744C62.6492 58.9003 61.8178 59.0072 60.4667 59.595C57.5047 60.8774 54.3869 60.2362 51.7886 57.7782C49.1904 55.3735 48.2551 53.2361 48.2551 49.7093C48.2551 46.3429 48.9306 44.5261 51.0092 42.2283C53.9192 39.0756 57.8165 38.1138 60.9344 39.7703Z" fill="white"/>
<path d="M55.6342 46.4498C54.0233 47.9994 54.0752 51.2056 55.6861 52.7552C57.4529 54.4652 60.311 54.3583 61.714 52.5415C64.0004 49.5491 62.2856 45.3811 58.7001 45.3811C57.4529 45.3811 56.3617 45.7551 55.6342 46.4498Z" fill="white"/>
<path d="M112.171 25.8235V38.4343H114.25H116.329V30.0983C116.329 24.8082 116.536 21.9226 116.848 22.1364C117.108 22.2967 118.771 24.8616 120.538 27.7471C122.252 30.6861 123.863 33.0907 124.071 33.0907C124.331 33.0907 125.942 30.5792 127.709 27.48C129.528 24.3807 131.19 22.0295 131.45 22.1898C131.71 22.3501 131.918 26.0372 131.918 30.4724V38.4343H133.996H136.075V25.8235V13.266L133.633 13.4263L131.19 13.5866L127.813 19.3577C125.942 22.5104 124.227 25.0219 124.019 24.9685C123.811 24.8616 122.149 22.2967 120.278 19.1974L116.952 13.5866L114.562 13.4263L112.171 13.266V25.8235Z" fill="white"/>
<path d="M165.591 16.1516C163.772 16.5791 163.616 16.7929 163.616 18.4494C163.616 20.1059 163.46 20.2662 162.057 20.2662C160.602 20.2662 160.498 20.3731 160.498 22.4036C160.498 24.3807 160.602 24.5411 162.005 24.5411H163.512L163.72 30.1518C163.928 37.0451 164.551 37.9535 169.02 38.3275L171.93 38.5413V36.6176C171.93 35.0145 171.722 34.6939 170.839 34.6939C168.189 34.6939 167.773 33.8923 167.773 29.0831V24.5411H169.852H171.93V22.4036C171.93 20.2662 171.93 20.2662 169.904 20.2662C167.825 20.2662 167.825 20.2662 167.669 17.9684L167.513 15.6707L165.591 16.1516Z" fill="white"/>
<path d="M180.608 20.3195C178.374 20.6936 176.399 22.0295 174.84 24.2203C173.957 25.3425 173.749 26.4646 173.749 29.3502C173.749 33.4113 174.58 35.0678 177.646 37.2053C180.66 39.3427 187.416 38.7015 189.546 36.0831C190.066 35.4419 189.962 35.1213 188.871 34.4266C187.624 33.5716 187.416 33.5716 185.233 34.4266C183.31 35.1747 182.635 35.2281 181.076 34.6938C179.413 34.1594 177.646 32.4495 177.646 31.3807C177.646 31.1136 180.712 30.9533 184.402 30.9533H191.157V29.083C191.157 23.2585 186.376 19.3042 180.608 20.3195ZM184.038 23.9532C185.597 24.5944 187 25.9837 187 26.999C187 27.5868 186.013 27.7471 182.323 27.7471C179.777 27.7471 177.646 27.5868 177.646 27.4265C177.646 26.5715 178.894 25.0219 180.141 24.3272C181.804 23.3654 182.375 23.3119 184.038 23.9532Z" fill="white"/>
<path d="M143.454 21.3884C138.465 24.7014 138.465 34.1061 143.506 37.3123C146 38.8619 150.469 38.8619 152.392 37.3123L153.795 36.1901L154.106 37.3123C154.314 38.1672 154.782 38.4344 156.133 38.4344H157.9V29.3503V20.2662H156.133C154.834 20.2662 154.314 20.5334 154.106 21.3349L153.847 22.4571L152.08 21.3349C149.741 19.8921 145.74 19.8921 143.454 21.3884ZM152.132 25.396C153.535 26.5716 153.743 27.106 153.743 29.3503C153.743 31.5946 153.535 32.129 152.132 33.3046C147.663 37.2054 141.271 31.9687 144.077 26.7319C145.636 23.793 149.586 23.1517 152.132 25.396Z" fill="white"/>
<path d="M187 53.1293C187 55.6408 186.896 57.6713 186.792 57.6713C186.636 57.6713 185.701 57.137 184.662 56.5492C180.816 54.198 175.36 56.1751 173.437 60.5569C171.307 65.3661 172.97 70.8166 177.127 73.0074C179.985 74.5036 182.011 74.5571 184.558 73.1677C186.844 71.8853 187 71.8853 187 72.9006C187 73.4884 187.572 73.7021 189.079 73.7021H191.157V61.1447V48.5872H189.079H187V53.1293ZM185.285 61.1447C186.948 62.8546 187.104 63.2821 186.844 65.2058C186.273 69.5341 182.427 71.6181 178.998 69.4807C176.971 68.1982 176.607 67.4501 176.607 64.8317C176.607 62.4271 177.335 61.0912 179.101 60.1294C181.492 58.7935 183.259 59.0607 185.285 61.1447Z" fill="white"/>
<path d="M115.237 56.7629C114.302 57.4041 112.951 58.7934 112.275 59.8087C110.613 62.3202 110.768 67.7707 112.639 70.389C115.081 73.9158 119.758 75.1983 122.98 73.1677C125.007 71.8852 125.163 71.8852 125.163 72.9005C125.163 73.4883 125.734 73.7021 127.241 73.7021H129.32V64.8851V56.0682H127.241C125.682 56.0682 125.163 56.282 125.163 56.9232C125.163 57.6179 124.903 57.5644 123.396 56.656C121.005 55.1064 117.524 55.1598 115.237 56.7629ZM123.656 60.824C126.618 63.9233 125.266 69.2669 121.213 70.2822C118.979 70.87 116.225 69.1066 115.445 66.5951C113.678 61.1446 119.758 56.8697 123.656 60.824Z" fill="white"/>
<path d="M137.894 56.3888C133.581 58.6865 131.97 62.4805 133.165 67.3431C133.996 70.6027 135.503 72.3127 138.465 73.4883C141.375 74.6104 144.337 74.2364 147.04 72.4195C149.43 70.763 149.586 69.7477 147.611 68.679C146.364 67.9844 146.052 68.0378 144.961 68.9462C141.947 71.4577 137.322 69.4271 136.751 65.366C136.491 63.4423 136.699 62.908 138.05 61.3583C139.349 59.8621 139.972 59.5415 141.739 59.5415C143.194 59.5415 144.181 59.9155 144.961 60.7171C146 61.7858 146.156 61.7858 147.559 60.9308C149.274 59.9155 149.43 59.2209 148.183 58.0987C145.325 55.5338 140.856 54.7857 137.894 56.3888Z" fill="white"/>
<path d="M155.198 56.6026C148.91 60.0225 149.534 70.5493 156.185 73.4883C158.524 74.5036 160.447 74.3967 162.733 73.1677C165.019 71.8852 165.175 71.8852 165.175 72.9005C165.175 73.4883 165.747 73.702 167.254 73.702H169.332V64.8851V56.0682H167.254C165.747 56.0682 165.175 56.282 165.175 56.8697C165.175 57.885 165.019 57.885 162.993 56.6026C160.81 55.2667 157.692 55.2667 155.198 56.6026ZM162.525 60.0225C165.487 61.6255 166.059 65.7401 163.668 68.4653C159.563 73.2211 152.496 67.6104 155.51 61.9996C156.861 59.4881 159.875 58.6331 162.525 60.0225Z" fill="white"/>
<path d="M198.744 56.7629C195.73 58.5263 194.639 60.3431 194.379 63.9768C194.015 69.5341 196.925 73.2746 202.278 74.0227C204.928 74.3968 208.617 73.2746 210.072 71.6181C210.904 70.7097 210.852 70.6028 209.553 69.6944C208.254 68.8394 208.046 68.8394 206.695 69.641C204.408 71.0303 201.706 70.7631 199.939 68.8929C199.056 68.0379 198.484 67.076 198.692 66.7554C198.9 66.4348 201.706 66.2211 205.551 66.2211H212.099L211.839 63.5493C211.216 57.0835 204.304 53.4499 198.744 56.7629ZM206.591 60.45C207.266 61.0912 207.786 62.0531 207.786 62.5874C207.786 63.4424 207.266 63.5493 203.109 63.5493C197.913 63.5493 197.341 63.0684 199.731 60.6103C201.394 58.8469 204.824 58.74 206.591 60.45Z" fill="white"/>
<path d="M221.141 56.6025C219.582 57.885 219.218 57.9384 219.218 56.8697C219.218 56.2819 218.647 56.0682 217.14 56.0682H215.061V64.8851V73.702H217.14H219.218V68.0378C219.218 60.9843 219.946 59.2743 222.908 59.2743C225.454 59.2743 225.974 60.6102 225.974 67.45V73.702H228.052H230.131V67.8775C230.131 62.8545 230.287 61.8927 231.222 60.6637C232.469 59.0071 234.756 58.7934 236.003 60.2362C236.73 61.0377 236.886 62.427 236.886 67.45V73.702H238.965H241.043V67.2897C241.043 59.9156 240.42 57.6712 237.977 56.3888C235.795 55.2132 232.625 55.3201 231.014 56.6025C230.287 57.1903 229.559 57.6712 229.351 57.6712C229.143 57.6712 228.416 57.1903 227.688 56.6025C226.909 55.9613 225.558 55.5338 224.415 55.5338C223.271 55.5338 221.92 55.9613 221.141 56.6025Z" fill="white"/>
<path d="M246.343 64.7248C249.721 72.7937 249.929 73.5418 249.253 74.7708C248.89 75.5189 247.798 76.4273 246.863 76.8548C245.46 77.496 245.2 77.9235 245.2 79.4197C245.2 81.0762 245.252 81.1297 246.915 80.809C249.513 80.3281 251.384 79.1525 252.475 77.3357C252.995 76.4273 254.866 71.7784 256.528 67.076C260.945 54.7858 260.738 55.9613 258.191 56.1751L256.009 56.3354L254.19 62.053C253.203 65.2592 252.215 67.8241 251.956 67.8241C251.748 67.8241 250.604 65.1523 249.409 61.9462L247.227 56.0682H244.992H242.758L246.343 64.7248Z" fill="white"/>
</svg>
