<svg width="58" height="127" viewBox="0 0 58 127" fill="none" xmlns="http://www.w3.org/2000/svg">
<path d="M58 30.18H57.3609V11.0639C57.3609 9.61094 57.0988 8.17223 56.5895 6.8299C56.0803 5.48757 55.3338 4.2679 54.3928 3.24052C53.4519 2.21314 52.3348 1.39819 51.1053 0.842178C49.8759 0.286168 48.5582 -4.2377e-06 47.2274 0H10.1334C8.80271 -5.39346e-06 7.48499 0.286164 6.25554 0.842173C5.02609 1.39818 3.909 2.21314 2.96802 3.24052C2.02704 4.2679 1.28061 5.48757 0.771361 6.8299C0.262107 8.17223 -1.41142e-06 9.61094 0 11.0639V115.936C-1.41142e-06 117.389 0.262107 118.828 0.771361 120.17C1.28061 121.512 2.02704 122.732 2.96802 123.759C3.909 124.787 5.02609 125.602 6.25554 126.158C7.48499 126.714 8.80271 127 10.1334 127H47.2275C48.5582 127 49.8759 126.714 51.1053 126.158C52.3348 125.602 53.4519 124.787 54.3929 123.759C55.3339 122.732 56.0803 121.512 56.5895 120.17C57.0988 118.828 57.3609 117.389 57.3609 115.936V43.7871H58V30.18Z" fill="#3F3D56"/>
<path d="M55 11.3126V116.684C55.0003 118.889 54.2095 121.004 52.8015 122.564C51.3935 124.123 49.4837 125 47.4922 125H10.5078C8.51626 125 6.60642 124.123 5.19844 122.564C3.79046 121.004 2.99965 118.889 3 116.684V11.3126C3.00021 9.10804 3.79128 6.99383 5.19922 5.43497C6.60716 3.8761 8.51668 3.00023 10.5078 3H14.9949C14.774 3.59972 14.6898 4.25036 14.7496 4.89461C14.8094 5.53886 15.0114 6.15694 15.3377 6.69442C15.664 7.23189 16.1048 7.67226 16.621 7.97673C17.1373 8.2812 17.7133 8.44043 18.2982 8.44039H39.3845C39.9695 8.44044 40.5454 8.28121 41.0617 7.97674C41.578 7.67227 42.0187 7.2319 42.345 6.69443C42.6714 6.15695 42.8733 5.53886 42.9331 4.89461C42.9929 4.25036 42.9087 3.59972 42.6878 3H47.4922C49.4833 3.00024 51.3928 3.8761 52.8008 5.43497C54.2087 6.99383 54.9998 9.10803 55 11.3126Z" fill="#6C63FF"/>
<path d="M35 73H24V76H35V73Z" fill="#3F3D56"/>
<path d="M48 45H10V46H48V45Z" fill="#3F3D56"/>
<path d="M48 49H10V51H48V49Z" fill="#3F3D56"/>
<path d="M48 54H10V56H48V54Z" fill="#3F3D56"/>
<path d="M48 59H10V61H48V59Z" fill="#3F3D56"/>
<path d="M48 64H10V66H48V64Z" fill="#3F3D56"/>
<path d="M30 24H24V31H30V24Z" fill="#F2F2F2"/>
<path d="M26 26V35H34V26H26ZM33.653 34.6096H26.347V26.3904H33.653V34.6096Z" fill="#3F3D56"/>
<path opacity="0.1" d="M55 105.448V116.691C55.0003 118.895 54.2095 121.008 52.8015 122.566C51.3935 124.124 49.4837 125 47.4922 125H10.5078C8.51626 125 6.60642 124.124 5.19844 122.566C3.79046 121.008 2.99965 118.895 3 116.691V60L34.1589 87.2323L34.6922 87.6983L40.4883 92.7625L41.0295 93.2374L55 105.448Z" fill="black"/>
<path d="M26 121C32.6274 121 38 115.404 38 108.5C38 101.596 32.6274 96 26 96C19.3726 96 14 101.596 14 108.5C14 115.404 19.3726 121 26 121Z" fill="#F2F2F2"/>
</svg>
