<svg width="205" height="260" viewBox="0 0 205 260" fill="none" xmlns="http://www.w3.org/2000/svg">
<path fill-rule="evenodd" clip-rule="evenodd" d="M40.5508 153.061L61.3583 85.0076H144.589L165.396 153.061H40.5508Z" fill="#EED9C3"/>
<path d="M129.663 124.999C132.911 124.999 135.543 122.547 135.543 119.522C135.543 116.497 132.911 114.045 129.663 114.045C126.415 114.045 123.783 116.497 123.783 119.522C123.783 122.547 126.415 124.999 129.663 124.999Z" fill="#353535"/>
<path fill-rule="evenodd" clip-rule="evenodd" d="M90.7478 113.295C90.7478 111.382 89.0823 109.832 87.0299 109.832C82.3105 109.832 74.2157 109.832 69.4967 109.832C67.4439 109.832 65.7788 111.382 65.7788 113.295C65.7788 116.276 65.7788 120.621 65.7788 124.018C65.7788 126.887 68.2755 129.212 71.3541 129.212C73.2641 129.212 75.4892 129.212 77.7362 129.212C81.1872 129.212 84.4954 127.935 86.9375 125.662C89.3767 123.39 90.7478 120.307 90.7478 117.093C90.7478 115.715 90.7478 114.409 90.7478 113.295Z" fill="#A78347"/>
<path fill-rule="evenodd" clip-rule="evenodd" d="M163.335 19.9662L204.641 0L182.001 79.322L163.334 96.9492L163.335 19.9662Z" fill="#E3B261"/>
<path fill-rule="evenodd" clip-rule="evenodd" d="M41.3059 19.9662L0 0L22.64 79.322L41.3066 96.9492L41.3059 19.9662Z" fill="#E3B261"/>
<path fill-rule="evenodd" clip-rule="evenodd" d="M165.396 56.1591C165.396 56.1591 134.185 36.7784 102.973 36.7784C71.7622 36.7784 40.5508 56.1591 40.5508 56.1591V114.3L48.874 129.804C54.8459 108.375 81.8744 99.4486 100.688 112.691L102.973 114.3L105.259 112.691C124.073 99.4486 151.101 108.375 157.073 129.804L165.396 114.3V56.1591Z" fill="#E3B261"/>
<path fill-rule="evenodd" clip-rule="evenodd" d="M82.1652 143.371L65.5192 234.459L42.5664 218.954L61.3575 153.061L82.1652 143.371Z" fill="#D4D4D4"/>
<path fill-rule="evenodd" clip-rule="evenodd" d="M123.78 143.371L140.426 234.459L163.379 218.954L144.588 153.061L123.78 143.371Z" fill="#D5D5D5"/>
<path fill-rule="evenodd" clip-rule="evenodd" d="M40.5504 114.3L23.9043 172.441L44.7119 211.202L61.358 153.061L40.5504 114.3Z" fill="#E6E6E6"/>
<path fill-rule="evenodd" clip-rule="evenodd" d="M165.395 114.3L182.041 172.441L161.233 211.202L144.587 153.061L165.395 114.3Z" fill="#E6E6E6"/>
<path fill-rule="evenodd" clip-rule="evenodd" d="M82.1653 143.371L63.4385 238.335L102.973 257.715L142.507 238.335L123.78 143.371L104.525 134.403L102.973 133.681L82.1653 143.371Z" fill="#E6E6E6"/>
<path fill-rule="evenodd" clip-rule="evenodd" d="M110.43 147.247H95.8652C95.8652 147.247 95.8652 149.543 95.8652 152.096C95.8652 153.894 96.6329 155.617 97.9979 156.888C99.3629 158.16 101.213 158.875 103.144 158.875H103.152C105.083 158.875 106.933 158.16 108.298 156.888C109.663 155.617 110.43 153.894 110.43 152.096C110.43 149.543 110.43 147.247 110.43 147.247Z" fill="#353535"/>
</svg>
