<svg width="22" height="22" viewBox="0 0 22 22" fill="none" xmlns="http://www.w3.org/2000/svg">
<path d="M1 2.25C1 1.55965 1.55965 1 2.25 1H7.25C7.94035 1 8.5 1.55965 8.5 2.25V7.25C8.5 7.94035 7.94035 8.5 7.25 8.5H2.25C1.55965 8.5 1 7.94035 1 7.25V2.25Z" stroke="white" stroke-width="2" stroke-linecap="round" stroke-linejoin="round"/>
<path d="M1 14.75C1 14.0596 1.55965 13.5 2.25 13.5H7.25C7.94035 13.5 8.5 14.0596 8.5 14.75V19.75C8.5 20.4404 7.94035 21 7.25 21H2.25C1.55965 21 1 20.4404 1 19.75V14.75Z" stroke="white" stroke-width="2" stroke-linecap="round" stroke-linejoin="round"/>
<path d="M13.5 2.25C13.5 1.55965 14.0596 1 14.75 1H19.75C20.4404 1 21 1.55965 21 2.25V7.25C21 7.94035 20.4404 8.5 19.75 8.5H14.75C14.0596 8.5 13.5 7.94035 13.5 7.25V2.25Z" stroke="white" stroke-width="2" stroke-linecap="round" stroke-linejoin="round"/>
<path d="M13.5 14.75C13.5 14.0596 14.0596 13.5 14.75 13.5H19.75C20.4404 13.5 21 14.0596 21 14.75V19.75C21 20.4404 20.4404 21 19.75 21H14.75C14.0596 21 13.5 20.4404 13.5 19.75V14.75Z" stroke="white" stroke-width="2" stroke-linecap="round" stroke-linejoin="round"/>
</svg>
