<svg width="480" height="297" viewBox="0 0 480 297" fill="none" xmlns="http://www.w3.org/2000/svg">
<g clip-path="url(#clip0_103_143)">
<path d="M443.613 -5.87983H274.827V-9.65723H198.293V-5.87983H28.8112C27.3118 -5.87983 25.8272 -5.55917 24.442 -4.93617C23.0568 -4.31316 21.7982 -3.4 20.738 -2.24883C19.6779 -1.09767 18.8369 0.268965 18.2631 1.77304C17.6894 3.27711 17.394 4.88917 17.394 6.51717V257.473C17.394 260.761 18.5969 263.914 20.738 266.239C22.8792 268.564 25.7831 269.87 28.8112 269.87H443.613C446.641 269.87 449.545 268.564 451.687 266.239C453.828 263.914 455.031 260.761 455.031 257.473V6.51717C455.031 4.88917 454.735 3.27711 454.161 1.77304C453.588 0.268965 452.747 -1.09767 451.687 -2.24883C450.626 -3.4 449.368 -4.31316 447.983 -4.93617C446.597 -5.55917 445.113 -5.87983 443.613 -5.87983Z" fill="#3F3D56"/>
<path d="M439.724 16.0283H32.7012V265.337H439.724V16.0283Z" fill="#6C63FF"/>
<path d="M235.865 9.22884C238.17 9.22884 240.039 7.19941 240.039 4.69597C240.039 2.19253 238.17 0.163086 235.865 0.163086C233.559 0.163086 231.69 2.19253 231.69 4.69597C231.69 7.19941 233.559 9.22884 235.865 9.22884Z" fill="#6C63FF"/>
<path opacity="0.1" d="M323.322 265.337H32.7007V16.0283L323.322 265.337Z" fill="black"/>
<path d="M96.388 246.681C117.996 246.681 135.512 227.661 135.512 204.199C135.512 180.737 117.996 161.717 96.388 161.717C74.7802 161.717 57.2637 180.737 57.2637 204.199C57.2637 227.661 74.7802 246.681 96.388 246.681Z" fill="#F2F2F2"/>
<path d="M368.854 150.482H330.834V159.109H368.854V150.482Z" fill="#3F3D56"/>
<path d="M414.819 83.3193H284.869V87.0164H414.819V83.3193Z" fill="#3F3D56"/>
<path d="M414.819 95.0273H284.869V98.7244H414.819V95.0273Z" fill="#3F3D56"/>
<path d="M414.819 106.734H284.869V110.431H414.819V106.734Z" fill="#3F3D56"/>
<path d="M414.819 118.441H284.869V122.138H414.819V118.441Z" fill="#3F3D56"/>
<path d="M414.819 130.148H284.869V133.845H414.819V130.148Z" fill="#3F3D56"/>
<path d="M414.819 21.0869H398.93V38.3397H414.819V21.0869Z" fill="#F2F2F2"/>
<path d="M422.196 46.3493H402.902V25.3994H422.196V46.3493ZM403.741 45.4385H421.357V26.3103H403.741V45.4385Z" fill="#3F3D56"/>
<path d="M466.459 260.804H426.736V257.696C426.736 257.615 426.722 257.535 426.693 257.46C426.665 257.386 426.623 257.318 426.57 257.261C426.517 257.203 426.455 257.158 426.386 257.127C426.317 257.096 426.243 257.08 426.169 257.08H412.549C412.475 257.08 412.401 257.096 412.332 257.127C412.263 257.158 412.201 257.203 412.148 257.261C412.096 257.318 412.054 257.386 412.025 257.46C411.997 257.535 411.982 257.615 411.982 257.696V260.804H403.47V257.696C403.47 257.615 403.455 257.535 403.427 257.46C403.398 257.386 403.356 257.318 403.304 257.261C403.251 257.203 403.189 257.158 403.12 257.127C403.051 257.096 402.977 257.08 402.903 257.08H389.283C389.209 257.08 389.135 257.096 389.066 257.127C388.997 257.158 388.935 257.203 388.882 257.261C388.829 257.318 388.788 257.386 388.759 257.46C388.73 257.535 388.716 257.615 388.716 257.696V260.804H380.204V257.696C380.204 257.615 380.189 257.535 380.161 257.46C380.132 257.386 380.09 257.318 380.038 257.261C379.985 257.203 379.922 257.158 379.854 257.127C379.785 257.096 379.711 257.08 379.636 257.08H366.017C365.943 257.08 365.869 257.096 365.8 257.127C365.731 257.158 365.669 257.203 365.616 257.261C365.563 257.318 365.521 257.386 365.493 257.46C365.464 257.535 365.45 257.615 365.45 257.696V260.804H356.938V257.696C356.938 257.615 356.923 257.535 356.894 257.46C356.866 257.386 356.824 257.318 356.771 257.261C356.719 257.203 356.656 257.158 356.587 257.127C356.518 257.096 356.445 257.08 356.37 257.08H342.751C342.676 257.08 342.603 257.096 342.534 257.127C342.465 257.158 342.402 257.203 342.35 257.261C342.297 257.318 342.255 257.386 342.227 257.46C342.198 257.535 342.183 257.615 342.183 257.696V260.804H333.671V257.696C333.671 257.615 333.657 257.535 333.628 257.46C333.6 257.386 333.558 257.318 333.505 257.261C333.453 257.203 333.39 257.158 333.321 257.127C333.252 257.096 333.178 257.08 333.104 257.08H319.485C319.41 257.08 319.336 257.096 319.268 257.127C319.199 257.158 319.136 257.203 319.083 257.261C319.031 257.318 318.989 257.386 318.96 257.46C318.932 257.535 318.917 257.615 318.917 257.696V260.804H310.405V257.696C310.405 257.615 310.391 257.535 310.362 257.46C310.333 257.386 310.292 257.318 310.239 257.261C310.186 257.203 310.124 257.158 310.055 257.127C309.986 257.096 309.912 257.08 309.838 257.08H296.219C296.144 257.08 296.07 257.096 296.001 257.127C295.932 257.158 295.87 257.203 295.817 257.261C295.765 257.318 295.723 257.386 295.694 257.46C295.666 257.535 295.651 257.615 295.651 257.696V260.804H287.139V257.696C287.139 257.615 287.124 257.535 287.096 257.46C287.067 257.386 287.025 257.318 286.973 257.261C286.92 257.203 286.858 257.158 286.789 257.127C286.72 257.096 286.646 257.08 286.572 257.08H179.887C179.813 257.08 179.739 257.096 179.67 257.127C179.601 257.158 179.539 257.203 179.486 257.261C179.434 257.318 179.392 257.386 179.363 257.46C179.335 257.535 179.32 257.615 179.32 257.696V260.804H170.808V257.696C170.808 257.615 170.793 257.535 170.765 257.46C170.736 257.386 170.694 257.318 170.642 257.261C170.589 257.203 170.527 257.158 170.458 257.127C170.389 257.096 170.315 257.08 170.241 257.08H156.621C156.547 257.08 156.473 257.096 156.404 257.127C156.335 257.158 156.273 257.203 156.22 257.261C156.167 257.318 156.126 257.386 156.097 257.46C156.068 257.535 156.054 257.615 156.054 257.696V260.804H147.542V257.696C147.542 257.615 147.527 257.535 147.499 257.46C147.47 257.386 147.428 257.318 147.376 257.261C147.323 257.203 147.26 257.158 147.191 257.127C147.123 257.096 147.049 257.08 146.974 257.08H133.355C133.281 257.08 133.207 257.096 133.138 257.127C133.069 257.158 133.006 257.203 132.954 257.261C132.901 257.318 132.859 257.386 132.831 257.46C132.802 257.535 132.788 257.615 132.788 257.696V260.804H124.276V257.696C124.276 257.615 124.261 257.535 124.232 257.46C124.204 257.386 124.162 257.318 124.109 257.261C124.057 257.203 123.994 257.158 123.925 257.127C123.856 257.096 123.783 257.08 123.708 257.08H110.089C110.014 257.08 109.941 257.096 109.872 257.127C109.803 257.158 109.74 257.203 109.688 257.261C109.635 257.318 109.593 257.386 109.565 257.46C109.536 257.535 109.521 257.615 109.521 257.696V260.804H101.009V257.696C101.009 257.615 100.995 257.535 100.966 257.46C100.938 257.386 100.896 257.318 100.843 257.261C100.79 257.203 100.728 257.158 100.659 257.127C100.59 257.096 100.516 257.08 100.442 257.08H86.8227C86.7481 257.08 86.6743 257.096 86.6055 257.127C86.5366 257.158 86.4741 257.203 86.4214 257.261C86.3687 257.318 86.3269 257.386 86.2984 257.46C86.2699 257.535 86.2552 257.615 86.2552 257.696V260.804H77.7432V257.696C77.7432 257.615 77.7285 257.535 77.7 257.46C77.6715 257.386 77.6297 257.318 77.577 257.261C77.5243 257.203 77.4617 257.158 77.3929 257.127C77.324 257.096 77.2502 257.08 77.1757 257.08H63.5564C63.4819 257.08 63.4081 257.096 63.3393 257.127C63.2704 257.158 63.2079 257.203 63.1552 257.261C63.1025 257.318 63.0607 257.386 63.0322 257.46C63.0037 257.535 62.989 257.615 62.989 257.696V260.804H54.477V257.696C54.477 257.615 54.4623 257.535 54.4338 257.46C54.4053 257.386 54.3635 257.318 54.3108 257.261C54.2581 257.203 54.1955 257.158 54.1267 257.127C54.0578 257.096 53.984 257.08 53.9095 257.08H40.2903C40.2157 257.08 40.1419 257.096 40.0731 257.127C40.0042 257.158 39.9417 257.203 39.889 257.261C39.8363 257.318 39.7945 257.386 39.766 257.46C39.7375 257.535 39.7228 257.615 39.7228 257.696V260.804H13.6192C10.0072 260.804 6.54309 262.362 3.98899 265.135C1.43489 267.909 3.4412e-06 271.67 0 275.592V282.279C1.03236e-05 286.201 1.4349 289.962 3.989 292.736C6.5431 295.509 10.0072 297.067 13.6192 297.067H466.459C470.071 297.067 473.535 295.509 476.089 292.736C478.643 289.962 480.078 286.201 480.078 282.279V275.592C480.078 271.67 478.643 267.909 476.089 265.135C473.535 262.362 470.071 260.804 466.459 260.804Z" fill="#3F3D56"/>
<path d="M105.858 230.733C96.1064 230.733 86.5737 227.593 78.4655 221.711C70.3573 215.828 64.0377 207.467 60.3059 197.684C56.5741 187.901 55.5977 177.137 57.5001 166.752C59.4026 156.366 64.0985 146.827 70.994 139.34C77.8894 131.853 86.6748 126.754 96.2391 124.688C105.803 122.622 115.717 123.682 124.726 127.734C133.736 131.787 141.436 138.649 146.854 147.453C152.272 156.257 155.163 166.608 155.163 177.196C155.149 191.39 149.949 204.998 140.706 215.035C131.463 225.071 118.93 230.717 105.858 230.733ZM105.858 125.068C96.363 125.068 87.0812 128.125 79.1864 133.853C71.2915 139.581 65.1382 147.722 61.5046 157.248C57.871 166.773 56.9203 177.254 58.7727 187.366C60.6251 197.478 65.1974 206.766 71.9114 214.056C78.6254 221.347 87.1796 226.311 96.4922 228.323C105.805 230.334 115.458 229.302 124.23 225.356C133.002 221.411 140.5 214.729 145.775 206.157C151.05 197.585 153.866 187.506 153.866 177.196C153.852 163.376 148.789 150.126 139.789 140.353C130.789 130.581 118.586 125.084 105.858 125.068Z" fill="#3F3D56"/>
</g>
<defs>
<clipPath id="clip0_103_143">
<rect width="480" height="297" fill="white"/>
</clipPath>
</defs>
</svg>
