<svg width="30" height="30" viewBox="0 0 30 30" fill="none" xmlns="http://www.w3.org/2000/svg">
<path d="M26.6168 3.64255C22.9256 5.17135 7.0982 11.7273 2.7251 13.5141C-0.207699 14.6586 1.5092 15.7317 1.5092 15.7317C1.5092 15.7317 4.0127 16.59 6.1589 17.2338C8.3048 17.8776 9.4493 17.1624 9.4493 17.1624L19.5353 10.3668C23.1119 7.93465 22.2536 9.93745 21.395 10.7961C19.5353 12.6561 16.4594 15.5886 13.8842 17.9493C12.7397 18.9507 13.3118 19.809 13.8128 20.2383C15.6725 21.8121 20.7515 25.0311 21.0374 25.2456C22.5485 26.3154 25.5209 27.8553 25.973 24.6018L27.7613 13.3713C28.3337 9.58015 28.9058 6.07495 28.9772 5.07355C29.192 2.64115 26.6168 3.64255 26.6168 3.64255Z" fill="white"/>
</svg>
