<svg width="260" height="60" viewBox="0 0 260 60" fill="none" xmlns="http://www.w3.org/2000/svg">
<g clip-path="url(#clip0_96_509)">
<path d="M80.0579 39.5625C79.3097 39.75 78.3745 39.9375 77.4392 39.9375C75.5687 39.9375 74.8205 38.8125 74.8205 36.9375V28.5H80.0579C81.3673 28.5 82.6766 27.5625 82.6766 26.0625C82.6766 24.5625 81.5543 23.625 80.0579 23.625H74.8205V20.8125C74.8205 19.125 73.5111 18 72.0147 18C70.5183 18 69.209 19.3125 69.209 20.8125V37.125C69.209 41.8125 71.4536 45.1875 76.691 45.1875C78.1874 45.1875 80.245 45 81.7414 44.25C83.0507 43.6875 83.4248 42.75 83.4248 41.8125C83.4248 40.5 82.1155 39.1875 80.0579 39.5625ZM98.7629 22.875C98.0147 22.6875 96.5183 22.5 95.209 22.5C90.5327 22.5 87.914 25.3125 87.914 29.625V42.375C87.914 43.875 89.2234 45.1875 90.7198 45.1875C92.2162 45.1875 93.5255 43.875 93.5255 42.375V30.75C93.5255 28.875 94.2737 28.125 95.5831 28.125C96.8924 28.125 97.6406 28.5 98.7629 28.5C100.446 28.5 101.382 27 101.382 25.875C101.195 24.375 100.446 23.4375 98.7629 22.875ZM114.288 22.5C109.051 22.5 105.31 25.875 104.749 31.3125C104.749 32.625 104.562 34.875 104.749 36.5625C105.123 41.8125 108.864 45.375 114.475 45.375C117.094 45.375 119.526 44.8125 121.022 43.875C122.144 43.125 122.331 42.375 122.331 41.625C122.331 40.125 121.022 38.625 118.777 39.375C117.468 39.9375 115.972 40.3125 114.475 40.3125C111.856 40.3125 109.799 39 109.799 36.375V35.8125H120.461C122.331 35.8125 123.267 34.6875 123.267 33V32.0625C123.454 26.25 119.713 22.5 114.288 22.5ZM117.842 32.0625H109.986C109.986 29.25 111.295 27.375 114.288 27.375C116.907 27.375 118.403 29.0625 118.216 31.5C118.216 31.875 118.216 32.0625 117.842 32.0625ZM136.734 22.5C131.497 22.5 127.756 25.875 127.195 31.3125C127.195 32.625 127.008 34.875 127.195 36.5625C127.569 41.8125 131.31 45.375 136.921 45.375C139.54 45.375 141.972 44.8125 143.468 43.875C144.59 43.125 144.777 42.375 144.777 41.625C144.777 40.125 143.468 38.625 141.223 39.375C139.914 39.9375 138.418 40.3125 136.921 40.3125C134.303 40.3125 132.245 39 132.245 36.375V35.8125H142.907C144.777 35.8125 145.713 34.6875 145.713 33V32.0625C145.9 26.25 142.159 22.5 136.734 22.5ZM140.288 32.0625H132.432C132.432 29.25 133.741 27.375 136.734 27.375C139.353 27.375 140.849 29.0625 140.662 31.5C140.662 31.875 140.662 32.0625 140.288 32.0625ZM231.195 31.875L228.202 31.125C226.331 30.75 225.77 30.1875 225.77 29.25C225.77 28.3125 226.705 27.5625 228.763 27.5625C229.885 27.5625 231.195 27.9375 232.317 28.5C233.626 29.25 235.123 29.0625 235.871 28.125C236.806 27.1875 236.806 25.5 235.684 24.375C234.187 23.25 231.569 22.5 228.95 22.5C224.087 22.5 220.533 24.9375 220.533 29.4375C220.533 33 223.151 34.875 226.518 35.8125C228.202 36.1875 228.015 36.1875 229.511 36.5625C231.195 36.9375 231.943 37.6875 231.943 38.4375C231.943 39.5625 231.008 40.3125 228.763 40.3125C226.892 40.3125 225.209 39.75 223.9 39C222.59 38.0625 221.094 38.4375 220.346 39.5625C219.597 40.6875 219.785 42.1875 220.907 42.9375C222.403 44.25 224.835 45.375 228.763 45.375C233.626 45.375 237.367 42.75 237.367 38.25C237.367 34.875 235.31 32.8125 231.195 31.875ZM257.195 35.8125C259.065 35.8125 260 34.6875 260 33V32.0625C260 26.25 256.259 22.5 250.835 22.5C245.597 22.5 241.856 25.875 241.295 31.3125C241.295 32.625 241.108 34.875 241.295 36.5625C241.669 41.8125 245.41 45.375 251.022 45.375C253.641 45.375 256.072 44.8125 257.569 43.875C258.691 43.125 258.878 42.375 258.878 41.625C258.878 40.125 257.569 38.625 255.324 39.375C254.015 39.9375 252.518 40.3125 251.022 40.3125C248.403 40.3125 246.346 39 246.346 36.375V35.8125H257.195ZM250.835 27.375C253.454 27.375 254.95 29.0625 254.763 31.5C254.763 31.875 254.576 32.0625 254.389 32.0625H246.533C246.533 29.25 248.029 27.375 250.835 27.375ZM182.374 22.5C176.763 22.5 172.648 26.0625 172.087 30.9375C171.9 32.625 171.9 35.25 172.087 36.9375C172.461 41.8125 176.763 45.375 182.374 45.375C187.986 45.375 192.101 41.8125 192.475 36.9375C192.662 35.25 192.662 32.8125 192.475 31.125C192.101 26.0625 187.986 22.5 182.374 22.5ZM186.864 36C186.677 38.4375 184.993 39.9375 182.374 39.9375C179.756 39.9375 178.072 38.25 177.885 36C177.885 34.875 177.885 33 177.885 31.875C178.072 29.4375 179.756 27.9375 182.374 27.9375C184.993 27.9375 186.677 29.625 186.864 31.875C187.051 33 187.051 34.875 186.864 36ZM160.115 22.5C158.058 22.5 155.813 23.25 155.065 24.1875V18.1875C155.065 16.5 153.943 15.375 152.446 15.375C150.95 15.375 149.828 16.6875 149.828 18.1875V42.375C149.828 43.875 151.137 45.1875 152.633 45.1875C154.13 45.1875 155.252 43.875 155.252 42.375V29.8125C156.187 28.875 157.684 28.125 159.554 28.125C161.799 28.125 163.108 29.4375 163.108 32.0625V42.375C163.108 44.0625 164.231 45.375 165.727 45.375C167.41 45.375 168.533 44.0625 168.533 42.375V31.6875C168.346 25.6875 165.353 22.5 160.115 22.5ZM212.49 22.6875C210.993 22.6875 209.684 24 209.684 25.5V38.8125C208.749 39.375 207.439 39.9375 205.756 39.9375C203.511 39.9375 201.828 38.625 201.828 36V25.5C201.828 23.8125 200.518 22.5 199.022 22.5C197.338 22.5 196.403 23.8125 196.403 25.5V36.1875C196.403 42 199.77 45.1875 205.569 45.1875C209.871 45.1875 212.864 43.6875 214.173 42.75C214.921 42.375 215.108 41.8125 215.108 40.875V25.5C215.108 24 213.986 22.6875 212.49 22.6875Z" fill="white"/>
<path d="M48.6331 11.0625C46.5755 9.9375 43.3957 11.8125 41.5252 15.1875L37.9712 21.1875C36.6619 23.625 36.8489 26.625 38.5324 29.0625L38.7194 29.25C40.4029 31.5 42.4604 33.75 43.2086 34.5C43.5827 34.875 43.9568 35.4375 44.1439 36.1875C44.705 38.25 43.5827 40.5 41.3381 41.0625C39.2806 41.625 37.036 40.5 36.4748 38.25C36.2878 37.6875 36.2878 37.125 36.2878 36.75C36.4748 35.8125 36.1007 34.5 34.7914 33C33.482 31.6875 31.0504 34.3125 30.1151 36.9375V37.125C29.3669 39.75 28.8058 42.1875 28.9928 42.375C28.9928 42.5625 29.1799 42.5625 29.1799 42.75C30.3022 45 29.554 47.625 27.3094 48.75C25.0648 49.875 22.446 49.125 21.3237 46.875C20.2014 44.625 20.9496 42 23.1942 40.875C23.3813 40.875 23.3813 40.6875 23.5683 40.6875C23.7554 40.6875 24.1295 39.5625 24.6906 38.0625C25.0647 36.75 25.2518 36.1875 25.4389 35.625C25.6259 34.875 26 33 25.813 32.25C25.6259 31.3125 24.6906 31.3125 23.7554 31.875C23.1942 32.25 22.0719 33.1875 21.6978 33.5625C20.7626 34.3125 20.0144 35.4375 19.6403 36.375C19.4532 36.75 19.0791 37.3125 18.705 37.6875C17.0216 39 14.5899 38.8125 13.0935 37.125C11.7842 35.4375 11.9712 33 13.6547 31.5C14.2158 31.125 14.777 30.75 15.3381 30.75C16.2734 30.5625 19.6403 28.5 21.6978 27C22.0719 26.8125 22.6331 26.25 22.8201 26.0625C23.3813 25.3125 22.8201 24.75 22.259 24.75C20.5755 24.9375 18.705 25.125 18.3309 25.6875C18.1439 25.875 17.9568 26.25 17.5827 26.4375C16.0863 27.5625 13.8417 27.1875 12.7194 25.6875C11.5971 24.1875 11.9712 21.9375 13.4676 20.8125C14.0288 20.25 14.964 20.0625 15.5252 20.0625C16.8345 20.0625 20.2014 20.8125 22.8201 20.25L23.5683 20.0625C26.3741 19.5 29.741 17.0625 31.0504 14.625C31.0504 14.625 32.3597 12.375 33.8561 9.5625C35.5396 6.75 35.3525 3.5625 33.6691 2.625L30.4892 0.75C28.8058 -0.1875 26.3741 -0.1875 24.6906 0.75L2.99281 13.125C1.30935 14.0625 0 16.3125 0 18.1875V42.1875C0 44.0625 1.30935 46.3125 2.99281 47.25L24.6906 59.625C26.3741 60.5625 28.9928 60.5625 30.4892 59.625L52.187 47.25C53.8705 46.3125 55.1799 44.0625 55.1799 42.1875V18.1875C55.1799 16.3125 53.8705 14.0625 52.187 13.125C52.187 13.125 50.6907 12.1875 48.6331 11.0625Z" fill="#64CE83"/>
</g>
<defs>
<clipPath id="clip0_96_509">
<rect width="260" height="60" fill="white"/>
</clipPath>
</defs>
</svg>
