<svg width="260" height="48" viewBox="0 0 260 48" fill="none" xmlns="http://www.w3.org/2000/svg">
<g clip-path="url(#clip0_96_308)">
<path fill-rule="evenodd" clip-rule="evenodd" d="M3.74864 11.2103L16.0891 4.15116L16.0965 23.947C16.0736 31.2837 21.3013 37.8651 28.5265 39.5965L28.6883 39.6352L28.5851 39.7634C28.4214 39.9746 28.2642 40.1767 28.0705 40.3661C27.4165 41.0034 26.6969 41.582 25.9322 42.0854C25.1615 42.5926 24.3383 43.0282 23.4851 43.379C22.6157 43.7362 21.7072 44.01 20.7857 44.1921C19.8131 44.384 18.9722 44.4706 18.0717 44.4706C18.043 44.4706 18.0135 44.4706 17.9844 44.4706C17.0041 44.4671 16.0273 44.3678 15.0816 44.1746C14.1611 43.9875 13.2545 43.7083 12.387 43.3454C11.538 42.9904 10.7171 42.5505 9.94764 42.0375C9.18498 41.5284 8.46953 40.9456 7.82104 40.3052C7.16996 39.6631 6.57969 38.9576 6.06769 38.2086C5.55019 37.4524 5.10643 36.6451 4.74871 35.8086C4.38517 34.9594 4.10636 34.0686 3.92006 33.161C3.71888 32.1821 3.69463 31.1708 3.69754 30.3108L3.6956 11.2407L3.74864 11.2103ZM34.7977 36.1572C35.5112 34.1815 35.876 32.2484 35.8818 30.412V9.50553L45.2369 4.23681V24.0349C45.2344 24.9326 45.1493 25.7831 44.9843 26.5619C44.8142 27.3654 44.5616 28.1543 44.2343 28.9068C43.9115 29.6484 43.513 30.3628 43.0502 31.0299C42.5909 31.6926 42.0637 32.3156 41.4831 32.8819C40.9016 33.4484 40.2631 33.962 39.5852 34.4077C38.9027 34.8575 38.1711 35.2442 37.4104 35.557C36.6429 35.8821 35.9271 36.0979 35.0183 36.2774C34.9875 36.2834 34.9529 36.2895 34.917 36.2955L34.7369 36.3266L34.7977 36.1572ZM0 9.29648L0.00873281 30.301C-0.0210234 40.0308 8.02545 47.9705 17.9453 48.0003H17.9996C21.1515 48.0003 24.253 47.1889 26.9685 45.6551L40.0891 38.2607C45.529 35.4929 48.9173 30.0462 48.9358 24.0444L48.9377 2.10698C48.9377 2.04449 48.9034 1.98612 48.8484 1.95472L45.6344 0.111027C45.5795 0.0793053 45.5106 0.0793053 45.4549 0.109759L32.2729 7.40648C32.2163 7.43757 32.1814 7.49657 32.1814 7.56033L32.1927 30.3974C32.1901 31.3576 32.0889 32.3156 31.8916 33.2451C31.7001 34.1492 31.4161 35.038 31.0468 35.8875C30.9775 36.0458 30.9054 36.2032 30.8304 36.3589L30.7971 36.4281L30.7198 36.4183C30.4969 36.3897 30.3501 36.3627 29.9581 36.2904L29.8543 36.2711C29.0292 36.1045 27.3492 35.6357 25.3468 34.3668C24.6686 33.9144 24.033 33.397 23.4567 32.8276C22.8787 32.2576 22.355 31.6314 21.9006 30.9668C21.4407 30.2946 21.0467 29.578 20.7298 28.8367C20.407 28.082 20.1599 27.2912 19.9946 26.4876C19.8471 25.7701 19.7856 25.0259 19.7892 23.9997V2.08985C19.7892 2.02768 19.7569 1.97089 19.7025 1.93822L16.4921 0.0256949C16.4633 0.00856497 16.4309 0 16.3983 0C16.3676 0 16.3365 0.00793053 16.309 0.0234744L0.0902391 9.14327C0.0349313 9.17467 0 9.23336 0 9.29648Z" fill="#0000FF"/>
<path fill-rule="evenodd" clip-rule="evenodd" d="M89.7205 26.6244C89.7205 30.3181 86.5098 33.2115 82.4109 33.2115C78.2977 33.2115 75.1953 30.3796 75.1953 26.6244V11.7733H71.5029V26.6577C71.5029 32.3851 76.0902 36.542 82.4109 36.542C88.7865 36.542 93.4139 32.3851 93.4139 26.6577L93.4165 11.7648H89.7205V26.6244Z" fill="white"/>
<path fill-rule="evenodd" clip-rule="evenodd" d="M121.523 23.9922C121.523 29.5836 118.16 32.9217 112.529 32.9217L108.186 32.9096V15.0919H112.529C118.16 15.0919 121.523 18.419 121.523 23.9922ZM112.764 11.7763L104.549 11.764H104.49V36.235H112.715C120.297 36.235 125.197 31.4295 125.197 23.9922C125.197 16.5718 120.317 11.777 112.764 11.7763Z" fill="white"/>
<path fill-rule="evenodd" clip-rule="evenodd" d="M254.629 11.7646L247.391 22.041L240.1 11.7894L240.082 11.7646H235.922L245.55 25.8134V36.2351H249.246V25.8112L258.689 11.8544L258.749 11.7646H254.629Z" fill="white"/>
<path fill-rule="evenodd" clip-rule="evenodd" d="M208.984 15.0919H217.486V36.235L221.179 36.2341L221.182 15.0919H229.683V11.7646H208.984V15.0919Z" fill="white"/>
<path fill-rule="evenodd" clip-rule="evenodd" d="M195.462 36.2327H199.158V11.767H195.462V36.2327Z" fill="white"/>
<path fill-rule="evenodd" clip-rule="evenodd" d="M181.775 30.3233C181.748 30.3522 178.998 33.2024 174.62 33.2024C169.523 33.2024 165.68 29.1728 165.68 23.8286C165.68 18.6909 169.494 14.8163 174.553 14.8163C178.655 14.8163 181.244 17.1771 181.27 17.2009L181.794 17.6894L183.763 15.0311L183.407 14.6571C183.284 14.5267 180.319 11.4674 174.486 11.4674C167.371 11.4674 162.006 16.7958 162.006 23.8619C162.006 31.0961 167.414 36.5513 174.587 36.5513C180.591 36.5513 183.916 32.9144 184.055 32.7596L184.409 32.3643L182.27 29.7974L181.775 30.3233Z" fill="white"/>
<path fill-rule="evenodd" clip-rule="evenodd" d="M146.875 25.3363L139.526 26.8094L143.505 17.1976L146.875 25.3363ZM145.199 11.776H141.812L131.722 36.2423H135.621L137.856 30.8442L148.29 28.7527L151.375 36.2062L151.39 36.2423H155.29L145.214 11.8122L145.199 11.776Z" fill="white"/>
</g>
<defs>
<clipPath id="clip0_96_308">
<rect width="260" height="48" fill="white"/>
</clipPath>
</defs>
</svg>
