<svg width="260" height="260" viewBox="0 0 260 260" fill="none" xmlns="http://www.w3.org/2000/svg">
<g clip-path="url(#clip0_96_526)">
<path fill-rule="evenodd" clip-rule="evenodd" d="M130 0L0 130L56.2994 186.811L79.8424 172.48L61.9291 191.929L130 260L260 130L130 0ZM182.149 115.158C185.741 111.575 191.385 111.575 194.976 115.158C198.568 118.741 198.568 124.371 194.976 127.953C198.055 124.882 175.992 146.89 165.73 157.126C162.138 160.709 156.494 160.709 152.903 157.126C154.442 158.662 130.326 134.095 130.326 134.095C130.326 134.095 112.881 151.497 107.75 157.126C104.159 160.709 98.5147 160.709 94.9231 157.126C93.3837 155.591 67.7289 130 65.6767 127.953C62.0851 124.371 62.0851 118.741 65.6767 115.158C69.2683 111.575 74.9121 111.575 78.5041 115.158C81.0694 117.717 101.08 138.189 101.08 138.189C101.08 138.189 126.735 112.599 123.656 115.158C127.248 111.575 132.892 111.575 136.483 115.158C140.075 118.741 159.06 138.189 159.06 138.189C159.06 138.189 180.61 116.181 182.149 115.158Z" fill="#7FE094"/>
<path d="M59.5176 236.457C63.7683 236.457 67.214 233.02 67.214 228.78C67.214 224.54 63.7683 221.103 59.5176 221.103C55.267 221.103 51.8213 224.54 51.8213 228.78C51.8213 233.02 55.267 236.457 59.5176 236.457Z" fill="#7FE094"/>
<path fill-rule="evenodd" clip-rule="evenodd" d="M53.8752 237.992L47.2051 253.347C47.2051 253.347 51.3098 256.929 59.5193 256.929C62.0847 249.764 62.0847 249.764 62.0847 249.764L65.1631 255.394L69.781 252.835L64.65 238.504C64.65 238.504 62.5978 240.039 59.0062 240.039C55.4146 240.039 53.8752 237.992 53.8752 237.992Z" fill="#7FE094"/>
<path fill-rule="evenodd" clip-rule="evenodd" d="M59.5199 218.031C60.5462 218.031 61.5724 218.031 62.0852 218.543V191.929L56.4414 186.299V218.031C57.4677 218.543 58.4936 218.031 59.5199 218.031Z" fill="#7FE094"/>
</g>
<defs>
<clipPath id="clip0_96_526">
<rect width="260" height="260" fill="white"/>
</clipPath>
</defs>
</svg>
